<?xml version="1.0" encoding="UTF-8"?>
<!DOCTYPE svg PUBLIC "-//W3C//DTD SVG 1.1//EN" "http://www.w3.org/Graphics/SVG/1.1/DTD/svg11.dtd">
<svg xmlns="http://www.w3.org/2000/svg" xmlns:xlink="http://www.w3.org/1999/xlink" version="1.1" width="881px" height="241px" viewBox="-0.5 -0.5 881 241" style="background-color: rgb(255, 255, 255);"><defs><clipPath id="mx-clip-10-39-30-30-0"><rect x="10" y="39" width="30" height="30"/></clipPath><clipPath id="mx-clip-46-39-244-30-0"><rect x="46" y="39" width="244" height="30"/></clipPath><clipPath id="mx-clip-10-69-30-30-0"><rect x="10" y="69" width="30" height="30"/></clipPath><clipPath id="mx-clip-46-69-244-30-0"><rect x="46" y="69" width="244" height="30"/></clipPath><clipPath id="mx-clip-46-99-244-30-0"><rect x="46" y="99" width="244" height="30"/></clipPath><clipPath id="mx-clip-46-129-244-30-0"><rect x="46" y="129" width="244" height="30"/></clipPath><clipPath id="mx-clip-46-159-244-30-0"><rect x="46" y="159" width="244" height="30"/></clipPath><clipPath id="mx-clip-46-189-244-30-0"><rect x="46" y="189" width="244" height="30"/></clipPath><clipPath id="mx-clip-370-39-30-30-0"><rect x="370" y="39" width="30" height="30"/></clipPath><clipPath id="mx-clip-406-39-204-30-0"><rect x="406" y="39" width="204" height="30"/></clipPath><clipPath id="mx-clip-370-69-30-30-0"><rect x="370" y="69" width="30" height="30"/></clipPath><clipPath id="mx-clip-406-69-204-30-0"><rect x="406" y="69" width="204" height="30"/></clipPath><clipPath id="mx-clip-406-99-204-30-0"><rect x="406" y="99" width="204" height="30"/></clipPath><style type="text/css">@import url(https://fonts.googleapis.com/css?family=Permanent+Marker);&#xa;</style></defs><g><rect x="0" y="0" width="880" height="240" fill="rgb(255, 255, 255)" stroke="#cccccc" pointer-events="all"/><path d="M 10 39 L 10 9 L 290 9 L 290 39" fill="rgb(255, 255, 255)" stroke="rgb(0, 0, 0)" stroke-miterlimit="10" pointer-events="all"/><path d="M 10 39 L 10 229 L 290 229 L 290 39" fill="none" stroke="rgb(0, 0, 0)" stroke-miterlimit="10" pointer-events="none"/><path d="M 10 39 L 290 39" fill="none" stroke="rgb(0, 0, 0)" stroke-miterlimit="10" pointer-events="none"/><path d="M 40 39 L 40 69 L 40 99 L 40 129 L 40 159 L 40 189 L 40 219" fill="none" stroke="rgb(0, 0, 0)" stroke-miterlimit="10" pointer-events="none"/><g fill="rgb(0, 0, 0)" font-family="Helvetica" font-weight="bold" pointer-events="none" text-anchor="middle" font-size="16px"><text x="149.5" y="30.5">etymonUnits</text></g><path d="M 10 39 M 290 39 M 290 69 L 10 69" fill="none" stroke="rgb(0, 0, 0)" stroke-linecap="square" stroke-miterlimit="10" pointer-events="none"/><path d="M 10 39 M 40 39 M 40 69 M 10 69" fill="none" stroke="rgb(0, 0, 0)" stroke-linecap="square" stroke-miterlimit="10" pointer-events="none"/><g fill="rgb(0, 0, 0)" font-family="Helvetica" font-weight="bold" pointer-events="none" clip-path="url(#mx-clip-10-39-30-30-0)" text-anchor="middle" font-size="16px"><text x="24.5" y="60.5">PK</text></g><path d="M 40 39 M 290 39 M 290 69 M 40 69" fill="none" stroke="rgb(0, 0, 0)" stroke-linecap="square" stroke-miterlimit="10" pointer-events="none"/><g fill="rgb(0, 0, 0)" font-family="Helvetica" font-weight="bold" text-decoration="underline" pointer-events="none" clip-path="url(#mx-clip-46-39-244-30-0)" font-size="16px"><text x="47.5" y="60.5">id</text></g><path d="M 10 69 M 40 69 M 40 99 M 10 99" fill="none" stroke="rgb(0, 0, 0)" stroke-linecap="square" stroke-miterlimit="10" pointer-events="none"/><g fill="rgb(0, 0, 0)" font-family="Helvetica" pointer-events="none" clip-path="url(#mx-clip-10-69-30-30-0)" text-anchor="middle" font-size="16px"><text x="24.5" y="90.5">FK</text></g><path d="M 40 69 M 290 69 M 290 99 M 40 99" fill="none" stroke="rgb(0, 0, 0)" stroke-linecap="square" stroke-miterlimit="10" pointer-events="none"/><g fill="rgb(0, 0, 0)" font-family="Helvetica" pointer-events="none" clip-path="url(#mx-clip-46-69-244-30-0)" font-size="16px"><text x="47.5" y="90.5">etymonID</text></g><path d="M 10 99 M 40 99 M 40 129 M 10 129" fill="none" stroke="rgb(0, 0, 0)" stroke-linecap="square" stroke-miterlimit="10" pointer-events="none"/><path d="M 40 99 M 290 99 M 290 129 M 40 129" fill="none" stroke="rgb(0, 0, 0)" stroke-linecap="square" stroke-miterlimit="10" pointer-events="none"/><g fill="rgb(0, 0, 0)" font-family="Helvetica" pointer-events="none" clip-path="url(#mx-clip-46-99-244-30-0)" font-size="16px"><text x="47.5" y="120.5">langCode</text></g><path d="M 10 129 M 40 129 M 40 159 M 10 159" fill="none" stroke="rgb(0, 0, 0)" stroke-linecap="square" stroke-miterlimit="10" pointer-events="none"/><path d="M 40 129 M 290 129 M 290 159 M 40 159" fill="none" stroke="rgb(0, 0, 0)" stroke-linecap="square" stroke-miterlimit="10" pointer-events="none"/><g fill="rgb(0, 0, 0)" font-family="Helvetica" pointer-events="none" clip-path="url(#mx-clip-46-129-244-30-0)" font-size="16px"><text x="47.5" y="150.5">text</text></g><path d="M 10 159 M 40 159 M 40 189 M 10 189" fill="none" stroke="rgb(0, 0, 0)" stroke-linecap="square" stroke-miterlimit="10" pointer-events="none"/><path d="M 40 159 M 290 159 M 290 189 M 40 189" fill="none" stroke="rgb(0, 0, 0)" stroke-linecap="square" stroke-miterlimit="10" pointer-events="none"/><g fill="rgb(0, 0, 0)" font-family="Helvetica" pointer-events="none" clip-path="url(#mx-clip-46-159-244-30-0)" font-size="16px"><text x="47.5" y="180.5">reconstructed</text></g><path d="M 10 189 M 40 189 M 40 219 M 10 219" fill="none" stroke="rgb(0, 0, 0)" stroke-linecap="square" stroke-miterlimit="10" pointer-events="none"/><path d="M 40 189 M 290 189 M 290 219 M 40 219" fill="none" stroke="rgb(0, 0, 0)" stroke-linecap="square" stroke-miterlimit="10" pointer-events="none"/><g fill="rgb(0, 0, 0)" font-family="Helvetica" pointer-events="none" clip-path="url(#mx-clip-46-189-244-30-0)" font-size="16px"><text x="47.5" y="210.5">listingOrder</text></g><path d="M 370 39 L 370 9 L 610 9 L 610 39" fill="rgb(255, 255, 255)" stroke="rgb(0, 0, 0)" stroke-miterlimit="10" pointer-events="none"/><path d="M 370 39 L 370 139 L 610 139 L 610 39" fill="none" stroke="rgb(0, 0, 0)" stroke-miterlimit="10" pointer-events="none"/><path d="M 370 39 L 610 39" fill="none" stroke="rgb(0, 0, 0)" stroke-miterlimit="10" pointer-events="none"/><path d="M 400 39 L 400 69 L 400 99 L 400 129" fill="none" stroke="rgb(0, 0, 0)" stroke-miterlimit="10" pointer-events="none"/><g fill="rgb(0, 0, 0)" font-family="Helvetica" font-weight="bold" pointer-events="none" text-anchor="middle" font-size="16px"><text x="489.5" y="30.5">partsOfSpeech</text></g><path d="M 370 39 M 610 39 M 610 69 L 370 69" fill="none" stroke="rgb(0, 0, 0)" stroke-linecap="square" stroke-miterlimit="10" pointer-events="none"/><path d="M 370 39 M 400 39 M 400 69 M 370 69" fill="none" stroke="rgb(0, 0, 0)" stroke-linecap="square" stroke-miterlimit="10" pointer-events="none"/><g fill="rgb(0, 0, 0)" font-family="Helvetica" font-weight="bold" pointer-events="none" clip-path="url(#mx-clip-370-39-30-30-0)" text-anchor="middle" font-size="16px"><text x="384.5" y="60.5">PK</text></g><path d="M 400 39 M 610 39 M 610 69 M 400 69" fill="none" stroke="rgb(0, 0, 0)" stroke-linecap="square" stroke-miterlimit="10" pointer-events="none"/><g fill="rgb(0, 0, 0)" font-family="Helvetica" font-weight="bold" text-decoration="underline" pointer-events="none" clip-path="url(#mx-clip-406-39-204-30-0)" font-size="16px"><text x="407.5" y="60.5">id</text></g><path d="M 370 69 M 400 69 M 400 99 M 370 99" fill="none" stroke="rgb(0, 0, 0)" stroke-linecap="square" stroke-miterlimit="10" pointer-events="none"/><g fill="rgb(0, 0, 0)" font-family="Helvetica" pointer-events="none" clip-path="url(#mx-clip-370-69-30-30-0)" text-anchor="middle" font-size="16px"><text x="384.5" y="90.5">FK</text></g><path d="M 400 69 M 610 69 M 610 99 M 400 99" fill="none" stroke="rgb(0, 0, 0)" stroke-linecap="square" stroke-miterlimit="10" pointer-events="none"/><g fill="rgb(0, 0, 0)" font-family="Helvetica" pointer-events="none" clip-path="url(#mx-clip-406-69-204-30-0)" font-size="16px"><text x="407.5" y="90.5">etymonUnitID</text></g><path d="M 370 99 M 400 99 M 400 129 M 370 129" fill="none" stroke="rgb(0, 0, 0)" stroke-linecap="square" stroke-miterlimit="10" pointer-events="none"/><path d="M 400 99 M 610 99 M 610 129 M 400 129" fill="none" stroke="rgb(0, 0, 0)" stroke-linecap="square" stroke-miterlimit="10" pointer-events="none"/><g fill="rgb(0, 0, 0)" font-family="Helvetica" pointer-events="none" clip-path="url(#mx-clip-406-99-204-30-0)" font-size="16px"><text x="407.5" y="120.5">···</text></g><path d="M 290 54 L 320 54 Q 330 54 330 64 L 330 74 Q 330 84 338.25 84 L 346.5 84" fill="none" stroke="rgb(0, 0, 0)" stroke-miterlimit="10" pointer-events="none"/><path d="M 296 48 L 296 60" fill="none" stroke="rgb(0, 0, 0)" stroke-miterlimit="10" pointer-events="none"/><ellipse cx="352" cy="84" rx="5" ry="5" fill="none" stroke="rgb(0, 0, 0)" pointer-events="none"/><path d="M 370 78 L 358 84 L 370 90 M 358 84 L 370 84" fill="none" stroke="rgb(0, 0, 0)" stroke-miterlimit="10" pointer-events="none"/></g></svg>