<?xml version="1.0" encoding="UTF-8"?>
<!DOCTYPE svg PUBLIC "-//W3C//DTD SVG 1.1//EN" "http://www.w3.org/Graphics/SVG/1.1/DTD/svg11.dtd">
<svg xmlns="http://www.w3.org/2000/svg" xmlns:xlink="http://www.w3.org/1999/xlink" version="1.1" width="881px" height="471px" viewBox="-0.5 -0.5 881 471" style="background-color: rgb(255, 255, 255);"><defs><clipPath id="mx-clip-10-40-30-30-0"><rect x="10" y="40" width="30" height="30"/></clipPath><clipPath id="mx-clip-46-40-204-30-0"><rect x="46" y="40" width="204" height="30"/></clipPath><clipPath id="mx-clip-10-70-30-30-0"><rect x="10" y="70" width="30" height="30"/></clipPath><clipPath id="mx-clip-46-70-204-30-0"><rect x="46" y="70" width="204" height="30"/></clipPath><clipPath id="mx-clip-46-100-204-30-0"><rect x="46" y="100" width="204" height="30"/></clipPath><clipPath id="mx-clip-46-130-204-30-0"><rect x="46" y="130" width="204" height="30"/></clipPath><clipPath id="mx-clip-320-40-30-30-0"><rect x="320" y="40" width="30" height="30"/></clipPath><clipPath id="mx-clip-356-40-204-30-0"><rect x="356" y="40" width="204" height="30"/></clipPath><clipPath id="mx-clip-320-70-30-30-0"><rect x="320" y="70" width="30" height="30"/></clipPath><clipPath id="mx-clip-356-70-204-30-0"><rect x="356" y="70" width="204" height="30"/></clipPath><clipPath id="mx-clip-356-100-204-30-0"><rect x="356" y="100" width="204" height="30"/></clipPath><clipPath id="mx-clip-590-110-30-30-0"><rect x="590" y="110" width="30" height="30"/></clipPath><clipPath id="mx-clip-626-110-204-30-0"><rect x="626" y="110" width="204" height="30"/></clipPath><clipPath id="mx-clip-590-140-30-30-0"><rect x="590" y="140" width="30" height="30"/></clipPath><clipPath id="mx-clip-626-140-204-30-0"><rect x="626" y="140" width="204" height="30"/></clipPath><clipPath id="mx-clip-626-170-204-30-0"><rect x="626" y="170" width="204" height="30"/></clipPath><clipPath id="mx-clip-320-200-30-30-0"><rect x="320" y="200" width="30" height="30"/></clipPath><clipPath id="mx-clip-356-200-204-30-0"><rect x="356" y="200" width="204" height="30"/></clipPath><clipPath id="mx-clip-320-230-30-30-0"><rect x="320" y="230" width="30" height="30"/></clipPath><clipPath id="mx-clip-356-230-204-30-0"><rect x="356" y="230" width="204" height="30"/></clipPath><clipPath id="mx-clip-356-260-204-30-0"><rect x="356" y="260" width="204" height="30"/></clipPath><clipPath id="mx-clip-590-270-30-30-0"><rect x="590" y="270" width="30" height="30"/></clipPath><clipPath id="mx-clip-626-270-204-30-0"><rect x="626" y="270" width="204" height="30"/></clipPath><clipPath id="mx-clip-590-300-30-30-0"><rect x="590" y="300" width="30" height="30"/></clipPath><clipPath id="mx-clip-626-300-204-30-0"><rect x="626" y="300" width="204" height="30"/></clipPath><clipPath id="mx-clip-626-330-204-30-0"><rect x="626" y="330" width="204" height="30"/></clipPath><clipPath id="mx-clip-320-360-30-30-0"><rect x="320" y="360" width="30" height="30"/></clipPath><clipPath id="mx-clip-356-360-204-30-0"><rect x="356" y="360" width="204" height="30"/></clipPath><clipPath id="mx-clip-320-390-30-30-0"><rect x="320" y="390" width="30" height="30"/></clipPath><clipPath id="mx-clip-356-390-204-30-0"><rect x="356" y="390" width="204" height="30"/></clipPath><clipPath id="mx-clip-356-420-204-30-0"><rect x="356" y="420" width="204" height="30"/></clipPath><style type="text/css">@import url(https://fonts.googleapis.com/css?family=Permanent+Marker);&#xa;</style></defs><g><rect x="0" y="0" width="880" height="470" fill="rgb(255, 255, 255)" stroke="#cccccc" pointer-events="all"/><path d="M 10 40 L 10 10 L 250 10 L 250 40" fill="rgb(255, 255, 255)" stroke="rgb(0, 0, 0)" stroke-miterlimit="10" pointer-events="all"/><path d="M 10 40 L 10 170 L 250 170 L 250 40" fill="none" stroke="rgb(0, 0, 0)" stroke-miterlimit="10" pointer-events="none"/><path d="M 10 40 L 250 40" fill="none" stroke="rgb(0, 0, 0)" stroke-miterlimit="10" pointer-events="none"/><path d="M 40 40 L 40 70 L 40 100 L 40 130 L 40 160" fill="none" stroke="rgb(0, 0, 0)" stroke-miterlimit="10" pointer-events="none"/><g fill="rgb(0, 0, 0)" font-family="Helvetica" font-weight="bold" pointer-events="none" text-anchor="middle" font-size="16px"><text x="129.5" y="31.5">entries</text></g><path d="M 10 40 M 250 40 M 250 70 L 10 70" fill="none" stroke="rgb(0, 0, 0)" stroke-linecap="square" stroke-miterlimit="10" pointer-events="none"/><path d="M 10 40 M 40 40 M 40 70 M 10 70" fill="none" stroke="rgb(0, 0, 0)" stroke-linecap="square" stroke-miterlimit="10" pointer-events="none"/><g fill="rgb(0, 0, 0)" font-family="Helvetica" font-weight="bold" pointer-events="none" clip-path="url(#mx-clip-10-40-30-30-0)" text-anchor="middle" font-size="16px"><text x="24.5" y="61.5">PK</text></g><path d="M 40 40 M 250 40 M 250 70 M 40 70" fill="none" stroke="rgb(0, 0, 0)" stroke-linecap="square" stroke-miterlimit="10" pointer-events="none"/><g fill="rgb(0, 0, 0)" font-family="Helvetica" font-weight="bold" text-decoration="underline" pointer-events="none" clip-path="url(#mx-clip-46-40-204-30-0)" font-size="16px"><text x="47.5" y="61.5">id</text></g><path d="M 10 70 M 40 70 M 40 100 M 10 100" fill="none" stroke="rgb(0, 0, 0)" stroke-linecap="square" stroke-miterlimit="10" pointer-events="none"/><g fill="rgb(0, 0, 0)" font-family="Helvetica" pointer-events="none" clip-path="url(#mx-clip-10-70-30-30-0)" text-anchor="middle" font-size="16px"><text x="24.5" y="91.5">FK</text></g><path d="M 40 70 M 250 70 M 250 100 M 40 100" fill="none" stroke="rgb(0, 0, 0)" stroke-linecap="square" stroke-miterlimit="10" pointer-events="none"/><g fill="rgb(0, 0, 0)" font-family="Helvetica" pointer-events="none" clip-path="url(#mx-clip-46-70-204-30-0)" font-size="16px"><text x="47.5" y="91.5">lexicographicResourceID</text></g><path d="M 10 100 M 40 100 M 40 130 M 10 130" fill="none" stroke="rgb(0, 0, 0)" stroke-linecap="square" stroke-miterlimit="10" pointer-events="none"/><path d="M 40 100 M 250 100 M 250 130 M 40 130" fill="none" stroke="rgb(0, 0, 0)" stroke-linecap="square" stroke-miterlimit="10" pointer-events="none"/><g fill="rgb(0, 0, 0)" font-family="Helvetica" pointer-events="none" clip-path="url(#mx-clip-46-100-204-30-0)" font-size="16px"><text x="47.5" y="121.5">headword</text></g><path d="M 10 130 M 40 130 M 40 160 M 10 160" fill="none" stroke="rgb(0, 0, 0)" stroke-linecap="square" stroke-miterlimit="10" pointer-events="none"/><path d="M 40 130 M 250 130 M 250 160 M 40 160" fill="none" stroke="rgb(0, 0, 0)" stroke-linecap="square" stroke-miterlimit="10" pointer-events="none"/><g fill="rgb(0, 0, 0)" font-family="Helvetica" pointer-events="none" clip-path="url(#mx-clip-46-130-204-30-0)" font-size="16px"><text x="47.5" y="151.5">homographNumber</text></g><path d="M 320 40 L 320 10 L 560 10 L 560 40" fill="rgb(255, 255, 255)" stroke="rgb(0, 0, 0)" stroke-miterlimit="10" pointer-events="none"/><path d="M 320 40 L 320 140 L 560 140 L 560 40" fill="none" stroke="rgb(0, 0, 0)" stroke-miterlimit="10" pointer-events="none"/><path d="M 320 40 L 560 40" fill="none" stroke="rgb(0, 0, 0)" stroke-miterlimit="10" pointer-events="none"/><path d="M 350 40 L 350 70 L 350 100 L 350 130" fill="none" stroke="rgb(0, 0, 0)" stroke-miterlimit="10" pointer-events="none"/><g fill="rgb(0, 0, 0)" font-family="Helvetica" font-weight="bold" pointer-events="none" text-anchor="middle" font-size="16px"><text x="439.5" y="31.5">partsOfSpeech</text></g><path d="M 320 40 M 560 40 M 560 70 L 320 70" fill="none" stroke="rgb(0, 0, 0)" stroke-linecap="square" stroke-miterlimit="10" pointer-events="none"/><path d="M 320 40 M 350 40 M 350 70 M 320 70" fill="none" stroke="rgb(0, 0, 0)" stroke-linecap="square" stroke-miterlimit="10" pointer-events="none"/><g fill="rgb(0, 0, 0)" font-family="Helvetica" font-weight="bold" pointer-events="none" clip-path="url(#mx-clip-320-40-30-30-0)" text-anchor="middle" font-size="16px"><text x="334.5" y="61.5">PK</text></g><path d="M 350 40 M 560 40 M 560 70 M 350 70" fill="none" stroke="rgb(0, 0, 0)" stroke-linecap="square" stroke-miterlimit="10" pointer-events="none"/><g fill="rgb(0, 0, 0)" font-family="Helvetica" font-weight="bold" text-decoration="underline" pointer-events="none" clip-path="url(#mx-clip-356-40-204-30-0)" font-size="16px"><text x="357.5" y="61.5">id</text></g><path d="M 320 70 M 350 70 M 350 100 M 320 100" fill="none" stroke="rgb(0, 0, 0)" stroke-linecap="square" stroke-miterlimit="10" pointer-events="none"/><g fill="rgb(0, 0, 0)" font-family="Helvetica" pointer-events="none" clip-path="url(#mx-clip-320-70-30-30-0)" text-anchor="middle" font-size="16px"><text x="334.5" y="91.5">FK</text></g><path d="M 350 70 M 560 70 M 560 100 M 350 100" fill="none" stroke="rgb(0, 0, 0)" stroke-linecap="square" stroke-miterlimit="10" pointer-events="none"/><g fill="rgb(0, 0, 0)" font-family="Helvetica" pointer-events="none" clip-path="url(#mx-clip-356-70-204-30-0)" font-size="16px"><text x="357.5" y="91.5">entryID</text></g><path d="M 320 100 M 350 100 M 350 130 M 320 130" fill="none" stroke="rgb(0, 0, 0)" stroke-linecap="square" stroke-miterlimit="10" pointer-events="none"/><path d="M 350 100 M 560 100 M 560 130 M 350 130" fill="none" stroke="rgb(0, 0, 0)" stroke-linecap="square" stroke-miterlimit="10" pointer-events="none"/><g fill="rgb(0, 0, 0)" font-family="Helvetica" pointer-events="none" clip-path="url(#mx-clip-356-100-204-30-0)" font-size="16px"><text x="357.5" y="121.5">···</text></g><path d="M 590 110 L 590 80 L 830 80 L 830 110" fill="rgb(255, 255, 255)" stroke="rgb(0, 0, 0)" stroke-miterlimit="10" pointer-events="none"/><path d="M 590 110 L 590 210 L 830 210 L 830 110" fill="none" stroke="rgb(0, 0, 0)" stroke-miterlimit="10" pointer-events="none"/><path d="M 590 110 L 830 110" fill="none" stroke="rgb(0, 0, 0)" stroke-miterlimit="10" pointer-events="none"/><path d="M 620 110 L 620 140 L 620 170 L 620 200" fill="none" stroke="rgb(0, 0, 0)" stroke-miterlimit="10" pointer-events="none"/><g fill="rgb(0, 0, 0)" font-family="Helvetica" font-weight="bold" pointer-events="none" text-anchor="middle" font-size="16px"><text x="709.5" y="101.5">labels</text></g><path d="M 590 110 M 830 110 M 830 140 L 590 140" fill="none" stroke="rgb(0, 0, 0)" stroke-linecap="square" stroke-miterlimit="10" pointer-events="none"/><path d="M 590 110 M 620 110 M 620 140 M 590 140" fill="none" stroke="rgb(0, 0, 0)" stroke-linecap="square" stroke-miterlimit="10" pointer-events="none"/><g fill="rgb(0, 0, 0)" font-family="Helvetica" font-weight="bold" pointer-events="none" clip-path="url(#mx-clip-590-110-30-30-0)" text-anchor="middle" font-size="16px"><text x="604.5" y="131.5">PK</text></g><path d="M 620 110 M 830 110 M 830 140 M 620 140" fill="none" stroke="rgb(0, 0, 0)" stroke-linecap="square" stroke-miterlimit="10" pointer-events="none"/><g fill="rgb(0, 0, 0)" font-family="Helvetica" font-weight="bold" text-decoration="underline" pointer-events="none" clip-path="url(#mx-clip-626-110-204-30-0)" font-size="16px"><text x="627.5" y="131.5">id</text></g><path d="M 590 140 M 620 140 M 620 170 M 590 170" fill="none" stroke="rgb(0, 0, 0)" stroke-linecap="square" stroke-miterlimit="10" pointer-events="none"/><g fill="rgb(0, 0, 0)" font-family="Helvetica" pointer-events="none" clip-path="url(#mx-clip-590-140-30-30-0)" text-anchor="middle" font-size="16px"><text x="604.5" y="161.5">FK</text></g><path d="M 620 140 M 830 140 M 830 170 M 620 170" fill="none" stroke="rgb(0, 0, 0)" stroke-linecap="square" stroke-miterlimit="10" pointer-events="none"/><g fill="rgb(0, 0, 0)" font-family="Helvetica" pointer-events="none" clip-path="url(#mx-clip-626-140-204-30-0)" font-size="16px"><text x="627.5" y="161.5">entryID</text></g><path d="M 590 170 M 620 170 M 620 200 M 590 200" fill="none" stroke="rgb(0, 0, 0)" stroke-linecap="square" stroke-miterlimit="10" pointer-events="none"/><path d="M 620 170 M 830 170 M 830 200 M 620 200" fill="none" stroke="rgb(0, 0, 0)" stroke-linecap="square" stroke-miterlimit="10" pointer-events="none"/><g fill="rgb(0, 0, 0)" font-family="Helvetica" pointer-events="none" clip-path="url(#mx-clip-626-170-204-30-0)" font-size="16px"><text x="627.5" y="191.5">···</text></g><path d="M 320 200 L 320 170 L 560 170 L 560 200" fill="rgb(255, 255, 255)" stroke="rgb(0, 0, 0)" stroke-miterlimit="10" pointer-events="none"/><path d="M 320 200 L 320 300 L 560 300 L 560 200" fill="none" stroke="rgb(0, 0, 0)" stroke-miterlimit="10" pointer-events="none"/><path d="M 320 200 L 560 200" fill="none" stroke="rgb(0, 0, 0)" stroke-miterlimit="10" pointer-events="none"/><path d="M 350 200 L 350 230 L 350 260 L 350 290" fill="none" stroke="rgb(0, 0, 0)" stroke-miterlimit="10" pointer-events="none"/><g fill="rgb(0, 0, 0)" font-family="Helvetica" font-weight="bold" pointer-events="none" text-anchor="middle" font-size="16px"><text x="439.5" y="191.5">pronunciations</text></g><path d="M 320 200 M 560 200 M 560 230 L 320 230" fill="none" stroke="rgb(0, 0, 0)" stroke-linecap="square" stroke-miterlimit="10" pointer-events="none"/><path d="M 320 200 M 350 200 M 350 230 M 320 230" fill="none" stroke="rgb(0, 0, 0)" stroke-linecap="square" stroke-miterlimit="10" pointer-events="none"/><g fill="rgb(0, 0, 0)" font-family="Helvetica" font-weight="bold" pointer-events="none" clip-path="url(#mx-clip-320-200-30-30-0)" text-anchor="middle" font-size="16px"><text x="334.5" y="221.5">PK</text></g><path d="M 350 200 M 560 200 M 560 230 M 350 230" fill="none" stroke="rgb(0, 0, 0)" stroke-linecap="square" stroke-miterlimit="10" pointer-events="none"/><g fill="rgb(0, 0, 0)" font-family="Helvetica" font-weight="bold" text-decoration="underline" pointer-events="none" clip-path="url(#mx-clip-356-200-204-30-0)" font-size="16px"><text x="357.5" y="221.5">id</text></g><path d="M 320 230 M 350 230 M 350 260 M 320 260" fill="none" stroke="rgb(0, 0, 0)" stroke-linecap="square" stroke-miterlimit="10" pointer-events="none"/><g fill="rgb(0, 0, 0)" font-family="Helvetica" pointer-events="none" clip-path="url(#mx-clip-320-230-30-30-0)" text-anchor="middle" font-size="16px"><text x="334.5" y="251.5">FK</text></g><path d="M 350 230 M 560 230 M 560 260 M 350 260" fill="none" stroke="rgb(0, 0, 0)" stroke-linecap="square" stroke-miterlimit="10" pointer-events="none"/><g fill="rgb(0, 0, 0)" font-family="Helvetica" pointer-events="none" clip-path="url(#mx-clip-356-230-204-30-0)" font-size="16px"><text x="357.5" y="251.5">entryID</text></g><path d="M 320 260 M 350 260 M 350 290 M 320 290" fill="none" stroke="rgb(0, 0, 0)" stroke-linecap="square" stroke-miterlimit="10" pointer-events="none"/><path d="M 350 260 M 560 260 M 560 290 M 350 290" fill="none" stroke="rgb(0, 0, 0)" stroke-linecap="square" stroke-miterlimit="10" pointer-events="none"/><g fill="rgb(0, 0, 0)" font-family="Helvetica" pointer-events="none" clip-path="url(#mx-clip-356-260-204-30-0)" font-size="16px"><text x="357.5" y="281.5">···</text></g><path d="M 590 270 L 590 240 L 830 240 L 830 270" fill="rgb(255, 255, 255)" stroke="rgb(0, 0, 0)" stroke-miterlimit="10" pointer-events="none"/><path d="M 590 270 L 590 370 L 830 370 L 830 270" fill="none" stroke="rgb(0, 0, 0)" stroke-miterlimit="10" pointer-events="none"/><path d="M 590 270 L 830 270" fill="none" stroke="rgb(0, 0, 0)" stroke-miterlimit="10" pointer-events="none"/><path d="M 620 270 L 620 300 L 620 330 L 620 360" fill="none" stroke="rgb(0, 0, 0)" stroke-miterlimit="10" pointer-events="none"/><g fill="rgb(0, 0, 0)" font-family="Helvetica" font-weight="bold" pointer-events="none" text-anchor="middle" font-size="16px"><text x="709.5" y="261.5">inflectedForms</text></g><path d="M 590 270 M 830 270 M 830 300 L 590 300" fill="none" stroke="rgb(0, 0, 0)" stroke-linecap="square" stroke-miterlimit="10" pointer-events="none"/><path d="M 590 270 M 620 270 M 620 300 M 590 300" fill="none" stroke="rgb(0, 0, 0)" stroke-linecap="square" stroke-miterlimit="10" pointer-events="none"/><g fill="rgb(0, 0, 0)" font-family="Helvetica" font-weight="bold" pointer-events="none" clip-path="url(#mx-clip-590-270-30-30-0)" text-anchor="middle" font-size="16px"><text x="604.5" y="291.5">PK</text></g><path d="M 620 270 M 830 270 M 830 300 M 620 300" fill="none" stroke="rgb(0, 0, 0)" stroke-linecap="square" stroke-miterlimit="10" pointer-events="none"/><g fill="rgb(0, 0, 0)" font-family="Helvetica" font-weight="bold" text-decoration="underline" pointer-events="none" clip-path="url(#mx-clip-626-270-204-30-0)" font-size="16px"><text x="627.5" y="291.5">id</text></g><path d="M 590 300 M 620 300 M 620 330 M 590 330" fill="none" stroke="rgb(0, 0, 0)" stroke-linecap="square" stroke-miterlimit="10" pointer-events="none"/><g fill="rgb(0, 0, 0)" font-family="Helvetica" pointer-events="none" clip-path="url(#mx-clip-590-300-30-30-0)" text-anchor="middle" font-size="16px"><text x="604.5" y="321.5">FK</text></g><path d="M 620 300 M 830 300 M 830 330 M 620 330" fill="none" stroke="rgb(0, 0, 0)" stroke-linecap="square" stroke-miterlimit="10" pointer-events="none"/><g fill="rgb(0, 0, 0)" font-family="Helvetica" pointer-events="none" clip-path="url(#mx-clip-626-300-204-30-0)" font-size="16px"><text x="627.5" y="321.5">entryID</text></g><path d="M 590 330 M 620 330 M 620 360 M 590 360" fill="none" stroke="rgb(0, 0, 0)" stroke-linecap="square" stroke-miterlimit="10" pointer-events="none"/><path d="M 620 330 M 830 330 M 830 360 M 620 360" fill="none" stroke="rgb(0, 0, 0)" stroke-linecap="square" stroke-miterlimit="10" pointer-events="none"/><g fill="rgb(0, 0, 0)" font-family="Helvetica" pointer-events="none" clip-path="url(#mx-clip-626-330-204-30-0)" font-size="16px"><text x="627.5" y="351.5">···</text></g><path d="M 320 360 L 320 330 L 560 330 L 560 360" fill="rgb(255, 255, 255)" stroke="rgb(0, 0, 0)" stroke-miterlimit="10" pointer-events="none"/><path d="M 320 360 L 320 460 L 560 460 L 560 360" fill="none" stroke="rgb(0, 0, 0)" stroke-miterlimit="10" pointer-events="none"/><path d="M 320 360 L 560 360" fill="none" stroke="rgb(0, 0, 0)" stroke-miterlimit="10" pointer-events="none"/><path d="M 350 360 L 350 390 L 350 420 L 350 450" fill="none" stroke="rgb(0, 0, 0)" stroke-miterlimit="10" pointer-events="none"/><g fill="rgb(0, 0, 0)" font-family="Helvetica" font-weight="bold" pointer-events="none" text-anchor="middle" font-size="16px"><text x="439.5" y="351.5">senses</text></g><path d="M 320 360 M 560 360 M 560 390 L 320 390" fill="none" stroke="rgb(0, 0, 0)" stroke-linecap="square" stroke-miterlimit="10" pointer-events="none"/><path d="M 320 360 M 350 360 M 350 390 M 320 390" fill="none" stroke="rgb(0, 0, 0)" stroke-linecap="square" stroke-miterlimit="10" pointer-events="none"/><g fill="rgb(0, 0, 0)" font-family="Helvetica" font-weight="bold" pointer-events="none" clip-path="url(#mx-clip-320-360-30-30-0)" text-anchor="middle" font-size="16px"><text x="334.5" y="381.5">PK</text></g><path d="M 350 360 M 560 360 M 560 390 M 350 390" fill="none" stroke="rgb(0, 0, 0)" stroke-linecap="square" stroke-miterlimit="10" pointer-events="none"/><g fill="rgb(0, 0, 0)" font-family="Helvetica" font-weight="bold" text-decoration="underline" pointer-events="none" clip-path="url(#mx-clip-356-360-204-30-0)" font-size="16px"><text x="357.5" y="381.5">id</text></g><path d="M 320 390 M 350 390 M 350 420 M 320 420" fill="none" stroke="rgb(0, 0, 0)" stroke-linecap="square" stroke-miterlimit="10" pointer-events="none"/><g fill="rgb(0, 0, 0)" font-family="Helvetica" pointer-events="none" clip-path="url(#mx-clip-320-390-30-30-0)" text-anchor="middle" font-size="16px"><text x="334.5" y="411.5">FK</text></g><path d="M 350 390 M 560 390 M 560 420 M 350 420" fill="none" stroke="rgb(0, 0, 0)" stroke-linecap="square" stroke-miterlimit="10" pointer-events="none"/><g fill="rgb(0, 0, 0)" font-family="Helvetica" pointer-events="none" clip-path="url(#mx-clip-356-390-204-30-0)" font-size="16px"><text x="357.5" y="411.5">entryID</text></g><path d="M 320 420 M 350 420 M 350 450 M 320 450" fill="none" stroke="rgb(0, 0, 0)" stroke-linecap="square" stroke-miterlimit="10" pointer-events="none"/><path d="M 350 420 M 560 420 M 560 450 M 350 450" fill="none" stroke="rgb(0, 0, 0)" stroke-linecap="square" stroke-miterlimit="10" pointer-events="none"/><g fill="rgb(0, 0, 0)" font-family="Helvetica" pointer-events="none" clip-path="url(#mx-clip-356-420-204-30-0)" font-size="16px"><text x="357.5" y="441.5">···</text></g><path d="M 250 55 L 270 55 Q 280 55 280 65 L 280 75 Q 280 85 288.25 85 L 296.5 85" fill="none" stroke="rgb(0, 0, 0)" stroke-miterlimit="10" pointer-events="none"/><path d="M 256 49 L 256 61" fill="none" stroke="rgb(0, 0, 0)" stroke-miterlimit="10" pointer-events="none"/><ellipse cx="302" cy="85" rx="5" ry="5" fill="none" stroke="rgb(0, 0, 0)" pointer-events="none"/><path d="M 320 79 L 308 85 L 320 91 M 308 85 L 320 85" fill="none" stroke="rgb(0, 0, 0)" stroke-miterlimit="10" pointer-events="none"/><path d="M 250 55 L 270 55 Q 280 55 280 65 L 280 145 Q 280 155 290 155 L 566.5 155" fill="none" stroke="rgb(0, 0, 0)" stroke-miterlimit="10" pointer-events="none"/><path d="M 256 49 L 256 61" fill="none" stroke="rgb(0, 0, 0)" stroke-miterlimit="10" pointer-events="none"/><ellipse cx="572" cy="155" rx="5" ry="5" fill="none" stroke="rgb(0, 0, 0)" pointer-events="none"/><path d="M 590 149 L 578 155 L 590 161 M 578 155 L 590 155" fill="none" stroke="rgb(0, 0, 0)" stroke-miterlimit="10" pointer-events="none"/><path d="M 250 55 L 270 55 Q 280 55 280 65 L 280 235 Q 280 245 288.25 245 L 296.5 245" fill="none" stroke="rgb(0, 0, 0)" stroke-miterlimit="10" pointer-events="none"/><path d="M 256 49 L 256 61" fill="none" stroke="rgb(0, 0, 0)" stroke-miterlimit="10" pointer-events="none"/><ellipse cx="302" cy="245" rx="5" ry="5" fill="none" stroke="rgb(0, 0, 0)" pointer-events="none"/><path d="M 320 239 L 308 245 L 320 251 M 308 245 L 320 245" fill="none" stroke="rgb(0, 0, 0)" stroke-miterlimit="10" pointer-events="none"/><path d="M 250 55 L 270 55 Q 280 55 280 65 L 280 305 Q 280 315 290 315 L 566.5 315" fill="none" stroke="rgb(0, 0, 0)" stroke-miterlimit="10" pointer-events="none"/><path d="M 256 49 L 256 61" fill="none" stroke="rgb(0, 0, 0)" stroke-miterlimit="10" pointer-events="none"/><ellipse cx="572" cy="315" rx="5" ry="5" fill="none" stroke="rgb(0, 0, 0)" pointer-events="none"/><path d="M 590 309 L 578 315 L 590 321 M 578 315 L 590 315" fill="none" stroke="rgb(0, 0, 0)" stroke-miterlimit="10" pointer-events="none"/><path d="M 250 55 L 270 55 Q 280 55 280 65 L 280 395 Q 280 405 288.25 405 L 296.5 405" fill="none" stroke="rgb(0, 0, 0)" stroke-miterlimit="10" pointer-events="none"/><path d="M 256 49 L 256 61" fill="none" stroke="rgb(0, 0, 0)" stroke-miterlimit="10" pointer-events="none"/><ellipse cx="302" cy="405" rx="5" ry="5" fill="none" stroke="rgb(0, 0, 0)" pointer-events="none"/><path d="M 320 399 L 308 405 L 320 411 M 308 405 L 320 405" fill="none" stroke="rgb(0, 0, 0)" stroke-miterlimit="10" pointer-events="none"/></g></svg>