<?xml version="1.0" encoding="UTF-8"?>
<!DOCTYPE svg PUBLIC "-//W3C//DTD SVG 1.1//EN" "http://www.w3.org/Graphics/SVG/1.1/DTD/svg11.dtd">
<svg xmlns="http://www.w3.org/2000/svg" xmlns:xlink="http://www.w3.org/1999/xlink" version="1.1" width="881px" height="311px" viewBox="-0.5 -0.5 881 311" style="background-color: rgb(255, 255, 255);"><defs><clipPath id="mx-clip-9-40-30-30-0"><rect x="9" y="40" width="30" height="30"/></clipPath><clipPath id="mx-clip-45-40-204-30-0"><rect x="45" y="40" width="204" height="30"/></clipPath><clipPath id="mx-clip-9-70-30-30-0"><rect x="9" y="70" width="30" height="30"/></clipPath><clipPath id="mx-clip-45-70-204-30-0"><rect x="45" y="70" width="204" height="30"/></clipPath><clipPath id="mx-clip-45-100-204-30-0"><rect x="45" y="100" width="204" height="30"/></clipPath><clipPath id="mx-clip-45-130-204-30-0"><rect x="45" y="130" width="204" height="30"/></clipPath><clipPath id="mx-clip-45-160-204-30-0"><rect x="45" y="160" width="204" height="30"/></clipPath><clipPath id="mx-clip-319-40-30-30-0"><rect x="319" y="40" width="30" height="30"/></clipPath><clipPath id="mx-clip-355-40-204-30-0"><rect x="355" y="40" width="204" height="30"/></clipPath><clipPath id="mx-clip-319-70-30-30-0"><rect x="319" y="70" width="30" height="30"/></clipPath><clipPath id="mx-clip-355-70-204-30-0"><rect x="355" y="70" width="204" height="30"/></clipPath><clipPath id="mx-clip-355-100-204-30-0"><rect x="355" y="100" width="204" height="30"/></clipPath><clipPath id="mx-clip-320-200-30-30-0"><rect x="320" y="200" width="30" height="30"/></clipPath><clipPath id="mx-clip-356-200-204-30-0"><rect x="356" y="200" width="204" height="30"/></clipPath><clipPath id="mx-clip-320-230-30-30-0"><rect x="320" y="230" width="30" height="30"/></clipPath><clipPath id="mx-clip-356-230-204-30-0"><rect x="356" y="230" width="204" height="30"/></clipPath><clipPath id="mx-clip-356-260-204-30-0"><rect x="356" y="260" width="204" height="30"/></clipPath><style type="text/css">@import url(https://fonts.googleapis.com/css?family=Permanent+Marker);&#xa;</style></defs><g><rect x="0" y="0" width="880" height="310" fill="rgb(255, 255, 255)" stroke="#cccccc" pointer-events="all"/><path d="M 9 40 L 9 10 L 249 10 L 249 40" fill="rgb(255, 255, 255)" stroke="rgb(0, 0, 0)" stroke-miterlimit="10" pointer-events="all"/><path d="M 9 40 L 9 200 L 249 200 L 249 40" fill="none" stroke="rgb(0, 0, 0)" stroke-miterlimit="10" pointer-events="none"/><path d="M 9 40 L 249 40" fill="none" stroke="rgb(0, 0, 0)" stroke-miterlimit="10" pointer-events="none"/><path d="M 39 40 L 39 70 L 39 100 L 39 130 L 39 160 L 39 190" fill="none" stroke="rgb(0, 0, 0)" stroke-miterlimit="10" pointer-events="none"/><g fill="rgb(0, 0, 0)" font-family="Helvetica" font-weight="bold" pointer-events="none" text-anchor="middle" font-size="16px"><text x="128.5" y="31.5">inflectedForms</text></g><path d="M 9 40 M 249 40 M 249 70 L 9 70" fill="none" stroke="rgb(0, 0, 0)" stroke-linecap="square" stroke-miterlimit="10" pointer-events="none"/><path d="M 9 40 M 39 40 M 39 70 M 9 70" fill="none" stroke="rgb(0, 0, 0)" stroke-linecap="square" stroke-miterlimit="10" pointer-events="none"/><g fill="rgb(0, 0, 0)" font-family="Helvetica" font-weight="bold" pointer-events="none" clip-path="url(#mx-clip-9-40-30-30-0)" text-anchor="middle" font-size="16px"><text x="23.5" y="61.5">PK</text></g><path d="M 39 40 M 249 40 M 249 70 M 39 70" fill="none" stroke="rgb(0, 0, 0)" stroke-linecap="square" stroke-miterlimit="10" pointer-events="none"/><g fill="rgb(0, 0, 0)" font-family="Helvetica" font-weight="bold" text-decoration="underline" pointer-events="none" clip-path="url(#mx-clip-45-40-204-30-0)" font-size="16px"><text x="46.5" y="61.5">id</text></g><path d="M 9 70 M 39 70 M 39 100 M 9 100" fill="none" stroke="rgb(0, 0, 0)" stroke-linecap="square" stroke-miterlimit="10" pointer-events="none"/><g fill="rgb(0, 0, 0)" font-family="Helvetica" pointer-events="none" clip-path="url(#mx-clip-9-70-30-30-0)" text-anchor="middle" font-size="16px"><text x="23.5" y="91.5">FK</text></g><path d="M 39 70 M 249 70 M 249 100 M 39 100" fill="none" stroke="rgb(0, 0, 0)" stroke-linecap="square" stroke-miterlimit="10" pointer-events="none"/><g fill="rgb(0, 0, 0)" font-family="Helvetica" pointer-events="none" clip-path="url(#mx-clip-45-70-204-30-0)" font-size="16px"><text x="46.5" y="91.5">entryID</text></g><path d="M 9 100 M 39 100 M 39 130 M 9 130" fill="none" stroke="rgb(0, 0, 0)" stroke-linecap="square" stroke-miterlimit="10" pointer-events="none"/><path d="M 39 100 M 249 100 M 249 130 M 39 130" fill="none" stroke="rgb(0, 0, 0)" stroke-linecap="square" stroke-miterlimit="10" pointer-events="none"/><g fill="rgb(0, 0, 0)" font-family="Helvetica" pointer-events="none" clip-path="url(#mx-clip-45-100-204-30-0)" font-size="16px"><text x="46.5" y="121.5">tag</text></g><path d="M 9 130 M 39 130 M 39 160 M 9 160" fill="none" stroke="rgb(0, 0, 0)" stroke-linecap="square" stroke-miterlimit="10" pointer-events="none"/><path d="M 39 130 M 249 130 M 249 160 M 39 160" fill="none" stroke="rgb(0, 0, 0)" stroke-linecap="square" stroke-miterlimit="10" pointer-events="none"/><g fill="rgb(0, 0, 0)" font-family="Helvetica" pointer-events="none" clip-path="url(#mx-clip-45-130-204-30-0)" font-size="16px"><text x="46.5" y="151.5">text</text></g><path d="M 9 160 M 39 160 M 39 190 M 9 190" fill="none" stroke="rgb(0, 0, 0)" stroke-linecap="square" stroke-miterlimit="10" pointer-events="none"/><path d="M 39 160 M 249 160 M 249 190 M 39 190" fill="none" stroke="rgb(0, 0, 0)" stroke-linecap="square" stroke-miterlimit="10" pointer-events="none"/><g fill="rgb(0, 0, 0)" font-family="Helvetica" pointer-events="none" clip-path="url(#mx-clip-45-160-204-30-0)" font-size="16px"><text x="46.5" y="181.5">listingOrder</text></g><path d="M 319 40 L 319 10 L 559 10 L 559 40" fill="rgb(255, 255, 255)" stroke="rgb(0, 0, 0)" stroke-miterlimit="10" pointer-events="none"/><path d="M 319 40 L 319 140 L 559 140 L 559 40" fill="none" stroke="rgb(0, 0, 0)" stroke-miterlimit="10" pointer-events="none"/><path d="M 319 40 L 559 40" fill="none" stroke="rgb(0, 0, 0)" stroke-miterlimit="10" pointer-events="none"/><path d="M 349 40 L 349 70 L 349 100 L 349 130" fill="none" stroke="rgb(0, 0, 0)" stroke-miterlimit="10" pointer-events="none"/><g fill="rgb(0, 0, 0)" font-family="Helvetica" font-weight="bold" pointer-events="none" text-anchor="middle" font-size="16px"><text x="438.5" y="31.5">labels</text></g><path d="M 319 40 M 559 40 M 559 70 L 319 70" fill="none" stroke="rgb(0, 0, 0)" stroke-linecap="square" stroke-miterlimit="10" pointer-events="none"/><path d="M 319 40 M 349 40 M 349 70 M 319 70" fill="none" stroke="rgb(0, 0, 0)" stroke-linecap="square" stroke-miterlimit="10" pointer-events="none"/><g fill="rgb(0, 0, 0)" font-family="Helvetica" font-weight="bold" pointer-events="none" clip-path="url(#mx-clip-319-40-30-30-0)" text-anchor="middle" font-size="16px"><text x="333.5" y="61.5">PK</text></g><path d="M 349 40 M 559 40 M 559 70 M 349 70" fill="none" stroke="rgb(0, 0, 0)" stroke-linecap="square" stroke-miterlimit="10" pointer-events="none"/><g fill="rgb(0, 0, 0)" font-family="Helvetica" font-weight="bold" text-decoration="underline" pointer-events="none" clip-path="url(#mx-clip-355-40-204-30-0)" font-size="16px"><text x="356.5" y="61.5">id</text></g><path d="M 319 70 M 349 70 M 349 100 M 319 100" fill="none" stroke="rgb(0, 0, 0)" stroke-linecap="square" stroke-miterlimit="10" pointer-events="none"/><g fill="rgb(0, 0, 0)" font-family="Helvetica" pointer-events="none" clip-path="url(#mx-clip-319-70-30-30-0)" text-anchor="middle" font-size="16px"><text x="333.5" y="91.5">FK</text></g><path d="M 349 70 M 559 70 M 559 100 M 349 100" fill="none" stroke="rgb(0, 0, 0)" stroke-linecap="square" stroke-miterlimit="10" pointer-events="none"/><g fill="rgb(0, 0, 0)" font-family="Helvetica" pointer-events="none" clip-path="url(#mx-clip-355-70-204-30-0)" font-size="16px"><text x="356.5" y="91.5">inflectedFormID</text></g><path d="M 319 100 M 349 100 M 349 130 M 319 130" fill="none" stroke="rgb(0, 0, 0)" stroke-linecap="square" stroke-miterlimit="10" pointer-events="none"/><path d="M 349 100 M 559 100 M 559 130 M 349 130" fill="none" stroke="rgb(0, 0, 0)" stroke-linecap="square" stroke-miterlimit="10" pointer-events="none"/><g fill="rgb(0, 0, 0)" font-family="Helvetica" pointer-events="none" clip-path="url(#mx-clip-355-100-204-30-0)" font-size="16px"><text x="356.5" y="121.5">···</text></g><path d="M 320 200 L 320 170 L 560 170 L 560 200" fill="rgb(255, 255, 255)" stroke="rgb(0, 0, 0)" stroke-miterlimit="10" pointer-events="none"/><path d="M 320 200 L 320 300 L 560 300 L 560 200" fill="none" stroke="rgb(0, 0, 0)" stroke-miterlimit="10" pointer-events="none"/><path d="M 320 200 L 560 200" fill="none" stroke="rgb(0, 0, 0)" stroke-miterlimit="10" pointer-events="none"/><path d="M 350 200 L 350 230 L 350 260 L 350 290" fill="none" stroke="rgb(0, 0, 0)" stroke-miterlimit="10" pointer-events="none"/><g fill="rgb(0, 0, 0)" font-family="Helvetica" font-weight="bold" pointer-events="none" text-anchor="middle" font-size="16px"><text x="439.5" y="191.5">pronunciations</text></g><path d="M 320 200 M 560 200 M 560 230 L 320 230" fill="none" stroke="rgb(0, 0, 0)" stroke-linecap="square" stroke-miterlimit="10" pointer-events="none"/><path d="M 320 200 M 350 200 M 350 230 M 320 230" fill="none" stroke="rgb(0, 0, 0)" stroke-linecap="square" stroke-miterlimit="10" pointer-events="none"/><g fill="rgb(0, 0, 0)" font-family="Helvetica" font-weight="bold" pointer-events="none" clip-path="url(#mx-clip-320-200-30-30-0)" text-anchor="middle" font-size="16px"><text x="334.5" y="221.5">PK</text></g><path d="M 350 200 M 560 200 M 560 230 M 350 230" fill="none" stroke="rgb(0, 0, 0)" stroke-linecap="square" stroke-miterlimit="10" pointer-events="none"/><g fill="rgb(0, 0, 0)" font-family="Helvetica" font-weight="bold" text-decoration="underline" pointer-events="none" clip-path="url(#mx-clip-356-200-204-30-0)" font-size="16px"><text x="357.5" y="221.5">id</text></g><path d="M 320 230 M 350 230 M 350 260 M 320 260" fill="none" stroke="rgb(0, 0, 0)" stroke-linecap="square" stroke-miterlimit="10" pointer-events="none"/><g fill="rgb(0, 0, 0)" font-family="Helvetica" pointer-events="none" clip-path="url(#mx-clip-320-230-30-30-0)" text-anchor="middle" font-size="16px"><text x="334.5" y="251.5">FK</text></g><path d="M 350 230 M 560 230 M 560 260 M 350 260" fill="none" stroke="rgb(0, 0, 0)" stroke-linecap="square" stroke-miterlimit="10" pointer-events="none"/><g fill="rgb(0, 0, 0)" font-family="Helvetica" pointer-events="none" clip-path="url(#mx-clip-356-230-204-30-0)" font-size="16px"><text x="357.5" y="251.5">inflectedFormID</text></g><path d="M 320 260 M 350 260 M 350 290 M 320 290" fill="none" stroke="rgb(0, 0, 0)" stroke-linecap="square" stroke-miterlimit="10" pointer-events="none"/><path d="M 350 260 M 560 260 M 560 290 M 350 290" fill="none" stroke="rgb(0, 0, 0)" stroke-linecap="square" stroke-miterlimit="10" pointer-events="none"/><g fill="rgb(0, 0, 0)" font-family="Helvetica" pointer-events="none" clip-path="url(#mx-clip-356-260-204-30-0)" font-size="16px"><text x="357.5" y="281.5">···</text></g><path d="M 249 55 L 274 55 Q 284 55 284 65 L 284 75 Q 284 85 289.75 85 L 295.5 85" fill="none" stroke="rgb(0, 0, 0)" stroke-miterlimit="10" pointer-events="none"/><path d="M 255 49 L 255 61" fill="none" stroke="rgb(0, 0, 0)" stroke-miterlimit="10" pointer-events="none"/><ellipse cx="301" cy="85" rx="5" ry="5" fill="none" stroke="rgb(0, 0, 0)" pointer-events="none"/><path d="M 319 79 L 307 85 L 319 91 M 307 85 L 319 85" fill="none" stroke="rgb(0, 0, 0)" stroke-miterlimit="10" pointer-events="none"/><path d="M 249 55 L 274.5 55 Q 284.5 55 284.5 65 L 284.5 235 Q 284.5 245 290.5 245 L 296.5 245" fill="none" stroke="rgb(0, 0, 0)" stroke-miterlimit="10" pointer-events="none"/><path d="M 255 49 L 255 61" fill="none" stroke="rgb(0, 0, 0)" stroke-miterlimit="10" pointer-events="none"/><ellipse cx="302" cy="245" rx="5" ry="5" fill="none" stroke="rgb(0, 0, 0)" pointer-events="none"/><path d="M 320 239 L 308 245 L 320 251 M 308 245 L 320 245" fill="none" stroke="rgb(0, 0, 0)" stroke-miterlimit="10" pointer-events="none"/></g></svg>