<?xml version="1.0" encoding="UTF-8"?>
<!DOCTYPE svg PUBLIC "-//W3C//DTD SVG 1.1//EN" "http://www.w3.org/Graphics/SVG/1.1/DTD/svg11.dtd">
<svg xmlns="http://www.w3.org/2000/svg" xmlns:xlink="http://www.w3.org/1999/xlink" version="1.1" width="881px" height="300px" viewBox="-0.5 -0.5 881 300" style="background-color: rgb(255, 255, 255);"><defs><clipPath id="mx-clip-9-39-30-30-0"><rect x="9" y="39" width="30" height="30"/></clipPath><clipPath id="mx-clip-45-39-204-30-0"><rect x="45" y="39" width="204" height="30"/></clipPath><clipPath id="mx-clip-9-69-30-30-0"><rect x="9" y="69" width="30" height="30"/></clipPath><clipPath id="mx-clip-45-69-204-30-0"><rect x="45" y="69" width="204" height="30"/></clipPath><clipPath id="mx-clip-9-99-30-30-0"><rect x="9" y="99" width="30" height="30"/></clipPath><clipPath id="mx-clip-45-99-204-30-0"><rect x="45" y="99" width="204" height="30"/></clipPath><clipPath id="mx-clip-9-129-30-30-0"><rect x="9" y="129" width="30" height="30"/></clipPath><clipPath id="mx-clip-45-129-204-30-0"><rect x="45" y="129" width="204" height="30"/></clipPath><clipPath id="mx-clip-9-159-30-30-0"><rect x="9" y="159" width="30" height="30"/></clipPath><clipPath id="mx-clip-45-159-204-30-0"><rect x="45" y="159" width="204" height="30"/></clipPath><clipPath id="mx-clip-9-189-30-30-0"><rect x="9" y="189" width="30" height="30"/></clipPath><clipPath id="mx-clip-45-189-204-30-0"><rect x="45" y="189" width="204" height="30"/></clipPath><clipPath id="mx-clip-45-219-204-30-0"><rect x="45" y="219" width="204" height="30"/></clipPath><clipPath id="mx-clip-45-249-204-30-0"><rect x="45" y="249" width="204" height="30"/></clipPath><style type="text/css">@import url(https://fonts.googleapis.com/css?family=Permanent+Marker);&#xa;</style></defs><g><rect x="0" y="0" width="880" height="299" fill="rgb(255, 255, 255)" stroke="#cccccc" pointer-events="all"/><path d="M 9 39 L 9 9 L 249 9 L 249 39" fill="rgb(255, 255, 255)" stroke="rgb(0, 0, 0)" stroke-miterlimit="10" pointer-events="all"/><path d="M 9 39 L 9 289 L 249 289 L 249 39" fill="none" stroke="rgb(0, 0, 0)" stroke-miterlimit="10" pointer-events="none"/><path d="M 9 39 L 249 39" fill="none" stroke="rgb(0, 0, 0)" stroke-miterlimit="10" pointer-events="none"/><path d="M 39 39 L 39 69 L 39 99 L 39 129 L 39 159 L 39 189 L 39 219 L 39 249 L 39 279" fill="none" stroke="rgb(0, 0, 0)" stroke-miterlimit="10" pointer-events="none"/><g fill="rgb(0, 0, 0)" font-family="Helvetica" font-weight="bold" pointer-events="none" text-anchor="middle" font-size="16px"><text x="128.5" y="30.5">labels</text></g><path d="M 9 39 M 249 39 M 249 69 L 9 69" fill="none" stroke="rgb(0, 0, 0)" stroke-linecap="square" stroke-miterlimit="10" pointer-events="none"/><path d="M 9 39 M 39 39 M 39 69 M 9 69" fill="none" stroke="rgb(0, 0, 0)" stroke-linecap="square" stroke-miterlimit="10" pointer-events="none"/><g fill="rgb(0, 0, 0)" font-family="Helvetica" font-weight="bold" pointer-events="none" clip-path="url(#mx-clip-9-39-30-30-0)" text-anchor="middle" font-size="16px"><text x="23.5" y="60.5">PK</text></g><path d="M 39 39 M 249 39 M 249 69 M 39 69" fill="none" stroke="rgb(0, 0, 0)" stroke-linecap="square" stroke-miterlimit="10" pointer-events="none"/><g fill="rgb(0, 0, 0)" font-family="Helvetica" font-weight="bold" text-decoration="underline" pointer-events="none" clip-path="url(#mx-clip-45-39-204-30-0)" font-size="16px"><text x="46.5" y="60.5">id</text></g><path d="M 9 69 M 39 69 M 39 99 M 9 99" fill="none" stroke="rgb(0, 0, 0)" stroke-linecap="square" stroke-miterlimit="10" pointer-events="none"/><g fill="rgb(0, 0, 0)" font-family="Helvetica" pointer-events="none" clip-path="url(#mx-clip-9-69-30-30-0)" text-anchor="middle" font-size="16px"><text x="23.5" y="90.5">FK</text></g><path d="M 39 69 M 249 69 M 249 99 M 39 99" fill="none" stroke="rgb(0, 0, 0)" stroke-linecap="square" stroke-miterlimit="10" pointer-events="none"/><g fill="rgb(0, 0, 0)" font-family="Helvetica" pointer-events="none" clip-path="url(#mx-clip-45-69-204-30-0)" font-size="16px"><text x="46.5" y="90.5">entryID</text></g><path d="M 9 99 M 39 99 M 39 129 M 9 129" fill="none" stroke="rgb(0, 0, 0)" stroke-linecap="square" stroke-miterlimit="10" pointer-events="none"/><g fill="rgb(0, 0, 0)" font-family="Helvetica" pointer-events="none" clip-path="url(#mx-clip-9-99-30-30-0)" text-anchor="middle" font-size="16px"><text x="23.5" y="120.5">FK</text></g><path d="M 39 99 M 249 99 M 249 129 M 39 129" fill="none" stroke="rgb(0, 0, 0)" stroke-linecap="square" stroke-miterlimit="10" pointer-events="none"/><g fill="rgb(0, 0, 0)" font-family="Helvetica" pointer-events="none" clip-path="url(#mx-clip-45-99-204-30-0)" font-size="16px"><text x="46.5" y="120.5">senseID</text></g><path d="M 9 129 M 39 129 M 39 159 M 9 159" fill="none" stroke="rgb(0, 0, 0)" stroke-linecap="square" stroke-miterlimit="10" pointer-events="none"/><g fill="rgb(0, 0, 0)" font-family="Helvetica" pointer-events="none" clip-path="url(#mx-clip-9-129-30-30-0)" text-anchor="middle" font-size="16px"><text x="23.5" y="150.5">FK</text></g><path d="M 39 129 M 249 129 M 249 159 M 39 159" fill="none" stroke="rgb(0, 0, 0)" stroke-linecap="square" stroke-miterlimit="10" pointer-events="none"/><g fill="rgb(0, 0, 0)" font-family="Helvetica" pointer-events="none" clip-path="url(#mx-clip-45-129-204-30-0)" font-size="16px"><text x="46.5" y="150.5">inflectedFormID</text></g><path d="M 9 159 M 39 159 M 39 189 M 9 189" fill="none" stroke="rgb(0, 0, 0)" stroke-linecap="square" stroke-miterlimit="10" pointer-events="none"/><g fill="rgb(0, 0, 0)" font-family="Helvetica" pointer-events="none" clip-path="url(#mx-clip-9-159-30-30-0)" text-anchor="middle" font-size="16px"><text x="23.5" y="180.5">FK</text></g><path d="M 39 159 M 249 159 M 249 189 M 39 189" fill="none" stroke="rgb(0, 0, 0)" stroke-linecap="square" stroke-miterlimit="10" pointer-events="none"/><g fill="rgb(0, 0, 0)" font-family="Helvetica" pointer-events="none" clip-path="url(#mx-clip-45-159-204-30-0)" font-size="16px"><text x="46.5" y="180.5">pronunciationID</text></g><path d="M 9 189 M 39 189 M 39 219 M 9 219" fill="none" stroke="rgb(0, 0, 0)" stroke-linecap="square" stroke-miterlimit="10" pointer-events="none"/><g fill="rgb(0, 0, 0)" font-family="Helvetica" pointer-events="none" clip-path="url(#mx-clip-9-189-30-30-0)" text-anchor="middle" font-size="16px"><text x="23.5" y="210.5">FK</text></g><path d="M 39 189 M 249 189 M 249 219 M 39 219" fill="none" stroke="rgb(0, 0, 0)" stroke-linecap="square" stroke-miterlimit="10" pointer-events="none"/><g fill="rgb(0, 0, 0)" font-family="Helvetica" pointer-events="none" clip-path="url(#mx-clip-45-189-204-30-0)" font-size="16px"><text x="46.5" y="210.5">exampleID</text></g><path d="M 9 219 M 39 219 M 39 249 M 9 249" fill="none" stroke="rgb(0, 0, 0)" stroke-linecap="square" stroke-miterlimit="10" pointer-events="none"/><path d="M 39 219 M 249 219 M 249 249 M 39 249" fill="none" stroke="rgb(0, 0, 0)" stroke-linecap="square" stroke-miterlimit="10" pointer-events="none"/><g fill="rgb(0, 0, 0)" font-family="Helvetica" pointer-events="none" clip-path="url(#mx-clip-45-219-204-30-0)" font-size="16px"><text x="46.5" y="240.5">tag</text></g><path d="M 9 249 M 39 249 M 39 279 M 9 279" fill="none" stroke="rgb(0, 0, 0)" stroke-linecap="square" stroke-miterlimit="10" pointer-events="none"/><path d="M 39 249 M 249 249 M 249 279 M 39 279" fill="none" stroke="rgb(0, 0, 0)" stroke-linecap="square" stroke-miterlimit="10" pointer-events="none"/><g fill="rgb(0, 0, 0)" font-family="Helvetica" pointer-events="none" clip-path="url(#mx-clip-45-249-204-30-0)" font-size="16px"><text x="46.5" y="270.5">listingOrder</text></g></g></svg>