<?xml version="1.0" encoding="UTF-8"?>
<!DOCTYPE svg PUBLIC "-//W3C//DTD SVG 1.1//EN" "http://www.w3.org/Graphics/SVG/1.1/DTD/svg11.dtd">
<svg xmlns="http://www.w3.org/2000/svg" xmlns:xlink="http://www.w3.org/1999/xlink" version="1.1" width="882px" height="302px" viewBox="-0.5 -0.5 882 302" style="background-color: rgb(255, 255, 255);"><defs><clipPath id="mx-clip-10-40-30-30-0"><rect x="10" y="40" width="30" height="30"/></clipPath><clipPath id="mx-clip-46-40-204-30-0"><rect x="46" y="40" width="204" height="30"/></clipPath><clipPath id="mx-clip-46-70-204-30-0"><rect x="46" y="70" width="204" height="30"/></clipPath><clipPath id="mx-clip-46-100-204-30-0"><rect x="46" y="100" width="204" height="30"/></clipPath><clipPath id="mx-clip-46-130-204-30-0"><rect x="46" y="130" width="204" height="30"/></clipPath><clipPath id="mx-clip-360-40-30-30-0"><rect x="360" y="40" width="30" height="30"/></clipPath><clipPath id="mx-clip-396-40-204-30-0"><rect x="396" y="40" width="204" height="30"/></clipPath><clipPath id="mx-clip-360-70-30-30-0"><rect x="360" y="70" width="30" height="30"/></clipPath><clipPath id="mx-clip-396-70-204-30-0"><rect x="396" y="70" width="204" height="30"/></clipPath><clipPath id="mx-clip-396-100-204-30-0"><rect x="396" y="100" width="204" height="30"/></clipPath><clipPath id="mx-clip-360-190-30-30-0"><rect x="360" y="190" width="30" height="30"/></clipPath><clipPath id="mx-clip-396-190-204-30-0"><rect x="396" y="190" width="204" height="30"/></clipPath><clipPath id="mx-clip-360-220-30-30-0"><rect x="360" y="220" width="30" height="30"/></clipPath><clipPath id="mx-clip-396-220-204-30-0"><rect x="396" y="220" width="204" height="30"/></clipPath><clipPath id="mx-clip-396-250-204-30-0"><rect x="396" y="250" width="204" height="30"/></clipPath><style type="text/css">@import url(https://fonts.googleapis.com/css?family=Permanent+Marker);&#xa;</style></defs><g><rect x="0" y="0" width="880" height="300" fill="rgb(255, 255, 255)" stroke="#cccccc" pointer-events="all"/><path d="M 10 40 L 10 10 L 250 10 L 250 40" fill="rgb(255, 255, 255)" stroke="rgb(0, 0, 0)" stroke-miterlimit="10" pointer-events="all"/><path d="M 10 40 L 10 170 L 250 170 L 250 40" fill="none" stroke="rgb(0, 0, 0)" stroke-miterlimit="10" pointer-events="none"/><path d="M 10 40 L 250 40" fill="none" stroke="rgb(0, 0, 0)" stroke-miterlimit="10" pointer-events="none"/><path d="M 40 40 L 40 70 L 40 100 L 40 130 L 40 160" fill="none" stroke="rgb(0, 0, 0)" stroke-miterlimit="10" pointer-events="none"/><g fill="rgb(0, 0, 0)" font-family="Helvetica" font-weight="bold" pointer-events="none" text-anchor="middle" font-size="16px"><text x="129.5" y="31.5">lexicographicResources</text></g><path d="M 10 40 M 250 40 M 250 70 L 10 70" fill="none" stroke="rgb(0, 0, 0)" stroke-linecap="square" stroke-miterlimit="10" pointer-events="none"/><path d="M 10 40 M 40 40 M 40 70 M 10 70" fill="none" stroke="rgb(0, 0, 0)" stroke-linecap="square" stroke-miterlimit="10" pointer-events="none"/><g fill="rgb(0, 0, 0)" font-family="Helvetica" font-weight="bold" pointer-events="none" clip-path="url(#mx-clip-10-40-30-30-0)" text-anchor="middle" font-size="16px"><text x="24.5" y="61.5">PK</text></g><path d="M 40 40 M 250 40 M 250 70 M 40 70" fill="none" stroke="rgb(0, 0, 0)" stroke-linecap="square" stroke-miterlimit="10" pointer-events="none"/><g fill="rgb(0, 0, 0)" font-family="Helvetica" font-weight="bold" text-decoration="underline" pointer-events="none" clip-path="url(#mx-clip-46-40-204-30-0)" font-size="16px"><text x="47.5" y="61.5">id</text></g><path d="M 10 70 M 40 70 M 40 100 M 10 100" fill="none" stroke="rgb(0, 0, 0)" stroke-linecap="square" stroke-miterlimit="10" pointer-events="none"/><path d="M 40 70 M 250 70 M 250 100 M 40 100" fill="none" stroke="rgb(0, 0, 0)" stroke-linecap="square" stroke-miterlimit="10" pointer-events="none"/><g fill="rgb(0, 0, 0)" font-family="Helvetica" pointer-events="none" clip-path="url(#mx-clip-46-70-204-30-0)" font-size="16px"><text x="47.5" y="91.5">title</text></g><path d="M 10 100 M 40 100 M 40 130 M 10 130" fill="none" stroke="rgb(0, 0, 0)" stroke-linecap="square" stroke-miterlimit="10" pointer-events="none"/><path d="M 40 100 M 250 100 M 250 130 M 40 130" fill="none" stroke="rgb(0, 0, 0)" stroke-linecap="square" stroke-miterlimit="10" pointer-events="none"/><g fill="rgb(0, 0, 0)" font-family="Helvetica" pointer-events="none" clip-path="url(#mx-clip-46-100-204-30-0)" font-size="16px"><text x="47.5" y="121.5">uri</text></g><path d="M 10 130 M 40 130 M 40 160 M 10 160" fill="none" stroke="rgb(0, 0, 0)" stroke-linecap="square" stroke-miterlimit="10" pointer-events="none"/><path d="M 40 130 M 250 130 M 250 160 M 40 160" fill="none" stroke="rgb(0, 0, 0)" stroke-linecap="square" stroke-miterlimit="10" pointer-events="none"/><g fill="rgb(0, 0, 0)" font-family="Helvetica" pointer-events="none" clip-path="url(#mx-clip-46-130-204-30-0)" font-size="16px"><text x="47.5" y="151.5">language</text></g><path d="M 360 40 L 360 10 L 600 10 L 600 40" fill="rgb(255, 255, 255)" stroke="rgb(0, 0, 0)" stroke-miterlimit="10" pointer-events="none"/><path d="M 360 40 L 360 140 L 600 140 L 600 40" fill="none" stroke="rgb(0, 0, 0)" stroke-miterlimit="10" pointer-events="none"/><path d="M 360 40 L 600 40" fill="none" stroke="rgb(0, 0, 0)" stroke-miterlimit="10" pointer-events="none"/><path d="M 390 40 L 390 70 L 390 100 L 390 130" fill="none" stroke="rgb(0, 0, 0)" stroke-miterlimit="10" pointer-events="none"/><g fill="rgb(0, 0, 0)" font-family="Helvetica" font-weight="bold" pointer-events="none" text-anchor="middle" font-size="16px"><text x="479.5" y="31.5">entries</text></g><path d="M 360 40 M 600 40 M 600 70 L 360 70" fill="none" stroke="rgb(0, 0, 0)" stroke-linecap="square" stroke-miterlimit="10" pointer-events="none"/><path d="M 360 40 M 390 40 M 390 70 M 360 70" fill="none" stroke="rgb(0, 0, 0)" stroke-linecap="square" stroke-miterlimit="10" pointer-events="none"/><g fill="rgb(0, 0, 0)" font-family="Helvetica" font-weight="bold" pointer-events="none" clip-path="url(#mx-clip-360-40-30-30-0)" text-anchor="middle" font-size="16px"><text x="374.5" y="61.5">PK</text></g><path d="M 390 40 M 600 40 M 600 70 M 390 70" fill="none" stroke="rgb(0, 0, 0)" stroke-linecap="square" stroke-miterlimit="10" pointer-events="none"/><g fill="rgb(0, 0, 0)" font-family="Helvetica" font-weight="bold" text-decoration="underline" pointer-events="none" clip-path="url(#mx-clip-396-40-204-30-0)" font-size="16px"><text x="397.5" y="61.5">id</text></g><path d="M 360 70 M 390 70 M 390 100 M 360 100" fill="none" stroke="rgb(0, 0, 0)" stroke-linecap="square" stroke-miterlimit="10" pointer-events="none"/><g fill="rgb(0, 0, 0)" font-family="Helvetica" pointer-events="none" clip-path="url(#mx-clip-360-70-30-30-0)" text-anchor="middle" font-size="16px"><text x="374.5" y="91.5">FK</text></g><path d="M 390 70 M 600 70 M 600 100 M 390 100" fill="none" stroke="rgb(0, 0, 0)" stroke-linecap="square" stroke-miterlimit="10" pointer-events="none"/><g fill="rgb(0, 0, 0)" font-family="Helvetica" pointer-events="none" clip-path="url(#mx-clip-396-70-204-30-0)" font-size="16px"><text x="397.5" y="91.5">lexicographicResourceID</text></g><path d="M 360 100 M 390 100 M 390 130 M 360 130" fill="none" stroke="rgb(0, 0, 0)" stroke-linecap="square" stroke-miterlimit="10" pointer-events="none"/><path d="M 390 100 M 600 100 M 600 130 M 390 130" fill="none" stroke="rgb(0, 0, 0)" stroke-linecap="square" stroke-miterlimit="10" pointer-events="none"/><g fill="rgb(0, 0, 0)" font-family="Helvetica" pointer-events="none" clip-path="url(#mx-clip-396-100-204-30-0)" font-size="16px"><text x="397.5" y="121.5">···</text></g><path d="M 250 55 L 295.06 55 Q 305.06 55 305.06 65 L 305.06 75 Q 305.06 85 315.06 85 L 336.5 85" fill="none" stroke="rgb(0, 0, 0)" stroke-miterlimit="10" pointer-events="none"/><path d="M 256 49 L 256 61" fill="none" stroke="rgb(0, 0, 0)" stroke-miterlimit="10" pointer-events="none"/><ellipse cx="342" cy="85" rx="5" ry="5" fill="none" stroke="rgb(0, 0, 0)" pointer-events="none"/><path d="M 360 79 L 348 85 L 360 91 M 348 85 L 360 85" fill="none" stroke="rgb(0, 0, 0)" stroke-miterlimit="10" pointer-events="none"/><path d="M 360 190 L 360 160 L 600 160 L 600 190" fill="rgb(255, 255, 255)" stroke="rgb(0, 0, 0)" stroke-miterlimit="10" pointer-events="none"/><path d="M 360 190 L 360 290 L 600 290 L 600 190" fill="none" stroke="rgb(0, 0, 0)" stroke-miterlimit="10" pointer-events="none"/><path d="M 360 190 L 600 190" fill="none" stroke="rgb(0, 0, 0)" stroke-miterlimit="10" pointer-events="none"/><path d="M 390 190 L 390 220 L 390 250 L 390 280" fill="none" stroke="rgb(0, 0, 0)" stroke-miterlimit="10" pointer-events="none"/><g fill="rgb(0, 0, 0)" font-family="Helvetica" font-weight="bold" pointer-events="none" text-anchor="middle" font-size="16px"><text x="479.5" y="181.5">tags</text></g><path d="M 360 190 M 600 190 M 600 220 L 360 220" fill="none" stroke="rgb(0, 0, 0)" stroke-linecap="square" stroke-miterlimit="10" pointer-events="none"/><path d="M 360 190 M 390 190 M 390 220 M 360 220" fill="none" stroke="rgb(0, 0, 0)" stroke-linecap="square" stroke-miterlimit="10" pointer-events="none"/><g fill="rgb(0, 0, 0)" font-family="Helvetica" font-weight="bold" pointer-events="none" clip-path="url(#mx-clip-360-190-30-30-0)" text-anchor="middle" font-size="16px"><text x="374.5" y="211.5">PK</text></g><path d="M 390 190 M 600 190 M 600 220 M 390 220" fill="none" stroke="rgb(0, 0, 0)" stroke-linecap="square" stroke-miterlimit="10" pointer-events="none"/><g fill="rgb(0, 0, 0)" font-family="Helvetica" font-weight="bold" text-decoration="underline" pointer-events="none" clip-path="url(#mx-clip-396-190-204-30-0)" font-size="16px"><text x="397.5" y="211.5">id</text></g><path d="M 360 220 M 390 220 M 390 250 M 360 250" fill="none" stroke="rgb(0, 0, 0)" stroke-linecap="square" stroke-miterlimit="10" pointer-events="none"/><g fill="rgb(0, 0, 0)" font-family="Helvetica" pointer-events="none" clip-path="url(#mx-clip-360-220-30-30-0)" text-anchor="middle" font-size="16px"><text x="374.5" y="241.5">FK</text></g><path d="M 390 220 M 600 220 M 600 250 M 390 250" fill="none" stroke="rgb(0, 0, 0)" stroke-linecap="square" stroke-miterlimit="10" pointer-events="none"/><g fill="rgb(0, 0, 0)" font-family="Helvetica" pointer-events="none" clip-path="url(#mx-clip-396-220-204-30-0)" font-size="16px"><text x="397.5" y="241.5">lexicographicResourceID</text></g><path d="M 360 250 M 390 250 M 390 280 M 360 280" fill="none" stroke="rgb(0, 0, 0)" stroke-linecap="square" stroke-miterlimit="10" pointer-events="none"/><path d="M 390 250 M 600 250 M 600 280 M 390 280" fill="none" stroke="rgb(0, 0, 0)" stroke-linecap="square" stroke-miterlimit="10" pointer-events="none"/><g fill="rgb(0, 0, 0)" font-family="Helvetica" pointer-events="none" clip-path="url(#mx-clip-396-250-204-30-0)" font-size="16px"><text x="397.5" y="271.5">···</text></g><path d="M 250 55 L 295.06 55 Q 305.06 55 305.06 65 L 305.06 225 Q 305.06 235 315.06 235 L 336.5 235" fill="none" stroke="rgb(0, 0, 0)" stroke-miterlimit="10" pointer-events="none"/><path d="M 256 49 L 256 61" fill="none" stroke="rgb(0, 0, 0)" stroke-miterlimit="10" pointer-events="none"/><ellipse cx="342" cy="235" rx="5" ry="5" fill="none" stroke="rgb(0, 0, 0)" pointer-events="none"/><path d="M 360 229 L 348 235 L 360 241 M 348 235 L 360 235" fill="none" stroke="rgb(0, 0, 0)" stroke-miterlimit="10" pointer-events="none"/></g></svg>