<?xml version="1.0" encoding="UTF-8"?>
<!DOCTYPE svg PUBLIC "-//W3C//DTD SVG 1.1//EN" "http://www.w3.org/Graphics/SVG/1.1/DTD/svg11.dtd">
<svg xmlns="http://www.w3.org/2000/svg" xmlns:xlink="http://www.w3.org/1999/xlink" version="1.1" width="881px" height="310px" viewBox="-0.5 -0.5 881 310" style="background-color: rgb(255, 255, 255);"><defs><clipPath id="mx-clip-9-39-30-30-0"><rect x="9" y="39" width="30" height="30"/></clipPath><clipPath id="mx-clip-45-39-204-30-0"><rect x="45" y="39" width="204" height="30"/></clipPath><clipPath id="mx-clip-9-69-30-30-0"><rect x="9" y="69" width="30" height="30"/></clipPath><clipPath id="mx-clip-45-69-204-30-0"><rect x="45" y="69" width="204" height="30"/></clipPath><clipPath id="mx-clip-9-99-30-30-0"><rect x="9" y="99" width="30" height="30"/></clipPath><clipPath id="mx-clip-45-99-204-30-0"><rect x="45" y="99" width="204" height="30"/></clipPath><clipPath id="mx-clip-45-129-204-30-0"><rect x="45" y="129" width="204" height="30"/></clipPath><clipPath id="mx-clip-45-159-204-30-0"><rect x="45" y="159" width="204" height="30"/></clipPath><clipPath id="mx-clip-320-39-30-30-0"><rect x="320" y="39" width="30" height="30"/></clipPath><clipPath id="mx-clip-356-39-204-30-0"><rect x="356" y="39" width="204" height="30"/></clipPath><clipPath id="mx-clip-320-69-30-30-0"><rect x="320" y="69" width="30" height="30"/></clipPath><clipPath id="mx-clip-356-69-204-30-0"><rect x="356" y="69" width="204" height="30"/></clipPath><clipPath id="mx-clip-356-99-204-30-0"><rect x="356" y="99" width="204" height="30"/></clipPath><clipPath id="mx-clip-319-199-30-30-0"><rect x="319" y="199" width="30" height="30"/></clipPath><clipPath id="mx-clip-355-199-204-30-0"><rect x="355" y="199" width="204" height="30"/></clipPath><clipPath id="mx-clip-319-229-30-30-0"><rect x="319" y="229" width="30" height="30"/></clipPath><clipPath id="mx-clip-355-229-204-30-0"><rect x="355" y="229" width="204" height="30"/></clipPath><clipPath id="mx-clip-355-259-204-30-0"><rect x="355" y="259" width="204" height="30"/></clipPath><style type="text/css">@import url(https://fonts.googleapis.com/css?family=Permanent+Marker);&#xa;</style></defs><g><rect x="0" y="0" width="880" height="309" fill="rgb(255, 255, 255)" stroke="#cccccc" pointer-events="all"/><path d="M 9 39 L 9 9 L 249 9 L 249 39" fill="rgb(255, 255, 255)" stroke="rgb(0, 0, 0)" stroke-miterlimit="10" pointer-events="all"/><path d="M 9 39 L 9 199 L 249 199 L 249 39" fill="none" stroke="rgb(0, 0, 0)" stroke-miterlimit="10" pointer-events="none"/><path d="M 9 39 L 249 39" fill="none" stroke="rgb(0, 0, 0)" stroke-miterlimit="10" pointer-events="none"/><path d="M 39 39 L 39 69 L 39 99 L 39 129 L 39 159 L 39 189" fill="none" stroke="rgb(0, 0, 0)" stroke-miterlimit="10" pointer-events="none"/><g fill="rgb(0, 0, 0)" font-family="Helvetica" font-weight="bold" pointer-events="none" text-anchor="middle" font-size="16px"><text x="128.5" y="30.5">pronunciations</text></g><path d="M 9 39 M 249 39 M 249 69 L 9 69" fill="none" stroke="rgb(0, 0, 0)" stroke-linecap="square" stroke-miterlimit="10" pointer-events="none"/><path d="M 9 39 M 39 39 M 39 69 M 9 69" fill="none" stroke="rgb(0, 0, 0)" stroke-linecap="square" stroke-miterlimit="10" pointer-events="none"/><g fill="rgb(0, 0, 0)" font-family="Helvetica" font-weight="bold" pointer-events="none" clip-path="url(#mx-clip-9-39-30-30-0)" text-anchor="middle" font-size="16px"><text x="23.5" y="60.5">PK</text></g><path d="M 39 39 M 249 39 M 249 69 M 39 69" fill="none" stroke="rgb(0, 0, 0)" stroke-linecap="square" stroke-miterlimit="10" pointer-events="none"/><g fill="rgb(0, 0, 0)" font-family="Helvetica" font-weight="bold" text-decoration="underline" pointer-events="none" clip-path="url(#mx-clip-45-39-204-30-0)" font-size="16px"><text x="46.5" y="60.5">id</text></g><path d="M 9 69 M 39 69 M 39 99 M 9 99" fill="none" stroke="rgb(0, 0, 0)" stroke-linecap="square" stroke-miterlimit="10" pointer-events="none"/><g fill="rgb(0, 0, 0)" font-family="Helvetica" pointer-events="none" clip-path="url(#mx-clip-9-69-30-30-0)" text-anchor="middle" font-size="16px"><text x="23.5" y="90.5">FK</text></g><path d="M 39 69 M 249 69 M 249 99 M 39 99" fill="none" stroke="rgb(0, 0, 0)" stroke-linecap="square" stroke-miterlimit="10" pointer-events="none"/><g fill="rgb(0, 0, 0)" font-family="Helvetica" pointer-events="none" clip-path="url(#mx-clip-45-69-204-30-0)" font-size="16px"><text x="46.5" y="90.5">entryID</text></g><path d="M 9 99 M 39 99 M 39 129 M 9 129" fill="none" stroke="rgb(0, 0, 0)" stroke-linecap="square" stroke-miterlimit="10" pointer-events="none"/><g fill="rgb(0, 0, 0)" font-family="Helvetica" pointer-events="none" clip-path="url(#mx-clip-9-99-30-30-0)" text-anchor="middle" font-size="16px"><text x="23.5" y="120.5">FK</text></g><path d="M 39 99 M 249 99 M 249 129 M 39 129" fill="none" stroke="rgb(0, 0, 0)" stroke-linecap="square" stroke-miterlimit="10" pointer-events="none"/><g fill="rgb(0, 0, 0)" font-family="Helvetica" pointer-events="none" clip-path="url(#mx-clip-45-99-204-30-0)" font-size="16px"><text x="46.5" y="120.5">inflectedFormID</text></g><path d="M 9 129 M 39 129 M 39 159 M 9 159" fill="none" stroke="rgb(0, 0, 0)" stroke-linecap="square" stroke-miterlimit="10" pointer-events="none"/><path d="M 39 129 M 249 129 M 249 159 M 39 159" fill="none" stroke="rgb(0, 0, 0)" stroke-linecap="square" stroke-miterlimit="10" pointer-events="none"/><g fill="rgb(0, 0, 0)" font-family="Helvetica" pointer-events="none" clip-path="url(#mx-clip-45-129-204-30-0)" font-size="16px"><text x="46.5" y="150.5">soundFile</text></g><path d="M 9 159 M 39 159 M 39 189 M 9 189" fill="none" stroke="rgb(0, 0, 0)" stroke-linecap="square" stroke-miterlimit="10" pointer-events="none"/><path d="M 39 159 M 249 159 M 249 189 M 39 189" fill="none" stroke="rgb(0, 0, 0)" stroke-linecap="square" stroke-miterlimit="10" pointer-events="none"/><g fill="rgb(0, 0, 0)" font-family="Helvetica" pointer-events="none" clip-path="url(#mx-clip-45-159-204-30-0)" font-size="16px"><text x="46.5" y="180.5">listingOrder</text></g><path d="M 320 39 L 320 9 L 560 9 L 560 39" fill="rgb(255, 255, 255)" stroke="rgb(0, 0, 0)" stroke-miterlimit="10" pointer-events="none"/><path d="M 320 39 L 320 139 L 560 139 L 560 39" fill="none" stroke="rgb(0, 0, 0)" stroke-miterlimit="10" pointer-events="none"/><path d="M 320 39 L 560 39" fill="none" stroke="rgb(0, 0, 0)" stroke-miterlimit="10" pointer-events="none"/><path d="M 350 39 L 350 69 L 350 99 L 350 129" fill="none" stroke="rgb(0, 0, 0)" stroke-miterlimit="10" pointer-events="none"/><g fill="rgb(0, 0, 0)" font-family="Helvetica" font-weight="bold" pointer-events="none" text-anchor="middle" font-size="16px"><text x="439.5" y="30.5">transcriptions</text></g><path d="M 320 39 M 560 39 M 560 69 L 320 69" fill="none" stroke="rgb(0, 0, 0)" stroke-linecap="square" stroke-miterlimit="10" pointer-events="none"/><path d="M 320 39 M 350 39 M 350 69 M 320 69" fill="none" stroke="rgb(0, 0, 0)" stroke-linecap="square" stroke-miterlimit="10" pointer-events="none"/><g fill="rgb(0, 0, 0)" font-family="Helvetica" font-weight="bold" pointer-events="none" clip-path="url(#mx-clip-320-39-30-30-0)" text-anchor="middle" font-size="16px"><text x="334.5" y="60.5">PK</text></g><path d="M 350 39 M 560 39 M 560 69 M 350 69" fill="none" stroke="rgb(0, 0, 0)" stroke-linecap="square" stroke-miterlimit="10" pointer-events="none"/><g fill="rgb(0, 0, 0)" font-family="Helvetica" font-weight="bold" text-decoration="underline" pointer-events="none" clip-path="url(#mx-clip-356-39-204-30-0)" font-size="16px"><text x="357.5" y="60.5">id</text></g><path d="M 320 69 M 350 69 M 350 99 M 320 99" fill="none" stroke="rgb(0, 0, 0)" stroke-linecap="square" stroke-miterlimit="10" pointer-events="none"/><g fill="rgb(0, 0, 0)" font-family="Helvetica" pointer-events="none" clip-path="url(#mx-clip-320-69-30-30-0)" text-anchor="middle" font-size="16px"><text x="334.5" y="90.5">FK</text></g><path d="M 350 69 M 560 69 M 560 99 M 350 99" fill="none" stroke="rgb(0, 0, 0)" stroke-linecap="square" stroke-miterlimit="10" pointer-events="none"/><g fill="rgb(0, 0, 0)" font-family="Helvetica" pointer-events="none" clip-path="url(#mx-clip-356-69-204-30-0)" font-size="16px"><text x="357.5" y="90.5">pronunciationID</text></g><path d="M 320 99 M 350 99 M 350 129 M 320 129" fill="none" stroke="rgb(0, 0, 0)" stroke-linecap="square" stroke-miterlimit="10" pointer-events="none"/><path d="M 350 99 M 560 99 M 560 129 M 350 129" fill="none" stroke="rgb(0, 0, 0)" stroke-linecap="square" stroke-miterlimit="10" pointer-events="none"/><g fill="rgb(0, 0, 0)" font-family="Helvetica" pointer-events="none" clip-path="url(#mx-clip-356-99-204-30-0)" font-size="16px"><text x="357.5" y="120.5">···</text></g><path d="M 319 199 L 319 169 L 559 169 L 559 199" fill="rgb(255, 255, 255)" stroke="rgb(0, 0, 0)" stroke-miterlimit="10" pointer-events="none"/><path d="M 319 199 L 319 299 L 559 299 L 559 199" fill="none" stroke="rgb(0, 0, 0)" stroke-miterlimit="10" pointer-events="none"/><path d="M 319 199 L 559 199" fill="none" stroke="rgb(0, 0, 0)" stroke-miterlimit="10" pointer-events="none"/><path d="M 349 199 L 349 229 L 349 259 L 349 289" fill="none" stroke="rgb(0, 0, 0)" stroke-miterlimit="10" pointer-events="none"/><g fill="rgb(0, 0, 0)" font-family="Helvetica" font-weight="bold" pointer-events="none" text-anchor="middle" font-size="16px"><text x="438.5" y="190.5">labels</text></g><path d="M 319 199 M 559 199 M 559 229 L 319 229" fill="none" stroke="rgb(0, 0, 0)" stroke-linecap="square" stroke-miterlimit="10" pointer-events="none"/><path d="M 319 199 M 349 199 M 349 229 M 319 229" fill="none" stroke="rgb(0, 0, 0)" stroke-linecap="square" stroke-miterlimit="10" pointer-events="none"/><g fill="rgb(0, 0, 0)" font-family="Helvetica" font-weight="bold" pointer-events="none" clip-path="url(#mx-clip-319-199-30-30-0)" text-anchor="middle" font-size="16px"><text x="333.5" y="220.5">PK</text></g><path d="M 349 199 M 559 199 M 559 229 M 349 229" fill="none" stroke="rgb(0, 0, 0)" stroke-linecap="square" stroke-miterlimit="10" pointer-events="none"/><g fill="rgb(0, 0, 0)" font-family="Helvetica" font-weight="bold" text-decoration="underline" pointer-events="none" clip-path="url(#mx-clip-355-199-204-30-0)" font-size="16px"><text x="356.5" y="220.5">id</text></g><path d="M 319 229 M 349 229 M 349 259 M 319 259" fill="none" stroke="rgb(0, 0, 0)" stroke-linecap="square" stroke-miterlimit="10" pointer-events="none"/><g fill="rgb(0, 0, 0)" font-family="Helvetica" pointer-events="none" clip-path="url(#mx-clip-319-229-30-30-0)" text-anchor="middle" font-size="16px"><text x="333.5" y="250.5">FK</text></g><path d="M 349 229 M 559 229 M 559 259 M 349 259" fill="none" stroke="rgb(0, 0, 0)" stroke-linecap="square" stroke-miterlimit="10" pointer-events="none"/><g fill="rgb(0, 0, 0)" font-family="Helvetica" pointer-events="none" clip-path="url(#mx-clip-355-229-204-30-0)" font-size="16px"><text x="356.5" y="250.5">pronunciationID</text></g><path d="M 319 259 M 349 259 M 349 289 M 319 289" fill="none" stroke="rgb(0, 0, 0)" stroke-linecap="square" stroke-miterlimit="10" pointer-events="none"/><path d="M 349 259 M 559 259 M 559 289 M 349 289" fill="none" stroke="rgb(0, 0, 0)" stroke-linecap="square" stroke-miterlimit="10" pointer-events="none"/><g fill="rgb(0, 0, 0)" font-family="Helvetica" pointer-events="none" clip-path="url(#mx-clip-355-259-204-30-0)" font-size="16px"><text x="356.5" y="280.5">···</text></g><path d="M 249 54 L 274.5 54 Q 284.5 54 284.5 64 L 284.5 74 Q 284.5 84 290.5 84 L 296.5 84" fill="none" stroke="rgb(0, 0, 0)" stroke-miterlimit="10" pointer-events="none"/><path d="M 255 48 L 255 60" fill="none" stroke="rgb(0, 0, 0)" stroke-miterlimit="10" pointer-events="none"/><ellipse cx="302" cy="84" rx="5" ry="5" fill="none" stroke="rgb(0, 0, 0)" pointer-events="none"/><path d="M 320 78 L 308 84 L 320 90 M 308 84 L 320 84" fill="none" stroke="rgb(0, 0, 0)" stroke-miterlimit="10" pointer-events="none"/><path d="M 249 54 L 274 54 Q 284 54 284 64 L 284 234 Q 284 244 289.75 244 L 295.5 244" fill="none" stroke="rgb(0, 0, 0)" stroke-miterlimit="10" pointer-events="none"/><path d="M 255 48 L 255 60" fill="none" stroke="rgb(0, 0, 0)" stroke-miterlimit="10" pointer-events="none"/><ellipse cx="301" cy="244" rx="5" ry="5" fill="none" stroke="rgb(0, 0, 0)" pointer-events="none"/><path d="M 319 238 L 307 244 L 319 250 M 307 244 L 319 244" fill="none" stroke="rgb(0, 0, 0)" stroke-miterlimit="10" pointer-events="none"/></g></svg>