<?xml version="1.0" encoding="UTF-8"?>
<!DOCTYPE svg PUBLIC "-//W3C//DTD SVG 1.1//EN" "http://www.w3.org/Graphics/SVG/1.1/DTD/svg11.dtd">
<svg xmlns="http://www.w3.org/2000/svg" xmlns:xlink="http://www.w3.org/1999/xlink" version="1.1" width="881px" height="310px" viewBox="-0.5 -0.5 881 310" style="background-color: rgb(255, 255, 255);"><defs><clipPath id="mx-clip-9-39-30-30-0"><rect x="9" y="39" width="30" height="30"/></clipPath><clipPath id="mx-clip-45-39-204-30-0"><rect x="45" y="39" width="204" height="30"/></clipPath><clipPath id="mx-clip-9-69-30-30-0"><rect x="9" y="69" width="30" height="30"/></clipPath><clipPath id="mx-clip-45-69-204-30-0"><rect x="45" y="69" width="204" height="30"/></clipPath><clipPath id="mx-clip-45-99-204-30-0"><rect x="45" y="99" width="204" height="30"/></clipPath><clipPath id="mx-clip-45-129-204-30-0"><rect x="45" y="129" width="204" height="30"/></clipPath><clipPath id="mx-clip-319-39-30-30-0"><rect x="319" y="39" width="30" height="30"/></clipPath><clipPath id="mx-clip-355-39-204-30-0"><rect x="355" y="39" width="204" height="30"/></clipPath><clipPath id="mx-clip-319-69-30-30-0"><rect x="319" y="69" width="30" height="30"/></clipPath><clipPath id="mx-clip-355-69-204-30-0"><rect x="355" y="69" width="204" height="30"/></clipPath><clipPath id="mx-clip-355-99-204-30-0"><rect x="355" y="99" width="204" height="30"/></clipPath><clipPath id="mx-clip-319-199-30-30-0"><rect x="319" y="199" width="30" height="30"/></clipPath><clipPath id="mx-clip-355-199-204-30-0"><rect x="355" y="199" width="204" height="30"/></clipPath><clipPath id="mx-clip-319-229-30-30-0"><rect x="319" y="229" width="30" height="30"/></clipPath><clipPath id="mx-clip-355-229-204-30-0"><rect x="355" y="229" width="204" height="30"/></clipPath><clipPath id="mx-clip-355-259-204-30-0"><rect x="355" y="259" width="204" height="30"/></clipPath><clipPath id="mx-clip-599-109-30-30-0"><rect x="599" y="109" width="30" height="30"/></clipPath><clipPath id="mx-clip-635-109-204-30-0"><rect x="635" y="109" width="204" height="30"/></clipPath><clipPath id="mx-clip-599-139-30-30-0"><rect x="599" y="139" width="30" height="30"/></clipPath><clipPath id="mx-clip-635-139-204-30-0"><rect x="635" y="139" width="204" height="30"/></clipPath><clipPath id="mx-clip-635-169-204-30-0"><rect x="635" y="169" width="204" height="30"/></clipPath><style type="text/css">@import url(https://fonts.googleapis.com/css?family=Permanent+Marker);&#xa;</style></defs><g><rect x="0" y="0" width="880" height="309" fill="rgb(255, 255, 255)" stroke="#cccccc" pointer-events="all"/><path d="M 9 39 L 9 9 L 249 9 L 249 39" fill="rgb(255, 255, 255)" stroke="rgb(0, 0, 0)" stroke-miterlimit="10" pointer-events="all"/><path d="M 9 39 L 9 169 L 249 169 L 249 39" fill="none" stroke="rgb(0, 0, 0)" stroke-miterlimit="10" pointer-events="none"/><path d="M 9 39 L 249 39" fill="none" stroke="rgb(0, 0, 0)" stroke-miterlimit="10" pointer-events="none"/><path d="M 39 39 L 39 69 L 39 99 L 39 129 L 39 159" fill="none" stroke="rgb(0, 0, 0)" stroke-miterlimit="10" pointer-events="none"/><g fill="rgb(0, 0, 0)" font-family="Helvetica" font-weight="bold" pointer-events="none" text-anchor="middle" font-size="16px"><text x="128.5" y="30.5">senses</text></g><path d="M 9 39 M 249 39 M 249 69 L 9 69" fill="none" stroke="rgb(0, 0, 0)" stroke-linecap="square" stroke-miterlimit="10" pointer-events="none"/><path d="M 9 39 M 39 39 M 39 69 M 9 69" fill="none" stroke="rgb(0, 0, 0)" stroke-linecap="square" stroke-miterlimit="10" pointer-events="none"/><g fill="rgb(0, 0, 0)" font-family="Helvetica" font-weight="bold" pointer-events="none" clip-path="url(#mx-clip-9-39-30-30-0)" text-anchor="middle" font-size="16px"><text x="23.5" y="60.5">PK</text></g><path d="M 39 39 M 249 39 M 249 69 M 39 69" fill="none" stroke="rgb(0, 0, 0)" stroke-linecap="square" stroke-miterlimit="10" pointer-events="none"/><g fill="rgb(0, 0, 0)" font-family="Helvetica" font-weight="bold" text-decoration="underline" pointer-events="none" clip-path="url(#mx-clip-45-39-204-30-0)" font-size="16px"><text x="46.5" y="60.5">id</text></g><path d="M 9 69 M 39 69 M 39 99 M 9 99" fill="none" stroke="rgb(0, 0, 0)" stroke-linecap="square" stroke-miterlimit="10" pointer-events="none"/><g fill="rgb(0, 0, 0)" font-family="Helvetica" pointer-events="none" clip-path="url(#mx-clip-9-69-30-30-0)" text-anchor="middle" font-size="16px"><text x="23.5" y="90.5">FK</text></g><path d="M 39 69 M 249 69 M 249 99 M 39 99" fill="none" stroke="rgb(0, 0, 0)" stroke-linecap="square" stroke-miterlimit="10" pointer-events="none"/><g fill="rgb(0, 0, 0)" font-family="Helvetica" pointer-events="none" clip-path="url(#mx-clip-45-69-204-30-0)" font-size="16px"><text x="46.5" y="90.5">entryID</text></g><path d="M 9 99 M 39 99 M 39 129 M 9 129" fill="none" stroke="rgb(0, 0, 0)" stroke-linecap="square" stroke-miterlimit="10" pointer-events="none"/><path d="M 39 99 M 249 99 M 249 129 M 39 129" fill="none" stroke="rgb(0, 0, 0)" stroke-linecap="square" stroke-miterlimit="10" pointer-events="none"/><g fill="rgb(0, 0, 0)" font-family="Helvetica" pointer-events="none" clip-path="url(#mx-clip-45-99-204-30-0)" font-size="16px"><text x="46.5" y="120.5">indicator</text></g><path d="M 9 129 M 39 129 M 39 159 M 9 159" fill="none" stroke="rgb(0, 0, 0)" stroke-linecap="square" stroke-miterlimit="10" pointer-events="none"/><path d="M 39 129 M 249 129 M 249 159 M 39 159" fill="none" stroke="rgb(0, 0, 0)" stroke-linecap="square" stroke-miterlimit="10" pointer-events="none"/><g fill="rgb(0, 0, 0)" font-family="Helvetica" pointer-events="none" clip-path="url(#mx-clip-45-129-204-30-0)" font-size="16px"><text x="46.5" y="150.5">listingOrder</text></g><path d="M 319 39 L 319 9 L 559 9 L 559 39" fill="rgb(255, 255, 255)" stroke="rgb(0, 0, 0)" stroke-miterlimit="10" pointer-events="none"/><path d="M 319 39 L 319 139 L 559 139 L 559 39" fill="none" stroke="rgb(0, 0, 0)" stroke-miterlimit="10" pointer-events="none"/><path d="M 319 39 L 559 39" fill="none" stroke="rgb(0, 0, 0)" stroke-miterlimit="10" pointer-events="none"/><path d="M 349 39 L 349 69 L 349 99 L 349 129" fill="none" stroke="rgb(0, 0, 0)" stroke-miterlimit="10" pointer-events="none"/><g fill="rgb(0, 0, 0)" font-family="Helvetica" font-weight="bold" pointer-events="none" text-anchor="middle" font-size="16px"><text x="438.5" y="30.5">labels</text></g><path d="M 319 39 M 559 39 M 559 69 L 319 69" fill="none" stroke="rgb(0, 0, 0)" stroke-linecap="square" stroke-miterlimit="10" pointer-events="none"/><path d="M 319 39 M 349 39 M 349 69 M 319 69" fill="none" stroke="rgb(0, 0, 0)" stroke-linecap="square" stroke-miterlimit="10" pointer-events="none"/><g fill="rgb(0, 0, 0)" font-family="Helvetica" font-weight="bold" pointer-events="none" clip-path="url(#mx-clip-319-39-30-30-0)" text-anchor="middle" font-size="16px"><text x="333.5" y="60.5">PK</text></g><path d="M 349 39 M 559 39 M 559 69 M 349 69" fill="none" stroke="rgb(0, 0, 0)" stroke-linecap="square" stroke-miterlimit="10" pointer-events="none"/><g fill="rgb(0, 0, 0)" font-family="Helvetica" font-weight="bold" text-decoration="underline" pointer-events="none" clip-path="url(#mx-clip-355-39-204-30-0)" font-size="16px"><text x="356.5" y="60.5">id</text></g><path d="M 319 69 M 349 69 M 349 99 M 319 99" fill="none" stroke="rgb(0, 0, 0)" stroke-linecap="square" stroke-miterlimit="10" pointer-events="none"/><g fill="rgb(0, 0, 0)" font-family="Helvetica" pointer-events="none" clip-path="url(#mx-clip-319-69-30-30-0)" text-anchor="middle" font-size="16px"><text x="333.5" y="90.5">FK</text></g><path d="M 349 69 M 559 69 M 559 99 M 349 99" fill="none" stroke="rgb(0, 0, 0)" stroke-linecap="square" stroke-miterlimit="10" pointer-events="none"/><g fill="rgb(0, 0, 0)" font-family="Helvetica" pointer-events="none" clip-path="url(#mx-clip-355-69-204-30-0)" font-size="16px"><text x="356.5" y="90.5">senseID</text></g><path d="M 319 99 M 349 99 M 349 129 M 319 129" fill="none" stroke="rgb(0, 0, 0)" stroke-linecap="square" stroke-miterlimit="10" pointer-events="none"/><path d="M 349 99 M 559 99 M 559 129 M 349 129" fill="none" stroke="rgb(0, 0, 0)" stroke-linecap="square" stroke-miterlimit="10" pointer-events="none"/><g fill="rgb(0, 0, 0)" font-family="Helvetica" pointer-events="none" clip-path="url(#mx-clip-355-99-204-30-0)" font-size="16px"><text x="356.5" y="120.5">···</text></g><path d="M 319 199 L 319 169 L 559 169 L 559 199" fill="rgb(255, 255, 255)" stroke="rgb(0, 0, 0)" stroke-miterlimit="10" pointer-events="none"/><path d="M 319 199 L 319 299 L 559 299 L 559 199" fill="none" stroke="rgb(0, 0, 0)" stroke-miterlimit="10" pointer-events="none"/><path d="M 319 199 L 559 199" fill="none" stroke="rgb(0, 0, 0)" stroke-miterlimit="10" pointer-events="none"/><path d="M 349 199 L 349 229 L 349 259 L 349 289" fill="none" stroke="rgb(0, 0, 0)" stroke-miterlimit="10" pointer-events="none"/><g fill="rgb(0, 0, 0)" font-family="Helvetica" font-weight="bold" pointer-events="none" text-anchor="middle" font-size="16px"><text x="438.5" y="190.5">examples</text></g><path d="M 319 199 M 559 199 M 559 229 L 319 229" fill="none" stroke="rgb(0, 0, 0)" stroke-linecap="square" stroke-miterlimit="10" pointer-events="none"/><path d="M 319 199 M 349 199 M 349 229 M 319 229" fill="none" stroke="rgb(0, 0, 0)" stroke-linecap="square" stroke-miterlimit="10" pointer-events="none"/><g fill="rgb(0, 0, 0)" font-family="Helvetica" font-weight="bold" pointer-events="none" clip-path="url(#mx-clip-319-199-30-30-0)" text-anchor="middle" font-size="16px"><text x="333.5" y="220.5">PK</text></g><path d="M 349 199 M 559 199 M 559 229 M 349 229" fill="none" stroke="rgb(0, 0, 0)" stroke-linecap="square" stroke-miterlimit="10" pointer-events="none"/><g fill="rgb(0, 0, 0)" font-family="Helvetica" font-weight="bold" text-decoration="underline" pointer-events="none" clip-path="url(#mx-clip-355-199-204-30-0)" font-size="16px"><text x="356.5" y="220.5">id</text></g><path d="M 319 229 M 349 229 M 349 259 M 319 259" fill="none" stroke="rgb(0, 0, 0)" stroke-linecap="square" stroke-miterlimit="10" pointer-events="none"/><g fill="rgb(0, 0, 0)" font-family="Helvetica" pointer-events="none" clip-path="url(#mx-clip-319-229-30-30-0)" text-anchor="middle" font-size="16px"><text x="333.5" y="250.5">FK</text></g><path d="M 349 229 M 559 229 M 559 259 M 349 259" fill="none" stroke="rgb(0, 0, 0)" stroke-linecap="square" stroke-miterlimit="10" pointer-events="none"/><g fill="rgb(0, 0, 0)" font-family="Helvetica" pointer-events="none" clip-path="url(#mx-clip-355-229-204-30-0)" font-size="16px"><text x="356.5" y="250.5">senseID</text></g><path d="M 319 259 M 349 259 M 349 289 M 319 289" fill="none" stroke="rgb(0, 0, 0)" stroke-linecap="square" stroke-miterlimit="10" pointer-events="none"/><path d="M 349 259 M 559 259 M 559 289 M 349 289" fill="none" stroke="rgb(0, 0, 0)" stroke-linecap="square" stroke-miterlimit="10" pointer-events="none"/><g fill="rgb(0, 0, 0)" font-family="Helvetica" pointer-events="none" clip-path="url(#mx-clip-355-259-204-30-0)" font-size="16px"><text x="356.5" y="280.5">···</text></g><path d="M 599 109 L 599 79 L 839 79 L 839 109" fill="rgb(255, 255, 255)" stroke="rgb(0, 0, 0)" stroke-miterlimit="10" pointer-events="none"/><path d="M 599 109 L 599 209 L 839 209 L 839 109" fill="none" stroke="rgb(0, 0, 0)" stroke-miterlimit="10" pointer-events="none"/><path d="M 599 109 L 839 109" fill="none" stroke="rgb(0, 0, 0)" stroke-miterlimit="10" pointer-events="none"/><path d="M 629 109 L 629 139 L 629 169 L 629 199" fill="none" stroke="rgb(0, 0, 0)" stroke-miterlimit="10" pointer-events="none"/><g fill="rgb(0, 0, 0)" font-family="Helvetica" font-weight="bold" pointer-events="none" text-anchor="middle" font-size="16px"><text x="718.5" y="100.5">definitions</text></g><path d="M 599 109 M 839 109 M 839 139 L 599 139" fill="none" stroke="rgb(0, 0, 0)" stroke-linecap="square" stroke-miterlimit="10" pointer-events="none"/><path d="M 599 109 M 629 109 M 629 139 M 599 139" fill="none" stroke="rgb(0, 0, 0)" stroke-linecap="square" stroke-miterlimit="10" pointer-events="none"/><g fill="rgb(0, 0, 0)" font-family="Helvetica" font-weight="bold" pointer-events="none" clip-path="url(#mx-clip-599-109-30-30-0)" text-anchor="middle" font-size="16px"><text x="613.5" y="130.5">PK</text></g><path d="M 629 109 M 839 109 M 839 139 M 629 139" fill="none" stroke="rgb(0, 0, 0)" stroke-linecap="square" stroke-miterlimit="10" pointer-events="none"/><g fill="rgb(0, 0, 0)" font-family="Helvetica" font-weight="bold" text-decoration="underline" pointer-events="none" clip-path="url(#mx-clip-635-109-204-30-0)" font-size="16px"><text x="636.5" y="130.5">id</text></g><path d="M 599 139 M 629 139 M 629 169 M 599 169" fill="none" stroke="rgb(0, 0, 0)" stroke-linecap="square" stroke-miterlimit="10" pointer-events="none"/><g fill="rgb(0, 0, 0)" font-family="Helvetica" pointer-events="none" clip-path="url(#mx-clip-599-139-30-30-0)" text-anchor="middle" font-size="16px"><text x="613.5" y="160.5">FK</text></g><path d="M 629 139 M 839 139 M 839 169 M 629 169" fill="none" stroke="rgb(0, 0, 0)" stroke-linecap="square" stroke-miterlimit="10" pointer-events="none"/><g fill="rgb(0, 0, 0)" font-family="Helvetica" pointer-events="none" clip-path="url(#mx-clip-635-139-204-30-0)" font-size="16px"><text x="636.5" y="160.5">senseID</text></g><path d="M 599 169 M 629 169 M 629 199 M 599 199" fill="none" stroke="rgb(0, 0, 0)" stroke-linecap="square" stroke-miterlimit="10" pointer-events="none"/><path d="M 629 169 M 839 169 M 839 199 M 629 199" fill="none" stroke="rgb(0, 0, 0)" stroke-linecap="square" stroke-miterlimit="10" pointer-events="none"/><g fill="rgb(0, 0, 0)" font-family="Helvetica" pointer-events="none" clip-path="url(#mx-clip-635-169-204-30-0)" font-size="16px"><text x="636.5" y="190.5">···</text></g><path d="M 249 54 L 269 54 Q 279 54 279 64 L 279 74 Q 279 84 287.25 84 L 295.5 84" fill="none" stroke="rgb(0, 0, 0)" stroke-miterlimit="10" pointer-events="none"/><path d="M 255 48 L 255 60" fill="none" stroke="rgb(0, 0, 0)" stroke-miterlimit="10" pointer-events="none"/><ellipse cx="301" cy="84" rx="5" ry="5" fill="none" stroke="rgb(0, 0, 0)" pointer-events="none"/><path d="M 319 78 L 307 84 L 319 90 M 307 84 L 319 84" fill="none" stroke="rgb(0, 0, 0)" stroke-miterlimit="10" pointer-events="none"/><path d="M 249 54 L 269 54 Q 279 54 279 64 L 279 234 Q 279 244 287.25 244 L 295.5 244" fill="none" stroke="rgb(0, 0, 0)" stroke-miterlimit="10" pointer-events="none"/><path d="M 255 48 L 255 60" fill="none" stroke="rgb(0, 0, 0)" stroke-miterlimit="10" pointer-events="none"/><ellipse cx="301" cy="244" rx="5" ry="5" fill="none" stroke="rgb(0, 0, 0)" pointer-events="none"/><path d="M 319 238 L 307 244 L 319 250 M 307 244 L 319 244" fill="none" stroke="rgb(0, 0, 0)" stroke-miterlimit="10" pointer-events="none"/><path d="M 249 54 L 269 54 Q 279 54 279 64 L 279 144 Q 279 154 289 154 L 575.5 154" fill="none" stroke="rgb(0, 0, 0)" stroke-miterlimit="10" pointer-events="none"/><path d="M 255 48 L 255 60" fill="none" stroke="rgb(0, 0, 0)" stroke-miterlimit="10" pointer-events="none"/><ellipse cx="581" cy="154" rx="5" ry="5" fill="none" stroke="rgb(0, 0, 0)" pointer-events="none"/><path d="M 599 148 L 587 154 L 599 160 M 587 154 L 599 154" fill="none" stroke="rgb(0, 0, 0)" stroke-miterlimit="10" pointer-events="none"/></g></svg>