<?xml version="1.0" encoding="UTF-8"?>
<!DOCTYPE svg PUBLIC "-//W3C//DTD SVG 1.1//EN" "http://www.w3.org/Graphics/SVG/1.1/DTD/svg11.dtd">
<svg xmlns="http://www.w3.org/2000/svg" xmlns:xlink="http://www.w3.org/1999/xlink" version="1.1" width="881px" height="240px" viewBox="-0.5 -0.5 881 240" style="background-color: rgb(255, 255, 255);"><defs><clipPath id="mx-clip-10-39-30-30-0"><rect x="10" y="39" width="30" height="30"/></clipPath><clipPath id="mx-clip-46-39-204-30-0"><rect x="46" y="39" width="204" height="30"/></clipPath><clipPath id="mx-clip-10-69-30-30-0"><rect x="10" y="69" width="30" height="30"/></clipPath><clipPath id="mx-clip-46-69-204-30-0"><rect x="46" y="69" width="204" height="30"/></clipPath><clipPath id="mx-clip-46-99-204-30-0"><rect x="46" y="99" width="204" height="30"/></clipPath><clipPath id="mx-clip-46-129-204-30-0"><rect x="46" y="129" width="204" height="30"/></clipPath><clipPath id="mx-clip-46-159-204-30-0"><rect x="46" y="159" width="204" height="30"/></clipPath><clipPath id="mx-clip-46-189-204-30-0"><rect x="46" y="189" width="204" height="30"/></clipPath><clipPath id="mx-clip-319-39-30-30-0"><rect x="319" y="39" width="30" height="30"/></clipPath><clipPath id="mx-clip-355-39-204-30-0"><rect x="355" y="39" width="204" height="30"/></clipPath><clipPath id="mx-clip-319-69-30-30-0"><rect x="319" y="69" width="30" height="30"/></clipPath><clipPath id="mx-clip-355-69-204-30-0"><rect x="355" y="69" width="204" height="30"/></clipPath><clipPath id="mx-clip-355-99-204-30-0"><rect x="355" y="99" width="204" height="30"/></clipPath><style type="text/css">@import url(https://fonts.googleapis.com/css?family=Permanent+Marker);&#xa;</style></defs><g><rect x="0" y="0" width="880" height="239" fill="rgb(255, 255, 255)" stroke="#cccccc" pointer-events="all"/><path d="M 10 39 L 10 9 L 250 9 L 250 39" fill="rgb(255, 255, 255)" stroke="rgb(0, 0, 0)" stroke-miterlimit="10" pointer-events="all"/><path d="M 10 39 L 10 229 L 250 229 L 250 39" fill="none" stroke="rgb(0, 0, 0)" stroke-miterlimit="10" pointer-events="none"/><path d="M 10 39 L 250 39" fill="none" stroke="rgb(0, 0, 0)" stroke-miterlimit="10" pointer-events="none"/><path d="M 40 39 L 40 69 L 40 99 L 40 129 L 40 159 L 40 189 L 40 219" fill="none" stroke="rgb(0, 0, 0)" stroke-miterlimit="10" pointer-events="none"/><g fill="rgb(0, 0, 0)" font-family="Helvetica" font-weight="bold" pointer-events="none" text-anchor="middle" font-size="16px"><text x="129.5" y="30.5">tags</text></g><path d="M 10 39 M 250 39 M 250 69 L 10 69" fill="none" stroke="rgb(0, 0, 0)" stroke-linecap="square" stroke-miterlimit="10" pointer-events="none"/><path d="M 10 39 M 40 39 M 40 69 M 10 69" fill="none" stroke="rgb(0, 0, 0)" stroke-linecap="square" stroke-miterlimit="10" pointer-events="none"/><g fill="rgb(0, 0, 0)" font-family="Helvetica" font-weight="bold" pointer-events="none" clip-path="url(#mx-clip-10-39-30-30-0)" text-anchor="middle" font-size="16px"><text x="24.5" y="60.5">PK</text></g><path d="M 40 39 M 250 39 M 250 69 M 40 69" fill="none" stroke="rgb(0, 0, 0)" stroke-linecap="square" stroke-miterlimit="10" pointer-events="none"/><g fill="rgb(0, 0, 0)" font-family="Helvetica" font-weight="bold" text-decoration="underline" pointer-events="none" clip-path="url(#mx-clip-46-39-204-30-0)" font-size="16px"><text x="47.5" y="60.5">id</text></g><path d="M 10 69 M 40 69 M 40 99 M 10 99" fill="none" stroke="rgb(0, 0, 0)" stroke-linecap="square" stroke-miterlimit="10" pointer-events="none"/><g fill="rgb(0, 0, 0)" font-family="Helvetica" pointer-events="none" clip-path="url(#mx-clip-10-69-30-30-0)" text-anchor="middle" font-size="16px"><text x="24.5" y="90.5">FK</text></g><path d="M 40 69 M 250 69 M 250 99 M 40 99" fill="none" stroke="rgb(0, 0, 0)" stroke-linecap="square" stroke-miterlimit="10" pointer-events="none"/><g fill="rgb(0, 0, 0)" font-family="Helvetica" pointer-events="none" clip-path="url(#mx-clip-46-69-204-30-0)" font-size="16px"><text x="47.5" y="90.5">lexicographicResourceID</text></g><path d="M 10 99 M 40 99 M 40 129 M 10 129" fill="none" stroke="rgb(0, 0, 0)" stroke-linecap="square" stroke-miterlimit="10" pointer-events="none"/><path d="M 40 99 M 250 99 M 250 129 M 40 129" fill="none" stroke="rgb(0, 0, 0)" stroke-linecap="square" stroke-miterlimit="10" pointer-events="none"/><g fill="rgb(0, 0, 0)" font-family="Helvetica" pointer-events="none" clip-path="url(#mx-clip-46-99-204-30-0)" font-size="16px"><text x="47.5" y="120.5">value</text></g><path d="M 10 129 M 40 129 M 40 159 M 10 159" fill="none" stroke="rgb(0, 0, 0)" stroke-linecap="square" stroke-miterlimit="10" pointer-events="none"/><path d="M 40 129 M 250 129 M 250 159 M 40 159" fill="none" stroke="rgb(0, 0, 0)" stroke-linecap="square" stroke-miterlimit="10" pointer-events="none"/><g fill="rgb(0, 0, 0)" font-family="Helvetica" pointer-events="none" clip-path="url(#mx-clip-46-129-204-30-0)" font-size="16px"><text x="47.5" y="150.5">description</text></g><path d="M 10 159 M 40 159 M 40 189 M 10 189" fill="none" stroke="rgb(0, 0, 0)" stroke-linecap="square" stroke-miterlimit="10" pointer-events="none"/><path d="M 40 159 M 250 159 M 250 189 M 40 189" fill="none" stroke="rgb(0, 0, 0)" stroke-linecap="square" stroke-miterlimit="10" pointer-events="none"/><g fill="rgb(0, 0, 0)" font-family="Helvetica" pointer-events="none" clip-path="url(#mx-clip-46-159-204-30-0)" font-size="16px"><text x="47.5" y="180.5">target</text></g><path d="M 10 189 M 40 189 M 40 219 M 10 219" fill="none" stroke="rgb(0, 0, 0)" stroke-linecap="square" stroke-miterlimit="10" pointer-events="none"/><path d="M 40 189 M 250 189 M 250 219 M 40 219" fill="none" stroke="rgb(0, 0, 0)" stroke-linecap="square" stroke-miterlimit="10" pointer-events="none"/><g fill="rgb(0, 0, 0)" font-family="Helvetica" pointer-events="none" clip-path="url(#mx-clip-46-189-204-30-0)" font-size="16px"><text x="47.5" y="210.5">partOfSpeechConstraint</text></g><path d="M 319 39 L 319 9 L 559 9 L 559 39" fill="rgb(255, 255, 255)" stroke="rgb(0, 0, 0)" stroke-miterlimit="10" pointer-events="none"/><path d="M 319 39 L 319 139 L 559 139 L 559 39" fill="none" stroke="rgb(0, 0, 0)" stroke-miterlimit="10" pointer-events="none"/><path d="M 319 39 L 559 39" fill="none" stroke="rgb(0, 0, 0)" stroke-miterlimit="10" pointer-events="none"/><path d="M 349 39 L 349 69 L 349 99 L 349 129" fill="none" stroke="rgb(0, 0, 0)" stroke-miterlimit="10" pointer-events="none"/><g fill="rgb(0, 0, 0)" font-family="Helvetica" font-weight="bold" pointer-events="none" text-anchor="middle" font-size="16px"><text x="438.5" y="30.5">sameAs</text></g><path d="M 319 39 M 559 39 M 559 69 L 319 69" fill="none" stroke="rgb(0, 0, 0)" stroke-linecap="square" stroke-miterlimit="10" pointer-events="none"/><path d="M 319 39 M 349 39 M 349 69 M 319 69" fill="none" stroke="rgb(0, 0, 0)" stroke-linecap="square" stroke-miterlimit="10" pointer-events="none"/><g fill="rgb(0, 0, 0)" font-family="Helvetica" font-weight="bold" pointer-events="none" clip-path="url(#mx-clip-319-39-30-30-0)" text-anchor="middle" font-size="16px"><text x="333.5" y="60.5">PK</text></g><path d="M 349 39 M 559 39 M 559 69 M 349 69" fill="none" stroke="rgb(0, 0, 0)" stroke-linecap="square" stroke-miterlimit="10" pointer-events="none"/><g fill="rgb(0, 0, 0)" font-family="Helvetica" font-weight="bold" text-decoration="underline" pointer-events="none" clip-path="url(#mx-clip-355-39-204-30-0)" font-size="16px"><text x="356.5" y="60.5">id</text></g><path d="M 319 69 M 349 69 M 349 99 M 319 99" fill="none" stroke="rgb(0, 0, 0)" stroke-linecap="square" stroke-miterlimit="10" pointer-events="none"/><g fill="rgb(0, 0, 0)" font-family="Helvetica" pointer-events="none" clip-path="url(#mx-clip-319-69-30-30-0)" text-anchor="middle" font-size="16px"><text x="333.5" y="90.5">FK</text></g><path d="M 349 69 M 559 69 M 559 99 M 349 99" fill="none" stroke="rgb(0, 0, 0)" stroke-linecap="square" stroke-miterlimit="10" pointer-events="none"/><g fill="rgb(0, 0, 0)" font-family="Helvetica" pointer-events="none" clip-path="url(#mx-clip-355-69-204-30-0)" font-size="16px"><text x="356.5" y="90.5">tagID</text></g><path d="M 319 99 M 349 99 M 349 129 M 319 129" fill="none" stroke="rgb(0, 0, 0)" stroke-linecap="square" stroke-miterlimit="10" pointer-events="none"/><path d="M 349 99 M 559 99 M 559 129 M 349 129" fill="none" stroke="rgb(0, 0, 0)" stroke-linecap="square" stroke-miterlimit="10" pointer-events="none"/><g fill="rgb(0, 0, 0)" font-family="Helvetica" pointer-events="none" clip-path="url(#mx-clip-355-99-204-30-0)" font-size="16px"><text x="356.5" y="120.5">···</text></g><path d="M 250 54 L 274.5 54 Q 284.5 54 284.5 64 L 284.5 74 Q 284.5 84 290 84 L 295.5 84" fill="none" stroke="rgb(0, 0, 0)" stroke-miterlimit="10" pointer-events="none"/><path d="M 256 48 L 256 60" fill="none" stroke="rgb(0, 0, 0)" stroke-miterlimit="10" pointer-events="none"/><ellipse cx="301" cy="84" rx="5" ry="5" fill="none" stroke="rgb(0, 0, 0)" pointer-events="none"/><path d="M 319 78 L 307 84 L 319 90 M 307 84 L 319 84" fill="none" stroke="rgb(0, 0, 0)" stroke-miterlimit="10" pointer-events="none"/></g></svg>