<?xml version="1.0" encoding="UTF-8"?>
<!DOCTYPE svg PUBLIC "-//W3C//DTD SVG 1.1//EN" "http://www.w3.org/Graphics/SVG/1.1/DTD/svg11.dtd">
<svg xmlns="http://www.w3.org/2000/svg" xmlns:xlink="http://www.w3.org/1999/xlink" version="1.1" width="881px" height="181px" viewBox="-0.5 -0.5 881 181" style="background-color: rgb(255, 255, 255);"><defs><clipPath id="mx-clip-10-40-30-30-0"><rect x="10" y="40" width="30" height="30"/></clipPath><clipPath id="mx-clip-46-40-204-30-0"><rect x="46" y="40" width="204" height="30"/></clipPath><clipPath id="mx-clip-10-70-30-30-0"><rect x="10" y="70" width="30" height="30"/></clipPath><clipPath id="mx-clip-46-70-204-30-0"><rect x="46" y="70" width="204" height="30"/></clipPath><clipPath id="mx-clip-46-100-204-30-0"><rect x="46" y="100" width="204" height="30"/></clipPath><clipPath id="mx-clip-46-130-204-30-0"><rect x="46" y="130" width="204" height="30"/></clipPath><clipPath id="mx-clip-321-40-30-30-0"><rect x="321" y="40" width="30" height="30"/></clipPath><clipPath id="mx-clip-357-40-204-30-0"><rect x="357" y="40" width="204" height="30"/></clipPath><clipPath id="mx-clip-321-70-30-30-0"><rect x="321" y="70" width="30" height="30"/></clipPath><clipPath id="mx-clip-357-70-204-30-0"><rect x="357" y="70" width="204" height="30"/></clipPath><clipPath id="mx-clip-357-100-204-30-0"><rect x="357" y="100" width="204" height="30"/></clipPath><style type="text/css">@import url(https://fonts.googleapis.com/css?family=Permanent+Marker);&#xa;</style></defs><g><rect x="0" y="0" width="880" height="180" fill="rgb(255, 255, 255)" stroke="#cccccc" pointer-events="all"/><path d="M 10 40 L 10 10 L 250 10 L 250 40" fill="rgb(255, 255, 255)" stroke="rgb(0, 0, 0)" stroke-miterlimit="10" pointer-events="all"/><path d="M 10 40 L 10 170 L 250 170 L 250 40" fill="none" stroke="rgb(0, 0, 0)" stroke-miterlimit="10" pointer-events="none"/><path d="M 10 40 L 250 40" fill="none" stroke="rgb(0, 0, 0)" stroke-miterlimit="10" pointer-events="none"/><path d="M 40 40 L 40 70 L 40 100 L 40 130 L 40 160" fill="none" stroke="rgb(0, 0, 0)" stroke-miterlimit="10" pointer-events="none"/><g fill="rgb(0, 0, 0)" font-family="Helvetica" font-weight="bold" pointer-events="none" text-anchor="middle" font-size="16px"><text x="129.5" y="31.5">relations</text></g><path d="M 10 40 M 250 40 M 250 70 L 10 70" fill="none" stroke="rgb(0, 0, 0)" stroke-linecap="square" stroke-miterlimit="10" pointer-events="none"/><path d="M 10 40 M 40 40 M 40 70 M 10 70" fill="none" stroke="rgb(0, 0, 0)" stroke-linecap="square" stroke-miterlimit="10" pointer-events="none"/><g fill="rgb(0, 0, 0)" font-family="Helvetica" font-weight="bold" pointer-events="none" clip-path="url(#mx-clip-10-40-30-30-0)" text-anchor="middle" font-size="16px"><text x="24.5" y="61.5">PK</text></g><path d="M 40 40 M 250 40 M 250 70 M 40 70" fill="none" stroke="rgb(0, 0, 0)" stroke-linecap="square" stroke-miterlimit="10" pointer-events="none"/><g fill="rgb(0, 0, 0)" font-family="Helvetica" font-weight="bold" text-decoration="underline" pointer-events="none" clip-path="url(#mx-clip-46-40-204-30-0)" font-size="16px"><text x="47.5" y="61.5">id</text></g><path d="M 10 70 M 40 70 M 40 100 M 10 100" fill="none" stroke="rgb(0, 0, 0)" stroke-linecap="square" stroke-miterlimit="10" pointer-events="none"/><g fill="rgb(0, 0, 0)" font-family="Helvetica" pointer-events="none" clip-path="url(#mx-clip-10-70-30-30-0)" text-anchor="middle" font-size="16px"><text x="24.5" y="91.5">FK</text></g><path d="M 40 70 M 250 70 M 250 100 M 40 100" fill="none" stroke="rgb(0, 0, 0)" stroke-linecap="square" stroke-miterlimit="10" pointer-events="none"/><g fill="rgb(0, 0, 0)" font-family="Helvetica" pointer-events="none" clip-path="url(#mx-clip-46-70-204-30-0)" font-size="16px"><text x="47.5" y="91.5">lexicographicResourceID</text></g><path d="M 10 100 M 40 100 M 40 130 M 10 130" fill="none" stroke="rgb(0, 0, 0)" stroke-linecap="square" stroke-miterlimit="10" pointer-events="none"/><path d="M 40 100 M 250 100 M 250 130 M 40 130" fill="none" stroke="rgb(0, 0, 0)" stroke-linecap="square" stroke-miterlimit="10" pointer-events="none"/><g fill="rgb(0, 0, 0)" font-family="Helvetica" pointer-events="none" clip-path="url(#mx-clip-46-100-204-30-0)" font-size="16px"><text x="47.5" y="121.5">type</text></g><path d="M 10 130 M 40 130 M 40 160 M 10 160" fill="none" stroke="rgb(0, 0, 0)" stroke-linecap="square" stroke-miterlimit="10" pointer-events="none"/><path d="M 40 130 M 250 130 M 250 160 M 40 160" fill="none" stroke="rgb(0, 0, 0)" stroke-linecap="square" stroke-miterlimit="10" pointer-events="none"/><g fill="rgb(0, 0, 0)" font-family="Helvetica" pointer-events="none" clip-path="url(#mx-clip-46-130-204-30-0)" font-size="16px"><text x="47.5" y="151.5">description</text></g><path d="M 321 40 L 321 10 L 561 10 L 561 40" fill="rgb(255, 255, 255)" stroke="rgb(0, 0, 0)" stroke-miterlimit="10" pointer-events="none"/><path d="M 321 40 L 321 140 L 561 140 L 561 40" fill="none" stroke="rgb(0, 0, 0)" stroke-miterlimit="10" pointer-events="none"/><path d="M 321 40 L 561 40" fill="none" stroke="rgb(0, 0, 0)" stroke-miterlimit="10" pointer-events="none"/><path d="M 351 40 L 351 70 L 351 100 L 351 130" fill="none" stroke="rgb(0, 0, 0)" stroke-miterlimit="10" pointer-events="none"/><g fill="rgb(0, 0, 0)" font-family="Helvetica" font-weight="bold" pointer-events="none" text-anchor="middle" font-size="16px"><text x="440.5" y="31.5">members</text></g><path d="M 321 40 M 561 40 M 561 70 L 321 70" fill="none" stroke="rgb(0, 0, 0)" stroke-linecap="square" stroke-miterlimit="10" pointer-events="none"/><path d="M 321 40 M 351 40 M 351 70 M 321 70" fill="none" stroke="rgb(0, 0, 0)" stroke-linecap="square" stroke-miterlimit="10" pointer-events="none"/><g fill="rgb(0, 0, 0)" font-family="Helvetica" font-weight="bold" pointer-events="none" clip-path="url(#mx-clip-321-40-30-30-0)" text-anchor="middle" font-size="16px"><text x="335.5" y="61.5">PK</text></g><path d="M 351 40 M 561 40 M 561 70 M 351 70" fill="none" stroke="rgb(0, 0, 0)" stroke-linecap="square" stroke-miterlimit="10" pointer-events="none"/><g fill="rgb(0, 0, 0)" font-family="Helvetica" font-weight="bold" text-decoration="underline" pointer-events="none" clip-path="url(#mx-clip-357-40-204-30-0)" font-size="16px"><text x="358.5" y="61.5">id</text></g><path d="M 321 70 M 351 70 M 351 100 M 321 100" fill="none" stroke="rgb(0, 0, 0)" stroke-linecap="square" stroke-miterlimit="10" pointer-events="none"/><g fill="rgb(0, 0, 0)" font-family="Helvetica" pointer-events="none" clip-path="url(#mx-clip-321-70-30-30-0)" text-anchor="middle" font-size="16px"><text x="335.5" y="91.5">FK</text></g><path d="M 351 70 M 561 70 M 561 100 M 351 100" fill="none" stroke="rgb(0, 0, 0)" stroke-linecap="square" stroke-miterlimit="10" pointer-events="none"/><g fill="rgb(0, 0, 0)" font-family="Helvetica" pointer-events="none" clip-path="url(#mx-clip-357-70-204-30-0)" font-size="16px"><text x="358.5" y="91.5">relationID</text></g><path d="M 321 100 M 351 100 M 351 130 M 321 130" fill="none" stroke="rgb(0, 0, 0)" stroke-linecap="square" stroke-miterlimit="10" pointer-events="none"/><path d="M 351 100 M 561 100 M 561 130 M 351 130" fill="none" stroke="rgb(0, 0, 0)" stroke-linecap="square" stroke-miterlimit="10" pointer-events="none"/><g fill="rgb(0, 0, 0)" font-family="Helvetica" pointer-events="none" clip-path="url(#mx-clip-357-100-204-30-0)" font-size="16px"><text x="358.5" y="121.5">...</text></g><path d="M 250 55 L 275.5 55 Q 285.5 55 285.5 65 L 285.5 75 Q 285.5 85 291.5 85 L 297.5 85" fill="none" stroke="rgb(0, 0, 0)" stroke-miterlimit="10" pointer-events="none"/><path d="M 256 49 L 256 61" fill="none" stroke="rgb(0, 0, 0)" stroke-miterlimit="10" pointer-events="none"/><ellipse cx="303" cy="85" rx="5" ry="5" fill="none" stroke="rgb(0, 0, 0)" pointer-events="none"/><path d="M 321 79 L 309 85 L 321 91 M 309 85 L 321 85" fill="none" stroke="rgb(0, 0, 0)" stroke-miterlimit="10" pointer-events="none"/></g></svg>