<?xml version="1.0" encoding="UTF-8"?>
<!DOCTYPE svg PUBLIC "-//W3C//DTD SVG 1.1//EN" "http://www.w3.org/Graphics/SVG/1.1/DTD/svg11.dtd">
<svg xmlns="http://www.w3.org/2000/svg" xmlns:xlink="http://www.w3.org/1999/xlink" version="1.1" width="881px" height="301px" viewBox="-0.5 -0.5 881 301" style="background-color: rgb(255, 255, 255);"><defs><clipPath id="mx-clip-10-40-30-30-0"><rect x="10" y="40" width="30" height="30"/></clipPath><clipPath id="mx-clip-46-40-204-30-0"><rect x="46" y="40" width="204" height="30"/></clipPath><clipPath id="mx-clip-10-70-30-30-0"><rect x="10" y="70" width="30" height="30"/></clipPath><clipPath id="mx-clip-46-70-204-30-0"><rect x="46" y="70" width="204" height="30"/></clipPath><clipPath id="mx-clip-46-100-204-30-0"><rect x="46" y="100" width="204" height="30"/></clipPath><clipPath id="mx-clip-46-130-204-30-0"><rect x="46" y="130" width="204" height="30"/></clipPath><clipPath id="mx-clip-320-40-30-30-0"><rect x="320" y="40" width="30" height="30"/></clipPath><clipPath id="mx-clip-356-40-204-30-0"><rect x="356" y="40" width="204" height="30"/></clipPath><clipPath id="mx-clip-320-70-30-30-0"><rect x="320" y="70" width="30" height="30"/></clipPath><clipPath id="mx-clip-356-70-204-30-0"><rect x="356" y="70" width="204" height="30"/></clipPath><clipPath id="mx-clip-356-100-204-30-0"><rect x="356" y="100" width="204" height="30"/></clipPath><clipPath id="mx-clip-320-190-30-30-0"><rect x="320" y="190" width="30" height="30"/></clipPath><clipPath id="mx-clip-356-190-204-30-0"><rect x="356" y="190" width="204" height="30"/></clipPath><clipPath id="mx-clip-320-220-30-30-0"><rect x="320" y="220" width="30" height="30"/></clipPath><clipPath id="mx-clip-356-220-204-30-0"><rect x="356" y="220" width="204" height="30"/></clipPath><clipPath id="mx-clip-356-250-204-30-0"><rect x="356" y="250" width="204" height="30"/></clipPath><style type="text/css">@import url(https://fonts.googleapis.com/css?family=Permanent+Marker);&#xa;</style></defs><g><rect x="0" y="0" width="880" height="300" fill="rgb(255, 255, 255)" stroke="#cccccc" pointer-events="all"/><path d="M 10 40 L 10 10 L 250 10 L 250 40" fill="rgb(255, 255, 255)" stroke="rgb(0, 0, 0)" stroke-miterlimit="10" pointer-events="all"/><path d="M 10 40 L 10 170 L 250 170 L 250 40" fill="none" stroke="rgb(0, 0, 0)" stroke-miterlimit="10" pointer-events="none"/><path d="M 10 40 L 250 40" fill="none" stroke="rgb(0, 0, 0)" stroke-miterlimit="10" pointer-events="none"/><path d="M 40 40 L 40 70 L 40 100 L 40 130 L 40 160" fill="none" stroke="rgb(0, 0, 0)" stroke-miterlimit="10" pointer-events="none"/><g fill="rgb(0, 0, 0)" font-family="Helvetica" font-weight="bold" pointer-events="none" text-anchor="middle" font-size="16px"><text x="129.5" y="31.5">relationTypeTags</text></g><path d="M 10 40 M 250 40 M 250 70 L 10 70" fill="none" stroke="rgb(0, 0, 0)" stroke-linecap="square" stroke-miterlimit="10" pointer-events="none"/><path d="M 10 40 M 40 40 M 40 70 M 10 70" fill="none" stroke="rgb(0, 0, 0)" stroke-linecap="square" stroke-miterlimit="10" pointer-events="none"/><g fill="rgb(0, 0, 0)" font-family="Helvetica" font-weight="bold" pointer-events="none" clip-path="url(#mx-clip-10-40-30-30-0)" text-anchor="middle" font-size="16px"><text x="24.5" y="61.5">PK</text></g><path d="M 40 40 M 250 40 M 250 70 M 40 70" fill="none" stroke="rgb(0, 0, 0)" stroke-linecap="square" stroke-miterlimit="10" pointer-events="none"/><g fill="rgb(0, 0, 0)" font-family="Helvetica" font-weight="bold" text-decoration="underline" pointer-events="none" clip-path="url(#mx-clip-46-40-204-30-0)" font-size="16px"><text x="47.5" y="61.5">id</text></g><path d="M 10 70 M 40 70 M 40 100 M 10 100" fill="none" stroke="rgb(0, 0, 0)" stroke-linecap="square" stroke-miterlimit="10" pointer-events="none"/><g fill="rgb(0, 0, 0)" font-family="Helvetica" pointer-events="none" clip-path="url(#mx-clip-10-70-30-30-0)" text-anchor="middle" font-size="16px"><text x="24.5" y="91.5">FK</text></g><path d="M 40 70 M 250 70 M 250 100 M 40 100" fill="none" stroke="rgb(0, 0, 0)" stroke-linecap="square" stroke-miterlimit="10" pointer-events="none"/><g fill="rgb(0, 0, 0)" font-family="Helvetica" pointer-events="none" clip-path="url(#mx-clip-46-70-204-30-0)" font-size="16px"><text x="47.5" y="91.5">lexicographicResourceID</text></g><path d="M 10 100 M 40 100 M 40 130 M 10 130" fill="none" stroke="rgb(0, 0, 0)" stroke-linecap="square" stroke-miterlimit="10" pointer-events="none"/><path d="M 40 100 M 250 100 M 250 130 M 40 130" fill="none" stroke="rgb(0, 0, 0)" stroke-linecap="square" stroke-miterlimit="10" pointer-events="none"/><g fill="rgb(0, 0, 0)" font-family="Helvetica" pointer-events="none" clip-path="url(#mx-clip-46-100-204-30-0)" font-size="16px"><text x="47.5" y="121.5">tag</text></g><path d="M 10 130 M 40 130 M 40 160 M 10 160" fill="none" stroke="rgb(0, 0, 0)" stroke-linecap="square" stroke-miterlimit="10" pointer-events="none"/><path d="M 40 130 M 250 130 M 250 160 M 40 160" fill="none" stroke="rgb(0, 0, 0)" stroke-linecap="square" stroke-miterlimit="10" pointer-events="none"/><g fill="rgb(0, 0, 0)" font-family="Helvetica" pointer-events="none" clip-path="url(#mx-clip-46-130-204-30-0)" font-size="16px"><text x="47.5" y="151.5">scope</text></g><path d="M 320 40 L 320 10 L 560 10 L 560 40" fill="rgb(255, 255, 255)" stroke="rgb(0, 0, 0)" stroke-miterlimit="10" pointer-events="none"/><path d="M 320 40 L 320 140 L 560 140 L 560 40" fill="none" stroke="rgb(0, 0, 0)" stroke-miterlimit="10" pointer-events="none"/><path d="M 320 40 L 560 40" fill="none" stroke="rgb(0, 0, 0)" stroke-miterlimit="10" pointer-events="none"/><path d="M 350 40 L 350 70 L 350 100 L 350 130" fill="none" stroke="rgb(0, 0, 0)" stroke-miterlimit="10" pointer-events="none"/><g fill="rgb(0, 0, 0)" font-family="Helvetica" font-weight="bold" pointer-events="none" text-anchor="middle" font-size="16px"><text x="439.5" y="31.5">memberRoles</text></g><path d="M 320 40 M 560 40 M 560 70 L 320 70" fill="none" stroke="rgb(0, 0, 0)" stroke-linecap="square" stroke-miterlimit="10" pointer-events="none"/><path d="M 320 40 M 350 40 M 350 70 M 320 70" fill="none" stroke="rgb(0, 0, 0)" stroke-linecap="square" stroke-miterlimit="10" pointer-events="none"/><g fill="rgb(0, 0, 0)" font-family="Helvetica" font-weight="bold" pointer-events="none" clip-path="url(#mx-clip-320-40-30-30-0)" text-anchor="middle" font-size="16px"><text x="334.5" y="61.5">PK</text></g><path d="M 350 40 M 560 40 M 560 70 M 350 70" fill="none" stroke="rgb(0, 0, 0)" stroke-linecap="square" stroke-miterlimit="10" pointer-events="none"/><g fill="rgb(0, 0, 0)" font-family="Helvetica" font-weight="bold" text-decoration="underline" pointer-events="none" clip-path="url(#mx-clip-356-40-204-30-0)" font-size="16px"><text x="357.5" y="61.5">id</text></g><path d="M 320 70 M 350 70 M 350 100 M 320 100" fill="none" stroke="rgb(0, 0, 0)" stroke-linecap="square" stroke-miterlimit="10" pointer-events="none"/><g fill="rgb(0, 0, 0)" font-family="Helvetica" pointer-events="none" clip-path="url(#mx-clip-320-70-30-30-0)" text-anchor="middle" font-size="16px"><text x="334.5" y="91.5">FK</text></g><path d="M 350 70 M 560 70 M 560 100 M 350 100" fill="none" stroke="rgb(0, 0, 0)" stroke-linecap="square" stroke-miterlimit="10" pointer-events="none"/><g fill="rgb(0, 0, 0)" font-family="Helvetica" pointer-events="none" clip-path="url(#mx-clip-356-70-204-30-0)" font-size="16px"><text x="357.5" y="91.5">relationTypeID</text></g><path d="M 320 100 M 350 100 M 350 130 M 320 130" fill="none" stroke="rgb(0, 0, 0)" stroke-linecap="square" stroke-miterlimit="10" pointer-events="none"/><path d="M 350 100 M 560 100 M 560 130 M 350 130" fill="none" stroke="rgb(0, 0, 0)" stroke-linecap="square" stroke-miterlimit="10" pointer-events="none"/><g fill="rgb(0, 0, 0)" font-family="Helvetica" pointer-events="none" clip-path="url(#mx-clip-356-100-204-30-0)" font-size="16px"><text x="357.5" y="121.5">...</text></g><path d="M 250 55 L 275 55 Q 285 55 285 65 L 285 75 Q 285 85 290.75 85 L 296.5 85" fill="none" stroke="rgb(0, 0, 0)" stroke-miterlimit="10" pointer-events="none"/><path d="M 256 49 L 256 61" fill="none" stroke="rgb(0, 0, 0)" stroke-miterlimit="10" pointer-events="none"/><ellipse cx="302" cy="85" rx="5" ry="5" fill="none" stroke="rgb(0, 0, 0)" pointer-events="none"/><path d="M 320 79 L 308 85 L 320 91 M 308 85 L 320 85" fill="none" stroke="rgb(0, 0, 0)" stroke-miterlimit="10" pointer-events="none"/><path d="M 320 190 L 320 160 L 560 160 L 560 190" fill="rgb(255, 255, 255)" stroke="rgb(0, 0, 0)" stroke-miterlimit="10" pointer-events="none"/><path d="M 320 190 L 320 290 L 560 290 L 560 190" fill="none" stroke="rgb(0, 0, 0)" stroke-miterlimit="10" pointer-events="none"/><path d="M 320 190 L 560 190" fill="none" stroke="rgb(0, 0, 0)" stroke-miterlimit="10" pointer-events="none"/><path d="M 350 190 L 350 220 L 350 250 L 350 280" fill="none" stroke="rgb(0, 0, 0)" stroke-miterlimit="10" pointer-events="none"/><g fill="rgb(0, 0, 0)" font-family="Helvetica" font-weight="bold" pointer-events="none" text-anchor="middle" font-size="16px"><text x="439.5" y="181.5">sameAs</text></g><path d="M 320 190 M 560 190 M 560 220 L 320 220" fill="none" stroke="rgb(0, 0, 0)" stroke-linecap="square" stroke-miterlimit="10" pointer-events="none"/><path d="M 320 190 M 350 190 M 350 220 M 320 220" fill="none" stroke="rgb(0, 0, 0)" stroke-linecap="square" stroke-miterlimit="10" pointer-events="none"/><g fill="rgb(0, 0, 0)" font-family="Helvetica" font-weight="bold" pointer-events="none" clip-path="url(#mx-clip-320-190-30-30-0)" text-anchor="middle" font-size="16px"><text x="334.5" y="211.5">PK</text></g><path d="M 350 190 M 560 190 M 560 220 M 350 220" fill="none" stroke="rgb(0, 0, 0)" stroke-linecap="square" stroke-miterlimit="10" pointer-events="none"/><g fill="rgb(0, 0, 0)" font-family="Helvetica" font-weight="bold" text-decoration="underline" pointer-events="none" clip-path="url(#mx-clip-356-190-204-30-0)" font-size="16px"><text x="357.5" y="211.5">id</text></g><path d="M 320 220 M 350 220 M 350 250 M 320 250" fill="none" stroke="rgb(0, 0, 0)" stroke-linecap="square" stroke-miterlimit="10" pointer-events="none"/><g fill="rgb(0, 0, 0)" font-family="Helvetica" pointer-events="none" clip-path="url(#mx-clip-320-220-30-30-0)" text-anchor="middle" font-size="16px"><text x="334.5" y="241.5">FK</text></g><path d="M 350 220 M 560 220 M 560 250 M 350 250" fill="none" stroke="rgb(0, 0, 0)" stroke-linecap="square" stroke-miterlimit="10" pointer-events="none"/><g fill="rgb(0, 0, 0)" font-family="Helvetica" pointer-events="none" clip-path="url(#mx-clip-356-220-204-30-0)" font-size="16px"><text x="357.5" y="241.5">relationTypeID</text></g><path d="M 320 250 M 350 250 M 350 280 M 320 280" fill="none" stroke="rgb(0, 0, 0)" stroke-linecap="square" stroke-miterlimit="10" pointer-events="none"/><path d="M 350 250 M 560 250 M 560 280 M 350 280" fill="none" stroke="rgb(0, 0, 0)" stroke-linecap="square" stroke-miterlimit="10" pointer-events="none"/><g fill="rgb(0, 0, 0)" font-family="Helvetica" pointer-events="none" clip-path="url(#mx-clip-356-250-204-30-0)" font-size="16px"><text x="357.5" y="271.5">...</text></g><path d="M 250 55 L 275 55 Q 285 55 285 65 L 285 225 Q 285 235 290.75 235 L 296.5 235" fill="none" stroke="rgb(0, 0, 0)" stroke-miterlimit="10" pointer-events="none"/><path d="M 256 49 L 256 61" fill="none" stroke="rgb(0, 0, 0)" stroke-miterlimit="10" pointer-events="none"/><ellipse cx="302" cy="235" rx="5" ry="5" fill="none" stroke="rgb(0, 0, 0)" pointer-events="none"/><path d="M 320 229 L 308 235 L 320 241 M 308 235 L 320 235" fill="none" stroke="rgb(0, 0, 0)" stroke-miterlimit="10" pointer-events="none"/></g></svg>