<?xml version="1.0" encoding="UTF-8"?>
<!DOCTYPE svg PUBLIC "-//W3C//DTD SVG 1.1//EN" "http://www.w3.org/Graphics/SVG/1.1/DTD/svg11.dtd">
<svg xmlns="http://www.w3.org/2000/svg" xmlns:xlink="http://www.w3.org/1999/xlink" version="1.1" width="996px" height="881px" viewBox="-0.5 -0.5 996 881" style="background-color: rgb(255, 255, 255);"><defs><clipPath id="mx-clip-62-210-30-30-0"><rect x="62" y="210" width="30" height="30"/></clipPath><clipPath id="mx-clip-98-210-204-30-0"><rect x="98" y="210" width="204" height="30"/></clipPath><clipPath id="mx-clip-62-240-30-30-0"><rect x="62" y="240" width="30" height="30"/></clipPath><clipPath id="mx-clip-98-240-204-30-0"><rect x="98" y="240" width="204" height="30"/></clipPath><clipPath id="mx-clip-98-270-204-30-0"><rect x="98" y="270" width="204" height="30"/></clipPath><clipPath id="mx-clip-98-300-204-30-0"><rect x="98" y="300" width="204" height="30"/></clipPath><clipPath id="mx-clip-422-30-30-30-0"><rect x="422" y="30" width="30" height="30"/></clipPath><clipPath id="mx-clip-458-30-204-30-0"><rect x="458" y="30" width="204" height="30"/></clipPath><clipPath id="mx-clip-458-60-204-30-0"><rect x="458" y="60" width="204" height="30"/></clipPath><clipPath id="mx-clip-458-90-204-30-0"><rect x="458" y="90" width="204" height="30"/></clipPath><clipPath id="mx-clip-458-120-204-30-0"><rect x="458" y="120" width="204" height="30"/></clipPath><clipPath id="mx-clip-62-30-30-30-0"><rect x="62" y="30" width="30" height="30"/></clipPath><clipPath id="mx-clip-98-30-204-30-0"><rect x="98" y="30" width="204" height="30"/></clipPath><clipPath id="mx-clip-62-60-30-30-0"><rect x="62" y="60" width="30" height="30"/></clipPath><clipPath id="mx-clip-98-60-204-30-0"><rect x="98" y="60" width="204" height="30"/></clipPath><clipPath id="mx-clip-98-90-204-30-0"><rect x="98" y="90" width="204" height="30"/></clipPath><clipPath id="mx-clip-98-120-204-30-0"><rect x="98" y="120" width="204" height="30"/></clipPath><clipPath id="mx-clip-62-390-30-30-0"><rect x="62" y="390" width="30" height="30"/></clipPath><clipPath id="mx-clip-98-390-204-30-0"><rect x="98" y="390" width="204" height="30"/></clipPath><clipPath id="mx-clip-62-420-30-30-0"><rect x="62" y="420" width="30" height="30"/></clipPath><clipPath id="mx-clip-98-420-204-30-0"><rect x="98" y="420" width="204" height="30"/></clipPath><clipPath id="mx-clip-98-450-204-30-0"><rect x="98" y="450" width="204" height="30"/></clipPath><clipPath id="mx-clip-98-480-204-30-0"><rect x="98" y="480" width="204" height="30"/></clipPath><clipPath id="mx-clip-98-510-204-30-0"><rect x="98" y="510" width="204" height="30"/></clipPath><clipPath id="mx-clip-98-540-204-30-0"><rect x="98" y="540" width="204" height="30"/></clipPath><clipPath id="mx-clip-98-570-204-30-0"><rect x="98" y="570" width="204" height="30"/></clipPath><clipPath id="mx-clip-62-660-30-30-0"><rect x="62" y="660" width="30" height="30"/></clipPath><clipPath id="mx-clip-98-660-204-30-0"><rect x="98" y="660" width="204" height="30"/></clipPath><clipPath id="mx-clip-62-690-30-30-0"><rect x="62" y="690" width="30" height="30"/></clipPath><clipPath id="mx-clip-98-690-204-30-0"><rect x="98" y="690" width="204" height="30"/></clipPath><clipPath id="mx-clip-98-720-204-30-0"><rect x="98" y="720" width="204" height="30"/></clipPath><clipPath id="mx-clip-98-750-204-30-0"><rect x="98" y="750" width="204" height="30"/></clipPath><clipPath id="mx-clip-98-780-204-30-0"><rect x="98" y="780" width="204" height="30"/></clipPath><clipPath id="mx-clip-98-810-204-30-0"><rect x="98" y="810" width="204" height="30"/></clipPath><clipPath id="mx-clip-98-840-204-30-0"><rect x="98" y="840" width="204" height="30"/></clipPath><clipPath id="mx-clip-702-780-30-30-0"><rect x="702" y="780" width="30" height="30"/></clipPath><clipPath id="mx-clip-738-780-204-30-0"><rect x="738" y="780" width="204" height="30"/></clipPath><clipPath id="mx-clip-702-810-30-30-0"><rect x="702" y="810" width="30" height="30"/></clipPath><clipPath id="mx-clip-738-810-204-30-0"><rect x="738" y="810" width="204" height="30"/></clipPath><clipPath id="mx-clip-738-840-204-30-0"><rect x="738" y="840" width="204" height="30"/></clipPath><clipPath id="mx-clip-702-380-30-30-0"><rect x="702" y="380" width="30" height="30"/></clipPath><clipPath id="mx-clip-738-380-204-30-0"><rect x="738" y="380" width="204" height="30"/></clipPath><clipPath id="mx-clip-702-410-30-30-0"><rect x="702" y="410" width="30" height="30"/></clipPath><clipPath id="mx-clip-738-410-204-30-0"><rect x="738" y="410" width="204" height="30"/></clipPath><clipPath id="mx-clip-738-440-204-30-0"><rect x="738" y="440" width="204" height="30"/></clipPath><clipPath id="mx-clip-422-510-30-30-0"><rect x="422" y="510" width="30" height="30"/></clipPath><clipPath id="mx-clip-458-510-204-30-0"><rect x="458" y="510" width="204" height="30"/></clipPath><clipPath id="mx-clip-422-540-30-30-0"><rect x="422" y="540" width="30" height="30"/></clipPath><clipPath id="mx-clip-458-540-204-30-0"><rect x="458" y="540" width="204" height="30"/></clipPath><clipPath id="mx-clip-422-570-30-30-0"><rect x="422" y="570" width="30" height="30"/></clipPath><clipPath id="mx-clip-458-570-204-30-0"><rect x="458" y="570" width="204" height="30"/></clipPath><clipPath id="mx-clip-422-600-30-30-0"><rect x="422" y="600" width="30" height="30"/></clipPath><clipPath id="mx-clip-458-600-204-30-0"><rect x="458" y="600" width="204" height="30"/></clipPath><clipPath id="mx-clip-458-630-204-30-0"><rect x="458" y="630" width="204" height="30"/></clipPath><clipPath id="mx-clip-458-660-204-30-0"><rect x="458" y="660" width="204" height="30"/></clipPath><style type="text/css">@import url(https://fonts.googleapis.com/css?family=Permanent+Marker);&#xa;</style></defs><g><path d="M 62 210 L 62 180 L 302 180 L 302 210" fill="rgb(255, 255, 255)" stroke="rgb(0, 0, 0)" stroke-miterlimit="10" pointer-events="all"/><path d="M 62 210 L 62 340 L 302 340 L 302 210" fill="none" stroke="rgb(0, 0, 0)" stroke-miterlimit="10" pointer-events="none"/><path d="M 62 210 L 302 210" fill="none" stroke="rgb(0, 0, 0)" stroke-miterlimit="10" pointer-events="none"/><path d="M 92 210 L 92 240 L 92 270 L 92 300 L 92 330" fill="none" stroke="rgb(0, 0, 0)" stroke-miterlimit="10" pointer-events="none"/><g fill="rgb(0, 0, 0)" font-family="Helvetica" font-weight="bold" pointer-events="none" text-anchor="middle" font-size="16px"><text x="181.5" y="201.5">etymologies</text></g><path d="M 62 210 M 302 210 M 302 240 L 62 240" fill="none" stroke="rgb(0, 0, 0)" stroke-linecap="square" stroke-miterlimit="10" pointer-events="none"/><path d="M 62 210 M 92 210 M 92 240 M 62 240" fill="none" stroke="rgb(0, 0, 0)" stroke-linecap="square" stroke-miterlimit="10" pointer-events="none"/><g fill="rgb(0, 0, 0)" font-family="Helvetica" font-weight="bold" pointer-events="none" clip-path="url(#mx-clip-62-210-30-30-0)" text-anchor="middle" font-size="16px"><text x="76.5" y="231.5">PK</text></g><path d="M 92 210 M 302 210 M 302 240 M 92 240" fill="none" stroke="rgb(0, 0, 0)" stroke-linecap="square" stroke-miterlimit="10" pointer-events="none"/><g fill="rgb(0, 0, 0)" font-family="Helvetica" font-weight="bold" text-decoration="underline" pointer-events="none" clip-path="url(#mx-clip-98-210-204-30-0)" font-size="16px"><text x="99.5" y="231.5">id</text></g><path d="M 62 240 M 92 240 M 92 270 M 62 270" fill="none" stroke="rgb(0, 0, 0)" stroke-linecap="square" stroke-miterlimit="10" pointer-events="none"/><g fill="rgb(0, 0, 0)" font-family="Helvetica" pointer-events="none" clip-path="url(#mx-clip-62-240-30-30-0)" text-anchor="middle" font-size="16px"><text x="76.5" y="261.5">FK</text></g><path d="M 92 240 M 302 240 M 302 270 M 92 270" fill="none" stroke="rgb(0, 0, 0)" stroke-linecap="square" stroke-miterlimit="10" pointer-events="none"/><g fill="rgb(0, 0, 0)" font-family="Helvetica" pointer-events="none" clip-path="url(#mx-clip-98-240-204-30-0)" font-size="16px"><text x="99.5" y="261.5">entryID</text></g><path d="M 62 270 M 92 270 M 92 300 M 62 300" fill="none" stroke="rgb(0, 0, 0)" stroke-linecap="square" stroke-miterlimit="10" pointer-events="none"/><path d="M 92 270 M 302 270 M 302 300 M 92 300" fill="none" stroke="rgb(0, 0, 0)" stroke-linecap="square" stroke-miterlimit="10" pointer-events="none"/><g fill="rgb(0, 0, 0)" font-family="Helvetica" pointer-events="none" clip-path="url(#mx-clip-98-270-204-30-0)" font-size="16px"><text x="99.5" y="291.5">description</text></g><path d="M 62 300 M 92 300 M 92 330 M 62 330" fill="none" stroke="rgb(0, 0, 0)" stroke-linecap="square" stroke-miterlimit="10" pointer-events="none"/><path d="M 92 300 M 302 300 M 302 330 M 92 330" fill="none" stroke="rgb(0, 0, 0)" stroke-linecap="square" stroke-miterlimit="10" pointer-events="none"/><g fill="rgb(0, 0, 0)" font-family="Helvetica" pointer-events="none" clip-path="url(#mx-clip-98-300-204-30-0)" font-size="16px"><text x="99.5" y="321.5">listingOrder</text></g><path d="M 422 30 L 422 0 L 662 0 L 662 30" fill="rgb(255, 255, 255)" stroke="#999999" stroke-miterlimit="10" pointer-events="none"/><path d="M 422 30 L 422 160 L 662 160 L 662 30" fill="none" stroke="#999999" stroke-miterlimit="10" pointer-events="none"/><path d="M 422 30 L 662 30" fill="none" stroke="#999999" stroke-miterlimit="10" pointer-events="none"/><path d="M 452 30 L 452 60 L 452 90 L 452 120 L 452 150" fill="none" stroke="#999999" stroke-miterlimit="10" pointer-events="none"/><g fill="#999999" font-family="Helvetica" font-weight="bold" pointer-events="none" text-anchor="middle" font-size="16px"><text x="541.5" y="21.5">lexicographicResources</text></g><path d="M 422 30 M 662 30 M 662 60 L 422 60" fill="none" stroke="#999999" stroke-linecap="square" stroke-miterlimit="10" pointer-events="none"/><path d="M 422 30 M 452 30 M 452 60 M 422 60" fill="none" stroke="#999999" stroke-linecap="square" stroke-miterlimit="10" pointer-events="none"/><g fill="#999999" font-family="Helvetica" font-weight="bold" pointer-events="none" clip-path="url(#mx-clip-422-30-30-30-0)" text-anchor="middle" font-size="16px"><text x="436.5" y="51.5">PK</text></g><path d="M 452 30 M 662 30 M 662 60 M 452 60" fill="none" stroke="#999999" stroke-linecap="square" stroke-miterlimit="10" pointer-events="none"/><g fill="#999999" font-family="Helvetica" font-weight="bold" text-decoration="underline" pointer-events="none" clip-path="url(#mx-clip-458-30-204-30-0)" font-size="16px"><text x="459.5" y="51.5">id</text></g><path d="M 422 60 M 452 60 M 452 90 M 422 90" fill="none" stroke="#999999" stroke-linecap="square" stroke-miterlimit="10" pointer-events="none"/><path d="M 452 60 M 662 60 M 662 90 M 452 90" fill="none" stroke="#999999" stroke-linecap="square" stroke-miterlimit="10" pointer-events="none"/><g fill="#999999" font-family="Helvetica" pointer-events="none" clip-path="url(#mx-clip-458-60-204-30-0)" font-size="16px"><text x="459.5" y="81.5">title</text></g><path d="M 422 90 M 452 90 M 452 120 M 422 120" fill="none" stroke="#999999" stroke-linecap="square" stroke-miterlimit="10" pointer-events="none"/><path d="M 452 90 M 662 90 M 662 120 M 452 120" fill="none" stroke="#999999" stroke-linecap="square" stroke-miterlimit="10" pointer-events="none"/><g fill="#999999" font-family="Helvetica" pointer-events="none" clip-path="url(#mx-clip-458-90-204-30-0)" font-size="16px"><text x="459.5" y="111.5">uri</text></g><path d="M 422 120 M 452 120 M 452 150 M 422 150" fill="none" stroke="#999999" stroke-linecap="square" stroke-miterlimit="10" pointer-events="none"/><path d="M 452 120 M 662 120 M 662 150 M 452 150" fill="none" stroke="#999999" stroke-linecap="square" stroke-miterlimit="10" pointer-events="none"/><g fill="#999999" font-family="Helvetica" pointer-events="none" clip-path="url(#mx-clip-458-120-204-30-0)" font-size="16px"><text x="459.5" y="141.5">language</text></g><path d="M 62 30 L 62 0 L 302 0 L 302 30" fill="rgb(255, 255, 255)" stroke="#999999" stroke-miterlimit="10" pointer-events="none"/><path d="M 62 30 L 62 160 L 302 160 L 302 30" fill="none" stroke="#999999" stroke-miterlimit="10" pointer-events="none"/><path d="M 62 30 L 302 30" fill="none" stroke="#999999" stroke-miterlimit="10" pointer-events="none"/><path d="M 92 30 L 92 60 L 92 90 L 92 120 L 92 150" fill="none" stroke="#999999" stroke-miterlimit="10" pointer-events="none"/><g fill="#999999" font-family="Helvetica" font-weight="bold" pointer-events="none" text-anchor="middle" font-size="16px"><text x="181.5" y="21.5">entries</text></g><path d="M 62 30 M 302 30 M 302 60 L 62 60" fill="none" stroke="#999999" stroke-linecap="square" stroke-miterlimit="10" pointer-events="none"/><path d="M 62 30 M 92 30 M 92 60 M 62 60" fill="none" stroke="#999999" stroke-linecap="square" stroke-miterlimit="10" pointer-events="none"/><g fill="#999999" font-family="Helvetica" font-weight="bold" pointer-events="none" clip-path="url(#mx-clip-62-30-30-30-0)" text-anchor="middle" font-size="16px"><text x="76.5" y="51.5">PK</text></g><path d="M 92 30 M 302 30 M 302 60 M 92 60" fill="none" stroke="#999999" stroke-linecap="square" stroke-miterlimit="10" pointer-events="none"/><g fill="#999999" font-family="Helvetica" font-weight="bold" text-decoration="underline" pointer-events="none" clip-path="url(#mx-clip-98-30-204-30-0)" font-size="16px"><text x="99.5" y="51.5">id</text></g><path d="M 62 60 M 92 60 M 92 90 M 62 90" fill="none" stroke="#999999" stroke-linecap="square" stroke-miterlimit="10" pointer-events="none"/><g fill="#999999" font-family="Helvetica" pointer-events="none" clip-path="url(#mx-clip-62-60-30-30-0)" text-anchor="middle" font-size="16px"><text x="76.5" y="81.5">FK</text></g><path d="M 92 60 M 302 60 M 302 90 M 92 90" fill="none" stroke="#999999" stroke-linecap="square" stroke-miterlimit="10" pointer-events="none"/><g fill="#999999" font-family="Helvetica" pointer-events="none" clip-path="url(#mx-clip-98-60-204-30-0)" font-size="16px"><text x="99.5" y="81.5">lexicographicResourceID</text></g><path d="M 62 90 M 92 90 M 92 120 M 62 120" fill="none" stroke="#999999" stroke-linecap="square" stroke-miterlimit="10" pointer-events="none"/><path d="M 92 90 M 302 90 M 302 120 M 92 120" fill="none" stroke="#999999" stroke-linecap="square" stroke-miterlimit="10" pointer-events="none"/><g fill="#999999" font-family="Helvetica" pointer-events="none" clip-path="url(#mx-clip-98-90-204-30-0)" font-size="16px"><text x="99.5" y="111.5">headword</text></g><path d="M 62 120 M 92 120 M 92 150 M 62 150" fill="none" stroke="#999999" stroke-linecap="square" stroke-miterlimit="10" pointer-events="none"/><path d="M 92 120 M 302 120 M 302 150 M 92 150" fill="none" stroke="#999999" stroke-linecap="square" stroke-miterlimit="10" pointer-events="none"/><g fill="#999999" font-family="Helvetica" pointer-events="none" clip-path="url(#mx-clip-98-120-204-30-0)" font-size="16px"><text x="99.5" y="141.5">homographNumber</text></g><path d="M 62 390 L 62 360 L 302 360 L 302 390" fill="rgb(255, 255, 255)" stroke="rgb(0, 0, 0)" stroke-miterlimit="10" pointer-events="none"/><path d="M 62 390 L 62 610 L 302 610 L 302 390" fill="none" stroke="rgb(0, 0, 0)" stroke-miterlimit="10" pointer-events="none"/><path d="M 62 390 L 302 390" fill="none" stroke="rgb(0, 0, 0)" stroke-miterlimit="10" pointer-events="none"/><path d="M 92 390 L 92 420 L 92 450 L 92 480 L 92 510 L 92 540 L 92 570 L 92 600" fill="none" stroke="rgb(0, 0, 0)" stroke-miterlimit="10" pointer-events="none"/><g fill="rgb(0, 0, 0)" font-family="Helvetica" font-weight="bold" pointer-events="none" text-anchor="middle" font-size="16px"><text x="181.5" y="381.5">etymons</text></g><path d="M 62 390 M 302 390 M 302 420 L 62 420" fill="none" stroke="rgb(0, 0, 0)" stroke-linecap="square" stroke-miterlimit="10" pointer-events="none"/><path d="M 62 390 M 92 390 M 92 420 M 62 420" fill="none" stroke="rgb(0, 0, 0)" stroke-linecap="square" stroke-miterlimit="10" pointer-events="none"/><g fill="rgb(0, 0, 0)" font-family="Helvetica" font-weight="bold" pointer-events="none" clip-path="url(#mx-clip-62-390-30-30-0)" text-anchor="middle" font-size="16px"><text x="76.5" y="411.5">PK</text></g><path d="M 92 390 M 302 390 M 302 420 M 92 420" fill="none" stroke="rgb(0, 0, 0)" stroke-linecap="square" stroke-miterlimit="10" pointer-events="none"/><g fill="rgb(0, 0, 0)" font-family="Helvetica" font-weight="bold" text-decoration="underline" pointer-events="none" clip-path="url(#mx-clip-98-390-204-30-0)" font-size="16px"><text x="99.5" y="411.5">id</text></g><path d="M 62 420 M 92 420 M 92 450 M 62 450" fill="none" stroke="rgb(0, 0, 0)" stroke-linecap="square" stroke-miterlimit="10" pointer-events="none"/><g fill="rgb(0, 0, 0)" font-family="Helvetica" pointer-events="none" clip-path="url(#mx-clip-62-420-30-30-0)" text-anchor="middle" font-size="16px"><text x="76.5" y="441.5">FK</text></g><path d="M 92 420 M 302 420 M 302 450 M 92 450" fill="none" stroke="rgb(0, 0, 0)" stroke-linecap="square" stroke-miterlimit="10" pointer-events="none"/><g fill="rgb(0, 0, 0)" font-family="Helvetica" pointer-events="none" clip-path="url(#mx-clip-98-420-204-30-0)" font-size="16px"><text x="99.5" y="441.5">etymologyID</text></g><path d="M 62 450 M 92 450 M 92 480 M 62 480" fill="none" stroke="rgb(0, 0, 0)" stroke-linecap="square" stroke-miterlimit="10" pointer-events="none"/><path d="M 92 450 M 302 450 M 302 480 M 92 480" fill="none" stroke="rgb(0, 0, 0)" stroke-linecap="square" stroke-miterlimit="10" pointer-events="none"/><g fill="rgb(0, 0, 0)" font-family="Helvetica" pointer-events="none" clip-path="url(#mx-clip-98-450-204-30-0)" font-size="16px"><text x="99.5" y="471.5">when</text></g><path d="M 62 480 M 92 480 M 92 510 M 62 510" fill="none" stroke="rgb(0, 0, 0)" stroke-linecap="square" stroke-miterlimit="10" pointer-events="none"/><path d="M 92 480 M 302 480 M 302 510 M 92 510" fill="none" stroke="rgb(0, 0, 0)" stroke-linecap="square" stroke-miterlimit="10" pointer-events="none"/><g fill="rgb(0, 0, 0)" font-family="Helvetica" pointer-events="none" clip-path="url(#mx-clip-98-480-204-30-0)" font-size="16px"><text x="99.5" y="501.5">type</text></g><path d="M 62 510 M 92 510 M 92 540 M 62 540" fill="none" stroke="rgb(0, 0, 0)" stroke-linecap="square" stroke-miterlimit="10" pointer-events="none"/><path d="M 92 510 M 302 510 M 302 540 M 92 540" fill="none" stroke="rgb(0, 0, 0)" stroke-linecap="square" stroke-miterlimit="10" pointer-events="none"/><g fill="rgb(0, 0, 0)" font-family="Helvetica" pointer-events="none" clip-path="url(#mx-clip-98-510-204-30-0)" font-size="16px"><text x="99.5" y="531.5">note</text></g><path d="M 62 540 M 92 540 M 92 570 M 62 570" fill="none" stroke="rgb(0, 0, 0)" stroke-linecap="square" stroke-miterlimit="10" pointer-events="none"/><path d="M 92 540 M 302 540 M 302 570 M 92 570" fill="none" stroke="rgb(0, 0, 0)" stroke-linecap="square" stroke-miterlimit="10" pointer-events="none"/><g fill="rgb(0, 0, 0)" font-family="Helvetica" pointer-events="none" clip-path="url(#mx-clip-98-540-204-30-0)" font-size="16px"><text x="99.5" y="561.5">translation</text></g><path d="M 62 570 M 92 570 M 92 600 M 62 600" fill="none" stroke="rgb(0, 0, 0)" stroke-linecap="square" stroke-miterlimit="10" pointer-events="none"/><path d="M 92 570 M 302 570 M 302 600 M 92 600" fill="none" stroke="rgb(0, 0, 0)" stroke-linecap="square" stroke-miterlimit="10" pointer-events="none"/><g fill="rgb(0, 0, 0)" font-family="Helvetica" pointer-events="none" clip-path="url(#mx-clip-98-570-204-30-0)" font-size="16px"><text x="99.5" y="591.5">listingOrder</text></g><path d="M 62 660 L 62 630 L 302 630 L 302 660" fill="rgb(255, 255, 255)" stroke="rgb(0, 0, 0)" stroke-miterlimit="10" pointer-events="none"/><path d="M 62 660 L 62 880 L 302 880 L 302 660" fill="none" stroke="rgb(0, 0, 0)" stroke-miterlimit="10" pointer-events="none"/><path d="M 62 660 L 302 660" fill="none" stroke="rgb(0, 0, 0)" stroke-miterlimit="10" pointer-events="none"/><path d="M 92 660 L 92 690 L 92 720 L 92 750 L 92 780 L 92 810 L 92 840 L 92 870" fill="none" stroke="rgb(0, 0, 0)" stroke-miterlimit="10" pointer-events="none"/><g fill="rgb(0, 0, 0)" font-family="Helvetica" font-weight="bold" pointer-events="none" text-anchor="middle" font-size="16px"><text x="181.5" y="651.5">etymonUnits</text></g><path d="M 62 660 M 302 660 M 302 690 L 62 690" fill="none" stroke="rgb(0, 0, 0)" stroke-linecap="square" stroke-miterlimit="10" pointer-events="none"/><path d="M 62 660 M 92 660 M 92 690 M 62 690" fill="none" stroke="rgb(0, 0, 0)" stroke-linecap="square" stroke-miterlimit="10" pointer-events="none"/><g fill="rgb(0, 0, 0)" font-family="Helvetica" font-weight="bold" pointer-events="none" clip-path="url(#mx-clip-62-660-30-30-0)" text-anchor="middle" font-size="16px"><text x="76.5" y="681.5">PK</text></g><path d="M 92 660 M 302 660 M 302 690 M 92 690" fill="none" stroke="rgb(0, 0, 0)" stroke-linecap="square" stroke-miterlimit="10" pointer-events="none"/><g fill="rgb(0, 0, 0)" font-family="Helvetica" font-weight="bold" text-decoration="underline" pointer-events="none" clip-path="url(#mx-clip-98-660-204-30-0)" font-size="16px"><text x="99.5" y="681.5">id</text></g><path d="M 62 690 M 92 690 M 92 720 M 62 720" fill="none" stroke="rgb(0, 0, 0)" stroke-linecap="square" stroke-miterlimit="10" pointer-events="none"/><g fill="rgb(0, 0, 0)" font-family="Helvetica" pointer-events="none" clip-path="url(#mx-clip-62-690-30-30-0)" text-anchor="middle" font-size="16px"><text x="76.5" y="711.5">FK</text></g><path d="M 92 690 M 302 690 M 302 720 M 92 720" fill="none" stroke="rgb(0, 0, 0)" stroke-linecap="square" stroke-miterlimit="10" pointer-events="none"/><g fill="rgb(0, 0, 0)" font-family="Helvetica" pointer-events="none" clip-path="url(#mx-clip-98-690-204-30-0)" font-size="16px"><text x="99.5" y="711.5">etymonID</text></g><path d="M 62 720 M 92 720 M 92 750 M 62 750" fill="none" stroke="rgb(0, 0, 0)" stroke-linecap="square" stroke-miterlimit="10" pointer-events="none"/><path d="M 92 720 M 302 720 M 302 750 M 92 750" fill="none" stroke="rgb(0, 0, 0)" stroke-linecap="square" stroke-miterlimit="10" pointer-events="none"/><g fill="rgb(0, 0, 0)" font-family="Helvetica" pointer-events="none" clip-path="url(#mx-clip-98-720-204-30-0)" font-size="16px"><text x="99.5" y="741.5">langCode</text></g><path d="M 62 750 M 92 750 M 92 780 M 62 780" fill="none" stroke="rgb(0, 0, 0)" stroke-linecap="square" stroke-miterlimit="10" pointer-events="none"/><path d="M 92 750 M 302 750 M 302 780 M 92 780" fill="none" stroke="rgb(0, 0, 0)" stroke-linecap="square" stroke-miterlimit="10" pointer-events="none"/><g fill="rgb(0, 0, 0)" font-family="Helvetica" pointer-events="none" clip-path="url(#mx-clip-98-750-204-30-0)" font-size="16px"><text x="99.5" y="771.5">text</text></g><path d="M 62 780 M 92 780 M 92 810 M 62 810" fill="none" stroke="rgb(0, 0, 0)" stroke-linecap="square" stroke-miterlimit="10" pointer-events="none"/><path d="M 92 780 M 302 780 M 302 810 M 92 810" fill="none" stroke="rgb(0, 0, 0)" stroke-linecap="square" stroke-miterlimit="10" pointer-events="none"/><g fill="rgb(0, 0, 0)" font-family="Helvetica" pointer-events="none" clip-path="url(#mx-clip-98-780-204-30-0)" font-size="16px"><text x="99.5" y="801.5">reconstructed</text></g><path d="M 62 810 M 92 810 M 92 840 M 62 840" fill="none" stroke="rgb(0, 0, 0)" stroke-linecap="square" stroke-miterlimit="10" pointer-events="none"/><path d="M 92 810 M 302 810 M 302 840 M 92 840" fill="none" stroke="rgb(0, 0, 0)" stroke-linecap="square" stroke-miterlimit="10" pointer-events="none"/><g fill="rgb(0, 0, 0)" font-family="Helvetica" pointer-events="none" clip-path="url(#mx-clip-98-810-204-30-0)" font-size="16px"><text x="99.5" y="831.5">translation</text></g><path d="M 62 840 M 92 840 M 92 870 M 62 870" fill="none" stroke="rgb(0, 0, 0)" stroke-linecap="square" stroke-miterlimit="10" pointer-events="none"/><path d="M 92 840 M 302 840 M 302 870 M 92 870" fill="none" stroke="rgb(0, 0, 0)" stroke-linecap="square" stroke-miterlimit="10" pointer-events="none"/><g fill="rgb(0, 0, 0)" font-family="Helvetica" pointer-events="none" clip-path="url(#mx-clip-98-840-204-30-0)" font-size="16px"><text x="99.5" y="861.5">listingOrder</text></g><path d="M 62 45 L 22 45 Q 12 45 12 55 L 12 245 Q 12 255 22 255 L 38.5 255" fill="none" stroke="rgb(0, 0, 0)" stroke-miterlimit="10" pointer-events="none"/><path d="M 56 51 L 56 39" fill="none" stroke="rgb(0, 0, 0)" stroke-miterlimit="10" pointer-events="none"/><ellipse cx="44" cy="255" rx="5" ry="5" fill="none" stroke="rgb(0, 0, 0)" pointer-events="none"/><path d="M 62 249 L 50 255 L 62 261 M 50 255 L 62 255" fill="none" stroke="rgb(0, 0, 0)" stroke-miterlimit="10" pointer-events="none"/><path d="M 62 225 L 32 225 Q 22 225 22 235 L 22 425 Q 22 435 30.25 435 L 38.5 435" fill="none" stroke="rgb(0, 0, 0)" stroke-miterlimit="10" pointer-events="none"/><path d="M 56 231 L 56 219" fill="none" stroke="rgb(0, 0, 0)" stroke-miterlimit="10" pointer-events="none"/><ellipse cx="44" cy="435" rx="5" ry="5" fill="none" stroke="rgb(0, 0, 0)" pointer-events="none"/><path d="M 62 429 L 50 435 L 62 441 M 50 435 L 62 435" fill="none" stroke="rgb(0, 0, 0)" stroke-miterlimit="10" pointer-events="none"/><path d="M 62 405 L 42 405 Q 32 405 32 415 L 32 695 Q 32 705 35.25 705 L 38.5 705" fill="none" stroke="rgb(0, 0, 0)" stroke-miterlimit="10" pointer-events="none"/><path d="M 56 411 L 56 399" fill="none" stroke="rgb(0, 0, 0)" stroke-miterlimit="10" pointer-events="none"/><ellipse cx="44" cy="705" rx="5" ry="5" fill="none" stroke="rgb(0, 0, 0)" pointer-events="none"/><path d="M 62 699 L 50 705 L 62 711 M 50 705 L 62 705" fill="none" stroke="rgb(0, 0, 0)" stroke-miterlimit="10" pointer-events="none"/><path d="M 702 780 L 702 750 L 942 750 L 942 780" fill="rgb(255, 255, 255)" stroke="rgb(0, 0, 0)" stroke-miterlimit="10" pointer-events="none"/><path d="M 702 780 L 702 880 L 942 880 L 942 780" fill="none" stroke="rgb(0, 0, 0)" stroke-miterlimit="10" pointer-events="none"/><path d="M 702 780 L 942 780" fill="none" stroke="rgb(0, 0, 0)" stroke-miterlimit="10" pointer-events="none"/><path d="M 732 780 L 732 810 L 732 840 L 732 870" fill="none" stroke="rgb(0, 0, 0)" stroke-miterlimit="10" pointer-events="none"/><g fill="rgb(0, 0, 0)" font-family="Helvetica" font-weight="bold" pointer-events="none" text-anchor="middle" font-size="16px"><text x="821.5" y="771.5">etymonLanguages</text></g><path d="M 702 780 M 942 780 M 942 810 L 702 810" fill="none" stroke="rgb(0, 0, 0)" stroke-linecap="square" stroke-miterlimit="10" pointer-events="none"/><path d="M 702 780 M 732 780 M 732 810 M 702 810" fill="none" stroke="rgb(0, 0, 0)" stroke-linecap="square" stroke-miterlimit="10" pointer-events="none"/><g fill="rgb(0, 0, 0)" font-family="Helvetica" font-weight="bold" pointer-events="none" clip-path="url(#mx-clip-702-780-30-30-0)" text-anchor="middle" font-size="16px"><text x="716.5" y="801.5">PK</text></g><path d="M 732 780 M 942 780 M 942 810 M 732 810" fill="none" stroke="rgb(0, 0, 0)" stroke-linecap="square" stroke-miterlimit="10" pointer-events="none"/><g fill="rgb(0, 0, 0)" font-family="Helvetica" font-weight="bold" text-decoration="underline" pointer-events="none" clip-path="url(#mx-clip-738-780-204-30-0)" font-size="16px"><text x="739.5" y="801.5">langCode</text></g><path d="M 702 810 M 732 810 M 732 840 M 702 840" fill="none" stroke="rgb(0, 0, 0)" stroke-linecap="square" stroke-miterlimit="10" pointer-events="none"/><g fill="rgb(0, 0, 0)" font-family="Helvetica" pointer-events="none" clip-path="url(#mx-clip-702-810-30-30-0)" text-anchor="middle" font-size="16px"><text x="716.5" y="831.5">FK</text></g><path d="M 732 810 M 942 810 M 942 840 M 732 840" fill="none" stroke="rgb(0, 0, 0)" stroke-linecap="square" stroke-miterlimit="10" pointer-events="none"/><g fill="rgb(0, 0, 0)" font-family="Helvetica" pointer-events="none" clip-path="url(#mx-clip-738-810-204-30-0)" font-size="16px"><text x="739.5" y="831.5">lexicographicResourceID</text></g><path d="M 702 840 M 732 840 M 732 870 M 702 870" fill="none" stroke="rgb(0, 0, 0)" stroke-linecap="square" stroke-miterlimit="10" pointer-events="none"/><path d="M 732 840 M 942 840 M 942 870 M 732 870" fill="none" stroke="rgb(0, 0, 0)" stroke-linecap="square" stroke-miterlimit="10" pointer-events="none"/><g fill="rgb(0, 0, 0)" font-family="Helvetica" pointer-events="none" clip-path="url(#mx-clip-738-840-204-30-0)" font-size="16px"><text x="739.5" y="861.5">displayName</text></g><path d="M 702 380 L 702 350 L 942 350 L 942 380" fill="rgb(255, 255, 255)" stroke="rgb(0, 0, 0)" stroke-miterlimit="10" pointer-events="none"/><path d="M 702 380 L 702 480 L 942 480 L 942 380" fill="none" stroke="rgb(0, 0, 0)" stroke-miterlimit="10" pointer-events="none"/><path d="M 702 380 L 942 380" fill="none" stroke="rgb(0, 0, 0)" stroke-miterlimit="10" pointer-events="none"/><path d="M 732 380 L 732 410 L 732 440 L 732 470" fill="none" stroke="rgb(0, 0, 0)" stroke-miterlimit="10" pointer-events="none"/><g fill="rgb(0, 0, 0)" font-family="Helvetica" font-weight="bold" pointer-events="none" text-anchor="middle" font-size="16px"><text x="821.5" y="371.5">etymonTypes</text></g><path d="M 702 380 M 942 380 M 942 410 L 702 410" fill="none" stroke="rgb(0, 0, 0)" stroke-linecap="square" stroke-miterlimit="10" pointer-events="none"/><path d="M 702 380 M 732 380 M 732 410 M 702 410" fill="none" stroke="rgb(0, 0, 0)" stroke-linecap="square" stroke-miterlimit="10" pointer-events="none"/><g fill="rgb(0, 0, 0)" font-family="Helvetica" font-weight="bold" pointer-events="none" clip-path="url(#mx-clip-702-380-30-30-0)" text-anchor="middle" font-size="16px"><text x="716.5" y="401.5">PK</text></g><path d="M 732 380 M 942 380 M 942 410 M 732 410" fill="none" stroke="rgb(0, 0, 0)" stroke-linecap="square" stroke-miterlimit="10" pointer-events="none"/><g fill="rgb(0, 0, 0)" font-family="Helvetica" font-weight="bold" text-decoration="underline" pointer-events="none" clip-path="url(#mx-clip-738-380-204-30-0)" font-size="16px"><text x="739.5" y="401.5">type</text></g><path d="M 702 410 M 732 410 M 732 440 M 702 440" fill="none" stroke="rgb(0, 0, 0)" stroke-linecap="square" stroke-miterlimit="10" pointer-events="none"/><g fill="rgb(0, 0, 0)" font-family="Helvetica" pointer-events="none" clip-path="url(#mx-clip-702-410-30-30-0)" text-anchor="middle" font-size="16px"><text x="716.5" y="431.5">FK</text></g><path d="M 732 410 M 942 410 M 942 440 M 732 440" fill="none" stroke="rgb(0, 0, 0)" stroke-linecap="square" stroke-miterlimit="10" pointer-events="none"/><g fill="rgb(0, 0, 0)" font-family="Helvetica" pointer-events="none" clip-path="url(#mx-clip-738-410-204-30-0)" font-size="16px"><text x="739.5" y="431.5">lexicographicResourceID</text></g><path d="M 702 440 M 732 440 M 732 470 M 702 470" fill="none" stroke="rgb(0, 0, 0)" stroke-linecap="square" stroke-miterlimit="10" pointer-events="none"/><path d="M 732 440 M 942 440 M 942 470 M 732 470" fill="none" stroke="rgb(0, 0, 0)" stroke-linecap="square" stroke-miterlimit="10" pointer-events="none"/><g fill="rgb(0, 0, 0)" font-family="Helvetica" pointer-events="none" clip-path="url(#mx-clip-738-440-204-30-0)" font-size="16px"><text x="739.5" y="461.5">description</text></g><path d="M 422 510 L 422 480 L 662 480 L 662 510" fill="rgb(255, 255, 255)" stroke="#999999" stroke-miterlimit="10" pointer-events="none"/><path d="M 422 510 L 422 700 L 662 700 L 662 510" fill="none" stroke="#999999" stroke-miterlimit="10" pointer-events="none"/><path d="M 422 510 L 662 510" fill="none" stroke="#999999" stroke-miterlimit="10" pointer-events="none"/><path d="M 452 510 L 452 540 L 452 570 L 452 600 L 452 630 L 452 660 L 452 690" fill="none" stroke="#999999" stroke-miterlimit="10" pointer-events="none"/><g fill="#999999" font-family="Helvetica" font-weight="bold" pointer-events="none" text-anchor="middle" font-size="16px"><text x="541.5" y="501.5">partsOfSpeech</text></g><path d="M 422 510 M 662 510 M 662 540 L 422 540" fill="none" stroke="#999999" stroke-linecap="square" stroke-miterlimit="10" pointer-events="none"/><path d="M 422 510 M 452 510 M 452 540 M 422 540" fill="none" stroke="#999999" stroke-linecap="square" stroke-miterlimit="10" pointer-events="none"/><g fill="#999999" font-family="Helvetica" font-weight="bold" pointer-events="none" clip-path="url(#mx-clip-422-510-30-30-0)" text-anchor="middle" font-size="16px"><text x="436.5" y="531.5">PK</text></g><path d="M 452 510 M 662 510 M 662 540 M 452 540" fill="none" stroke="#999999" stroke-linecap="square" stroke-miterlimit="10" pointer-events="none"/><g fill="#999999" font-family="Helvetica" font-weight="bold" text-decoration="underline" pointer-events="none" clip-path="url(#mx-clip-458-510-204-30-0)" font-size="16px"><text x="459.5" y="531.5">id</text></g><path d="M 422 540 M 452 540 M 452 570 M 422 570" fill="none" stroke="#999999" stroke-linecap="square" stroke-miterlimit="10" pointer-events="none"/><g fill="#999999" font-family="Helvetica" pointer-events="none" clip-path="url(#mx-clip-422-540-30-30-0)" text-anchor="middle" font-size="16px"><text x="436.5" y="561.5">FK</text></g><path d="M 452 540 M 662 540 M 662 570 M 452 570" fill="none" stroke="#999999" stroke-linecap="square" stroke-miterlimit="10" pointer-events="none"/><g fill="#999999" font-family="Helvetica" pointer-events="none" clip-path="url(#mx-clip-458-540-204-30-0)" font-size="16px"><text x="459.5" y="561.5">entryID</text></g><path d="M 422 570 M 452 570 M 452 600 M 422 600" fill="none" stroke="#999999" stroke-linecap="square" stroke-miterlimit="10" pointer-events="none"/><g fill="#999999" font-family="Helvetica" pointer-events="none" clip-path="url(#mx-clip-422-570-30-30-0)" text-anchor="middle" font-size="16px"><text x="436.5" y="591.5">FK</text></g><path d="M 452 570 M 662 570 M 662 600 M 452 600" fill="none" stroke="#999999" stroke-linecap="square" stroke-miterlimit="10" pointer-events="none"/><g fill="#999999" font-family="Helvetica" pointer-events="none" clip-path="url(#mx-clip-458-570-204-30-0)" font-size="16px"><text x="459.5" y="591.5">headwordTranslationID</text></g><path d="M 422 600 M 452 600 M 452 630 M 422 630" fill="none" stroke="#999999" stroke-linecap="square" stroke-miterlimit="10" pointer-events="none"/><g fill="#000000" font-family="Helvetica" pointer-events="none" clip-path="url(#mx-clip-422-600-30-30-0)" text-anchor="middle" font-size="16px"><text x="436.5" y="621.5">FK</text></g><path d="M 452 600 M 662 600 M 662 630 M 452 630" fill="none" stroke="#999999" stroke-linecap="square" stroke-miterlimit="10" pointer-events="none"/><g fill="#000000" font-family="Helvetica" pointer-events="none" clip-path="url(#mx-clip-458-600-204-30-0)" font-size="16px"><text x="459.5" y="621.5">etymonUnitID</text></g><path d="M 422 630 M 452 630 M 452 660 M 422 660" fill="none" stroke="#999999" stroke-linecap="square" stroke-miterlimit="10" pointer-events="none"/><path d="M 452 630 M 662 630 M 662 660 M 452 660" fill="none" stroke="#999999" stroke-linecap="square" stroke-miterlimit="10" pointer-events="none"/><g fill="#999999" font-family="Helvetica" pointer-events="none" clip-path="url(#mx-clip-458-630-204-30-0)" font-size="16px"><text x="459.5" y="651.5">tag</text></g><path d="M 422 660 M 452 660 M 452 690 M 422 690" fill="none" stroke="#999999" stroke-linecap="square" stroke-miterlimit="10" pointer-events="none"/><path d="M 452 660 M 662 660 M 662 690 M 452 690" fill="none" stroke="#999999" stroke-linecap="square" stroke-miterlimit="10" pointer-events="none"/><g fill="#999999" font-family="Helvetica" pointer-events="none" clip-path="url(#mx-clip-458-660-204-30-0)" font-size="16px"><text x="459.5" y="681.5">listingOrder</text></g><path d="M 652 580 L 647 580 Q 642 580 642 590 L 642 610 Q 642 620 637 620 L 634.5 620 Q 632 620 637 620 L 639.5 620 Q 642 620 642 630 L 642 650 Q 642 660 647 660 L 652 660" fill="none" stroke="#000000" stroke-miterlimit="10" transform="translate(642,0)scale(-1,1)translate(-642,0)" pointer-events="none"/><path d="M 662 45 L 972 45 Q 982 45 982 55 L 982 415 Q 982 425 973.75 425 L 965.5 425" fill="none" stroke="rgb(0, 0, 0)" stroke-miterlimit="10" pointer-events="none"/><path d="M 668 39 L 668 51" fill="none" stroke="rgb(0, 0, 0)" stroke-miterlimit="10" pointer-events="none"/><ellipse cx="960" cy="425" rx="5" ry="5" fill="none" stroke="rgb(0, 0, 0)" pointer-events="none"/><path d="M 942 431 L 954 425 L 942 419 M 954 425 L 942 425" fill="none" stroke="rgb(0, 0, 0)" stroke-miterlimit="10" pointer-events="none"/><path d="M 662 45 L 972 45 Q 982 45 982 55 L 982 815 Q 982 825 973.75 825 L 965.5 825" fill="none" stroke="rgb(0, 0, 0)" stroke-miterlimit="10" pointer-events="none"/><path d="M 668 39 L 668 51" fill="none" stroke="rgb(0, 0, 0)" stroke-miterlimit="10" pointer-events="none"/><ellipse cx="960" cy="825" rx="5" ry="5" fill="none" stroke="rgb(0, 0, 0)" pointer-events="none"/><path d="M 942 831 L 954 825 L 942 819 M 954 825 L 942 825" fill="none" stroke="rgb(0, 0, 0)" stroke-miterlimit="10" pointer-events="none"/><path d="M 678.5 395 L 372 395 Q 362 395 362 405 L 362 485 Q 362 495 352 495 L 325.5 495" fill="none" stroke="rgb(0, 0, 0)" stroke-miterlimit="10" pointer-events="none"/><ellipse cx="684" cy="395" rx="5" ry="5" fill="none" stroke="rgb(0, 0, 0)" pointer-events="none"/><path d="M 696 401 L 696 389 M 689.5 395 L 702 395" fill="none" stroke="rgb(0, 0, 0)" stroke-miterlimit="10" pointer-events="none"/><ellipse cx="320" cy="495" rx="5" ry="5" fill="none" stroke="rgb(0, 0, 0)" pointer-events="none"/><path d="M 302 501 L 314 495 L 302 489 M 314 495 L 302 495" fill="none" stroke="rgb(0, 0, 0)" stroke-miterlimit="10" pointer-events="none"/><path d="M 302 675 L 352 675 Q 362 675 362 665 L 362 625 Q 362 615 372 615 L 398.5 615" fill="none" stroke="rgb(0, 0, 0)" stroke-miterlimit="10" pointer-events="none"/><path d="M 308 669 L 308 681" fill="none" stroke="rgb(0, 0, 0)" stroke-miterlimit="10" pointer-events="none"/><ellipse cx="404" cy="615" rx="5" ry="5" fill="none" stroke="rgb(0, 0, 0)" pointer-events="none"/><path d="M 422 609 L 410 615 L 422 621 M 410 615 L 422 615" fill="none" stroke="rgb(0, 0, 0)" stroke-miterlimit="10" pointer-events="none"/><path d="M 702 795 L 372 795 Q 362 795 362 785 L 362 745 Q 362 735 352 735 L 325.5 735" fill="none" stroke="rgb(0, 0, 0)" stroke-miterlimit="10" pointer-events="none"/><path d="M 696 801 L 696 789" fill="none" stroke="rgb(0, 0, 0)" stroke-miterlimit="10" pointer-events="none"/><ellipse cx="320" cy="735" rx="5" ry="5" fill="none" stroke="rgb(0, 0, 0)" pointer-events="none"/><path d="M 302 741 L 314 735 L 302 729 M 314 735 L 302 735" fill="none" stroke="rgb(0, 0, 0)" stroke-miterlimit="10" pointer-events="none"/></g></svg>