<?xml version="1.0" encoding="UTF-8"?>
<!DOCTYPE svg PUBLIC "-//W3C//DTD SVG 1.1//EN" "http://www.w3.org/Graphics/SVG/1.1/DTD/svg11.dtd">
<svg xmlns="http://www.w3.org/2000/svg" xmlns:xlink="http://www.w3.org/1999/xlink" version="1.1" width="881px" height="381px" viewBox="-0.5 -0.5 881 381" style="background-color: rgb(255, 255, 255);"><defs><clipPath id="mx-clip-10-40-30-30-0"><rect x="10" y="40" width="30" height="30"/></clipPath><clipPath id="mx-clip-46-40-204-30-0"><rect x="46" y="40" width="204" height="30"/></clipPath><clipPath id="mx-clip-10-70-30-30-0"><rect x="10" y="70" width="30" height="30"/></clipPath><clipPath id="mx-clip-46-70-204-30-0"><rect x="46" y="70" width="204" height="30"/></clipPath><clipPath id="mx-clip-10-100-30-30-0"><rect x="10" y="100" width="30" height="30"/></clipPath><clipPath id="mx-clip-46-100-204-30-0"><rect x="46" y="100" width="204" height="30"/></clipPath><clipPath id="mx-clip-46-130-204-30-0"><rect x="46" y="130" width="204" height="30"/></clipPath><clipPath id="mx-clip-46-160-204-30-0"><rect x="46" y="160" width="204" height="30"/></clipPath><clipPath id="mx-clip-320-40-30-30-0"><rect x="320" y="40" width="30" height="30"/></clipPath><clipPath id="mx-clip-356-40-204-30-0"><rect x="356" y="40" width="204" height="30"/></clipPath><clipPath id="mx-clip-320-70-30-30-0"><rect x="320" y="70" width="30" height="30"/></clipPath><clipPath id="mx-clip-356-70-204-30-0"><rect x="356" y="70" width="204" height="30"/></clipPath><clipPath id="mx-clip-356-100-204-30-0"><rect x="356" y="100" width="204" height="30"/></clipPath><clipPath id="mx-clip-599-110-30-30-0"><rect x="599" y="110" width="30" height="30"/></clipPath><clipPath id="mx-clip-635-110-204-30-0"><rect x="635" y="110" width="204" height="30"/></clipPath><clipPath id="mx-clip-599-140-30-30-0"><rect x="599" y="140" width="30" height="30"/></clipPath><clipPath id="mx-clip-635-140-204-30-0"><rect x="635" y="140" width="204" height="30"/></clipPath><clipPath id="mx-clip-635-170-204-30-0"><rect x="635" y="170" width="204" height="30"/></clipPath><clipPath id="mx-clip-320-200-30-30-0"><rect x="320" y="200" width="30" height="30"/></clipPath><clipPath id="mx-clip-356-200-204-30-0"><rect x="356" y="200" width="204" height="30"/></clipPath><clipPath id="mx-clip-320-230-30-30-0"><rect x="320" y="230" width="30" height="30"/></clipPath><clipPath id="mx-clip-356-230-204-30-0"><rect x="356" y="230" width="204" height="30"/></clipPath><clipPath id="mx-clip-356-260-204-30-0"><rect x="356" y="260" width="204" height="30"/></clipPath><clipPath id="mx-clip-599-270-30-30-0"><rect x="599" y="270" width="30" height="30"/></clipPath><clipPath id="mx-clip-635-270-204-30-0"><rect x="635" y="270" width="204" height="30"/></clipPath><clipPath id="mx-clip-599-300-30-30-0"><rect x="599" y="300" width="30" height="30"/></clipPath><clipPath id="mx-clip-635-300-204-30-0"><rect x="635" y="300" width="204" height="30"/></clipPath><clipPath id="mx-clip-635-330-204-30-0"><rect x="635" y="330" width="204" height="30"/></clipPath><style type="text/css">@import url(https://fonts.googleapis.com/css?family=Permanent+Marker);&#xa;</style></defs><g><rect x="0" y="0" width="880" height="380" fill="rgb(255, 255, 255)" stroke="#cccccc" pointer-events="all"/><path d="M 10 40 L 10 10 L 250 10 L 250 40" fill="rgb(255, 255, 255)" stroke="rgb(0, 0, 0)" stroke-miterlimit="10" pointer-events="all"/><path d="M 10 40 L 10 200 L 250 200 L 250 40" fill="none" stroke="rgb(0, 0, 0)" stroke-miterlimit="10" pointer-events="none"/><path d="M 10 40 L 250 40" fill="none" stroke="rgb(0, 0, 0)" stroke-miterlimit="10" pointer-events="none"/><path d="M 40 40 L 40 70 L 40 100 L 40 130 L 40 160 L 40 190" fill="none" stroke="rgb(0, 0, 0)" stroke-miterlimit="10" pointer-events="none"/><g fill="rgb(0, 0, 0)" font-family="Helvetica" font-weight="bold" pointer-events="none" text-anchor="middle" font-size="16px"><text x="129.5" y="31.5">headwordTranslations</text></g><path d="M 10 40 M 250 40 M 250 70 L 10 70" fill="none" stroke="rgb(0, 0, 0)" stroke-linecap="square" stroke-miterlimit="10" pointer-events="none"/><path d="M 10 40 M 40 40 M 40 70 M 10 70" fill="none" stroke="rgb(0, 0, 0)" stroke-linecap="square" stroke-miterlimit="10" pointer-events="none"/><g fill="rgb(0, 0, 0)" font-family="Helvetica" font-weight="bold" pointer-events="none" clip-path="url(#mx-clip-10-40-30-30-0)" text-anchor="middle" font-size="16px"><text x="24.5" y="61.5">PK</text></g><path d="M 40 40 M 250 40 M 250 70 M 40 70" fill="none" stroke="rgb(0, 0, 0)" stroke-linecap="square" stroke-miterlimit="10" pointer-events="none"/><g fill="rgb(0, 0, 0)" font-family="Helvetica" font-weight="bold" text-decoration="underline" pointer-events="none" clip-path="url(#mx-clip-46-40-204-30-0)" font-size="16px"><text x="47.5" y="61.5">id</text></g><path d="M 10 70 M 40 70 M 40 100 M 10 100" fill="none" stroke="rgb(0, 0, 0)" stroke-linecap="square" stroke-miterlimit="10" pointer-events="none"/><g fill="rgb(0, 0, 0)" font-family="Helvetica" pointer-events="none" clip-path="url(#mx-clip-10-70-30-30-0)" text-anchor="middle" font-size="16px"><text x="24.5" y="91.5">FK</text></g><path d="M 40 70 M 250 70 M 250 100 M 40 100" fill="none" stroke="rgb(0, 0, 0)" stroke-linecap="square" stroke-miterlimit="10" pointer-events="none"/><g fill="rgb(0, 0, 0)" font-family="Helvetica" pointer-events="none" clip-path="url(#mx-clip-46-70-204-30-0)" font-size="16px"><text x="47.5" y="91.5">senseID</text></g><path d="M 10 100 M 40 100 M 40 130 M 10 130" fill="none" stroke="rgb(0, 0, 0)" stroke-linecap="square" stroke-miterlimit="10" pointer-events="none"/><g fill="rgb(0, 0, 0)" font-family="Helvetica" pointer-events="none" clip-path="url(#mx-clip-10-100-30-30-0)" text-anchor="middle" font-size="16px"><text x="24.5" y="121.5">FK</text></g><path d="M 40 100 M 250 100 M 250 130 M 40 130" fill="none" stroke="rgb(0, 0, 0)" stroke-linecap="square" stroke-miterlimit="10" pointer-events="none"/><g fill="rgb(0, 0, 0)" font-family="Helvetica" pointer-events="none" clip-path="url(#mx-clip-46-100-204-30-0)" font-size="16px"><text x="47.5" y="121.5">language</text></g><path d="M 10 130 M 40 130 M 40 160 M 10 160" fill="none" stroke="rgb(0, 0, 0)" stroke-linecap="square" stroke-miterlimit="10" pointer-events="none"/><path d="M 40 130 M 250 130 M 250 160 M 40 160" fill="none" stroke="rgb(0, 0, 0)" stroke-linecap="square" stroke-miterlimit="10" pointer-events="none"/><g fill="rgb(0, 0, 0)" font-family="Helvetica" pointer-events="none" clip-path="url(#mx-clip-46-130-204-30-0)" font-size="16px"><text x="47.5" y="151.5">text</text></g><path d="M 10 160 M 40 160 M 40 190 M 10 190" fill="none" stroke="rgb(0, 0, 0)" stroke-linecap="square" stroke-miterlimit="10" pointer-events="none"/><path d="M 40 160 M 250 160 M 250 190 M 40 190" fill="none" stroke="rgb(0, 0, 0)" stroke-linecap="square" stroke-miterlimit="10" pointer-events="none"/><g fill="rgb(0, 0, 0)" font-family="Helvetica" pointer-events="none" clip-path="url(#mx-clip-46-160-204-30-0)" font-size="16px"><text x="47.5" y="181.5">listingOrder</text></g><path d="M 320 40 L 320 10 L 560 10 L 560 40" fill="rgb(255, 255, 255)" stroke="rgb(0, 0, 0)" stroke-miterlimit="10" pointer-events="none"/><path d="M 320 40 L 320 140 L 560 140 L 560 40" fill="none" stroke="rgb(0, 0, 0)" stroke-miterlimit="10" pointer-events="none"/><path d="M 320 40 L 560 40" fill="none" stroke="rgb(0, 0, 0)" stroke-miterlimit="10" pointer-events="none"/><path d="M 350 40 L 350 70 L 350 100 L 350 130" fill="none" stroke="rgb(0, 0, 0)" stroke-miterlimit="10" pointer-events="none"/><g fill="rgb(0, 0, 0)" font-family="Helvetica" font-weight="bold" pointer-events="none" text-anchor="middle" font-size="16px"><text x="439.5" y="31.5">partsOfSpeech</text></g><path d="M 320 40 M 560 40 M 560 70 L 320 70" fill="none" stroke="rgb(0, 0, 0)" stroke-linecap="square" stroke-miterlimit="10" pointer-events="none"/><path d="M 320 40 M 350 40 M 350 70 M 320 70" fill="none" stroke="rgb(0, 0, 0)" stroke-linecap="square" stroke-miterlimit="10" pointer-events="none"/><g fill="rgb(0, 0, 0)" font-family="Helvetica" font-weight="bold" pointer-events="none" clip-path="url(#mx-clip-320-40-30-30-0)" text-anchor="middle" font-size="16px"><text x="334.5" y="61.5">PK</text></g><path d="M 350 40 M 560 40 M 560 70 M 350 70" fill="none" stroke="rgb(0, 0, 0)" stroke-linecap="square" stroke-miterlimit="10" pointer-events="none"/><g fill="rgb(0, 0, 0)" font-family="Helvetica" font-weight="bold" text-decoration="underline" pointer-events="none" clip-path="url(#mx-clip-356-40-204-30-0)" font-size="16px"><text x="357.5" y="61.5">id</text></g><path d="M 320 70 M 350 70 M 350 100 M 320 100" fill="none" stroke="rgb(0, 0, 0)" stroke-linecap="square" stroke-miterlimit="10" pointer-events="none"/><g fill="rgb(0, 0, 0)" font-family="Helvetica" pointer-events="none" clip-path="url(#mx-clip-320-70-30-30-0)" text-anchor="middle" font-size="16px"><text x="334.5" y="91.5">FK</text></g><path d="M 350 70 M 560 70 M 560 100 M 350 100" fill="none" stroke="rgb(0, 0, 0)" stroke-linecap="square" stroke-miterlimit="10" pointer-events="none"/><g fill="rgb(0, 0, 0)" font-family="Helvetica" pointer-events="none" clip-path="url(#mx-clip-356-70-204-30-0)" font-size="16px"><text x="357.5" y="91.5">headwordTranslationID</text></g><path d="M 320 100 M 350 100 M 350 130 M 320 130" fill="none" stroke="rgb(0, 0, 0)" stroke-linecap="square" stroke-miterlimit="10" pointer-events="none"/><path d="M 350 100 M 560 100 M 560 130 M 350 130" fill="none" stroke="rgb(0, 0, 0)" stroke-linecap="square" stroke-miterlimit="10" pointer-events="none"/><g fill="rgb(0, 0, 0)" font-family="Helvetica" pointer-events="none" clip-path="url(#mx-clip-356-100-204-30-0)" font-size="16px"><text x="357.5" y="121.5">...</text></g><path d="M 599 110 L 599 80 L 839 80 L 839 110" fill="rgb(255, 255, 255)" stroke="rgb(0, 0, 0)" stroke-miterlimit="10" pointer-events="none"/><path d="M 599 110 L 599 210 L 839 210 L 839 110" fill="none" stroke="rgb(0, 0, 0)" stroke-miterlimit="10" pointer-events="none"/><path d="M 599 110 L 839 110" fill="none" stroke="rgb(0, 0, 0)" stroke-miterlimit="10" pointer-events="none"/><path d="M 629 110 L 629 140 L 629 170 L 629 200" fill="none" stroke="rgb(0, 0, 0)" stroke-miterlimit="10" pointer-events="none"/><g fill="rgb(0, 0, 0)" font-family="Helvetica" font-weight="bold" pointer-events="none" text-anchor="middle" font-size="16px"><text x="718.5" y="101.5">labels</text></g><path d="M 599 110 M 839 110 M 839 140 L 599 140" fill="none" stroke="rgb(0, 0, 0)" stroke-linecap="square" stroke-miterlimit="10" pointer-events="none"/><path d="M 599 110 M 629 110 M 629 140 M 599 140" fill="none" stroke="rgb(0, 0, 0)" stroke-linecap="square" stroke-miterlimit="10" pointer-events="none"/><g fill="rgb(0, 0, 0)" font-family="Helvetica" font-weight="bold" pointer-events="none" clip-path="url(#mx-clip-599-110-30-30-0)" text-anchor="middle" font-size="16px"><text x="613.5" y="131.5">PK</text></g><path d="M 629 110 M 839 110 M 839 140 M 629 140" fill="none" stroke="rgb(0, 0, 0)" stroke-linecap="square" stroke-miterlimit="10" pointer-events="none"/><g fill="rgb(0, 0, 0)" font-family="Helvetica" font-weight="bold" text-decoration="underline" pointer-events="none" clip-path="url(#mx-clip-635-110-204-30-0)" font-size="16px"><text x="636.5" y="131.5">id</text></g><path d="M 599 140 M 629 140 M 629 170 M 599 170" fill="none" stroke="rgb(0, 0, 0)" stroke-linecap="square" stroke-miterlimit="10" pointer-events="none"/><g fill="rgb(0, 0, 0)" font-family="Helvetica" pointer-events="none" clip-path="url(#mx-clip-599-140-30-30-0)" text-anchor="middle" font-size="16px"><text x="613.5" y="161.5">FK</text></g><path d="M 629 140 M 839 140 M 839 170 M 629 170" fill="none" stroke="rgb(0, 0, 0)" stroke-linecap="square" stroke-miterlimit="10" pointer-events="none"/><g fill="rgb(0, 0, 0)" font-family="Helvetica" pointer-events="none" clip-path="url(#mx-clip-635-140-204-30-0)" font-size="16px"><text x="636.5" y="161.5">headwordTranslationID</text></g><path d="M 599 170 M 629 170 M 629 200 M 599 200" fill="none" stroke="rgb(0, 0, 0)" stroke-linecap="square" stroke-miterlimit="10" pointer-events="none"/><path d="M 629 170 M 839 170 M 839 200 M 629 200" fill="none" stroke="rgb(0, 0, 0)" stroke-linecap="square" stroke-miterlimit="10" pointer-events="none"/><g fill="rgb(0, 0, 0)" font-family="Helvetica" pointer-events="none" clip-path="url(#mx-clip-635-170-204-30-0)" font-size="16px"><text x="636.5" y="191.5">...</text></g><path d="M 320 200 L 320 170 L 560 170 L 560 200" fill="rgb(255, 255, 255)" stroke="rgb(0, 0, 0)" stroke-miterlimit="10" pointer-events="none"/><path d="M 320 200 L 320 300 L 560 300 L 560 200" fill="none" stroke="rgb(0, 0, 0)" stroke-miterlimit="10" pointer-events="none"/><path d="M 320 200 L 560 200" fill="none" stroke="rgb(0, 0, 0)" stroke-miterlimit="10" pointer-events="none"/><path d="M 350 200 L 350 230 L 350 260 L 350 290" fill="none" stroke="rgb(0, 0, 0)" stroke-miterlimit="10" pointer-events="none"/><g fill="rgb(0, 0, 0)" font-family="Helvetica" font-weight="bold" pointer-events="none" text-anchor="middle" font-size="16px"><text x="439.5" y="191.5">pronunciations</text></g><path d="M 320 200 M 560 200 M 560 230 L 320 230" fill="none" stroke="rgb(0, 0, 0)" stroke-linecap="square" stroke-miterlimit="10" pointer-events="none"/><path d="M 320 200 M 350 200 M 350 230 M 320 230" fill="none" stroke="rgb(0, 0, 0)" stroke-linecap="square" stroke-miterlimit="10" pointer-events="none"/><g fill="rgb(0, 0, 0)" font-family="Helvetica" font-weight="bold" pointer-events="none" clip-path="url(#mx-clip-320-200-30-30-0)" text-anchor="middle" font-size="16px"><text x="334.5" y="221.5">PK</text></g><path d="M 350 200 M 560 200 M 560 230 M 350 230" fill="none" stroke="rgb(0, 0, 0)" stroke-linecap="square" stroke-miterlimit="10" pointer-events="none"/><g fill="rgb(0, 0, 0)" font-family="Helvetica" font-weight="bold" text-decoration="underline" pointer-events="none" clip-path="url(#mx-clip-356-200-204-30-0)" font-size="16px"><text x="357.5" y="221.5">id</text></g><path d="M 320 230 M 350 230 M 350 260 M 320 260" fill="none" stroke="rgb(0, 0, 0)" stroke-linecap="square" stroke-miterlimit="10" pointer-events="none"/><g fill="rgb(0, 0, 0)" font-family="Helvetica" pointer-events="none" clip-path="url(#mx-clip-320-230-30-30-0)" text-anchor="middle" font-size="16px"><text x="334.5" y="251.5">FK</text></g><path d="M 350 230 M 560 230 M 560 260 M 350 260" fill="none" stroke="rgb(0, 0, 0)" stroke-linecap="square" stroke-miterlimit="10" pointer-events="none"/><g fill="rgb(0, 0, 0)" font-family="Helvetica" pointer-events="none" clip-path="url(#mx-clip-356-230-204-30-0)" font-size="16px"><text x="357.5" y="251.5">headwordTranslationID</text></g><path d="M 320 260 M 350 260 M 350 290 M 320 290" fill="none" stroke="rgb(0, 0, 0)" stroke-linecap="square" stroke-miterlimit="10" pointer-events="none"/><path d="M 350 260 M 560 260 M 560 290 M 350 290" fill="none" stroke="rgb(0, 0, 0)" stroke-linecap="square" stroke-miterlimit="10" pointer-events="none"/><g fill="rgb(0, 0, 0)" font-family="Helvetica" pointer-events="none" clip-path="url(#mx-clip-356-260-204-30-0)" font-size="16px"><text x="357.5" y="281.5">...</text></g><path d="M 599 270 L 599 240 L 839 240 L 839 270" fill="rgb(255, 255, 255)" stroke="rgb(0, 0, 0)" stroke-miterlimit="10" pointer-events="none"/><path d="M 599 270 L 599 370 L 839 370 L 839 270" fill="none" stroke="rgb(0, 0, 0)" stroke-miterlimit="10" pointer-events="none"/><path d="M 599 270 L 839 270" fill="none" stroke="rgb(0, 0, 0)" stroke-miterlimit="10" pointer-events="none"/><path d="M 629 270 L 629 300 L 629 330 L 629 360" fill="none" stroke="rgb(0, 0, 0)" stroke-miterlimit="10" pointer-events="none"/><g fill="rgb(0, 0, 0)" font-family="Helvetica" font-weight="bold" pointer-events="none" text-anchor="middle" font-size="16px"><text x="718.5" y="261.5">inflectedForms</text></g><path d="M 599 270 M 839 270 M 839 300 L 599 300" fill="none" stroke="rgb(0, 0, 0)" stroke-linecap="square" stroke-miterlimit="10" pointer-events="none"/><path d="M 599 270 M 629 270 M 629 300 M 599 300" fill="none" stroke="rgb(0, 0, 0)" stroke-linecap="square" stroke-miterlimit="10" pointer-events="none"/><g fill="rgb(0, 0, 0)" font-family="Helvetica" font-weight="bold" pointer-events="none" clip-path="url(#mx-clip-599-270-30-30-0)" text-anchor="middle" font-size="16px"><text x="613.5" y="291.5">PK</text></g><path d="M 629 270 M 839 270 M 839 300 M 629 300" fill="none" stroke="rgb(0, 0, 0)" stroke-linecap="square" stroke-miterlimit="10" pointer-events="none"/><g fill="rgb(0, 0, 0)" font-family="Helvetica" font-weight="bold" text-decoration="underline" pointer-events="none" clip-path="url(#mx-clip-635-270-204-30-0)" font-size="16px"><text x="636.5" y="291.5">id</text></g><path d="M 599 300 M 629 300 M 629 330 M 599 330" fill="none" stroke="rgb(0, 0, 0)" stroke-linecap="square" stroke-miterlimit="10" pointer-events="none"/><g fill="rgb(0, 0, 0)" font-family="Helvetica" pointer-events="none" clip-path="url(#mx-clip-599-300-30-30-0)" text-anchor="middle" font-size="16px"><text x="613.5" y="321.5">FK</text></g><path d="M 629 300 M 839 300 M 839 330 M 629 330" fill="none" stroke="rgb(0, 0, 0)" stroke-linecap="square" stroke-miterlimit="10" pointer-events="none"/><g fill="rgb(0, 0, 0)" font-family="Helvetica" pointer-events="none" clip-path="url(#mx-clip-635-300-204-30-0)" font-size="16px"><text x="636.5" y="321.5">headwordTranslationID</text></g><path d="M 599 330 M 629 330 M 629 360 M 599 360" fill="none" stroke="rgb(0, 0, 0)" stroke-linecap="square" stroke-miterlimit="10" pointer-events="none"/><path d="M 629 330 M 839 330 M 839 360 M 629 360" fill="none" stroke="rgb(0, 0, 0)" stroke-linecap="square" stroke-miterlimit="10" pointer-events="none"/><g fill="rgb(0, 0, 0)" font-family="Helvetica" pointer-events="none" clip-path="url(#mx-clip-635-330-204-30-0)" font-size="16px"><text x="636.5" y="351.5">...</text></g><path d="M 250 55 L 269 55 Q 279 55 279 65 L 279 75 Q 279 85 287.75 85 L 296.5 85" fill="none" stroke="rgb(0, 0, 0)" stroke-miterlimit="10" pointer-events="none"/><path d="M 256 49 L 256 61" fill="none" stroke="rgb(0, 0, 0)" stroke-miterlimit="10" pointer-events="none"/><ellipse cx="302" cy="85" rx="5" ry="5" fill="none" stroke="rgb(0, 0, 0)" pointer-events="none"/><path d="M 320 79 L 308 85 L 320 91 M 308 85 L 320 85" fill="none" stroke="rgb(0, 0, 0)" stroke-miterlimit="10" pointer-events="none"/><path d="M 250 55 L 269 55 Q 279 55 279 65 L 279 145 Q 279 155 289 155 L 575.5 155" fill="none" stroke="rgb(0, 0, 0)" stroke-miterlimit="10" pointer-events="none"/><path d="M 256 49 L 256 61" fill="none" stroke="rgb(0, 0, 0)" stroke-miterlimit="10" pointer-events="none"/><ellipse cx="581" cy="155" rx="5" ry="5" fill="none" stroke="rgb(0, 0, 0)" pointer-events="none"/><path d="M 599 149 L 587 155 L 599 161 M 587 155 L 599 155" fill="none" stroke="rgb(0, 0, 0)" stroke-miterlimit="10" pointer-events="none"/><path d="M 250 55 L 269 55 Q 279 55 279 65 L 279 235 Q 279 245 287.75 245 L 296.5 245" fill="none" stroke="rgb(0, 0, 0)" stroke-miterlimit="10" pointer-events="none"/><path d="M 256 49 L 256 61" fill="none" stroke="rgb(0, 0, 0)" stroke-miterlimit="10" pointer-events="none"/><ellipse cx="302" cy="245" rx="5" ry="5" fill="none" stroke="rgb(0, 0, 0)" pointer-events="none"/><path d="M 320 239 L 308 245 L 320 251 M 308 245 L 320 245" fill="none" stroke="rgb(0, 0, 0)" stroke-miterlimit="10" pointer-events="none"/><path d="M 250 55 L 269 55 Q 279 55 279 65 L 279 305 Q 279 315 289 315 L 575.5 315" fill="none" stroke="rgb(0, 0, 0)" stroke-miterlimit="10" pointer-events="none"/><path d="M 256 49 L 256 61" fill="none" stroke="rgb(0, 0, 0)" stroke-miterlimit="10" pointer-events="none"/><ellipse cx="581" cy="315" rx="5" ry="5" fill="none" stroke="rgb(0, 0, 0)" pointer-events="none"/><path d="M 599 309 L 587 315 L 599 321 M 587 315 L 599 315" fill="none" stroke="rgb(0, 0, 0)" stroke-miterlimit="10" pointer-events="none"/></g></svg>