<?xml version="1.0" encoding="UTF-8"?>
<!DOCTYPE svg PUBLIC "-//W3C//DTD SVG 1.1//EN" "http://www.w3.org/Graphics/SVG/1.1/DTD/svg11.dtd">
<svg xmlns="http://www.w3.org/2000/svg" xmlns:xlink="http://www.w3.org/1999/xlink" version="1.1" width="881px" height="332px" viewBox="-0.5 -0.5 881 332" style="background-color: rgb(255, 255, 255);"><defs><clipPath id="mx-clip-11-41-30-30-0"><rect x="11" y="41" width="30" height="30"/></clipPath><clipPath id="mx-clip-47-41-204-30-0"><rect x="47" y="41" width="204" height="30"/></clipPath><clipPath id="mx-clip-11-71-30-30-0"><rect x="11" y="71" width="30" height="30"/></clipPath><clipPath id="mx-clip-47-71-204-30-0"><rect x="47" y="71" width="204" height="30"/></clipPath><clipPath id="mx-clip-11-101-30-30-0"><rect x="11" y="101" width="30" height="30"/></clipPath><clipPath id="mx-clip-47-101-204-30-0"><rect x="47" y="101" width="204" height="30"/></clipPath><clipPath id="mx-clip-11-131-30-30-0"><rect x="11" y="131" width="30" height="30"/></clipPath><clipPath id="mx-clip-47-131-204-30-0"><rect x="47" y="131" width="204" height="30"/></clipPath><clipPath id="mx-clip-11-161-30-30-0"><rect x="11" y="161" width="30" height="30"/></clipPath><clipPath id="mx-clip-47-161-204-30-0"><rect x="47" y="161" width="204" height="30"/></clipPath><clipPath id="mx-clip-11-191-30-30-0"><rect x="11" y="191" width="30" height="30"/></clipPath><clipPath id="mx-clip-47-191-204-30-0"><rect x="47" y="191" width="204" height="30"/></clipPath><clipPath id="mx-clip-11-221-30-30-0"><rect x="11" y="221" width="30" height="30"/></clipPath><clipPath id="mx-clip-47-221-204-30-0"><rect x="47" y="221" width="204" height="30"/></clipPath><clipPath id="mx-clip-47-251-204-30-0"><rect x="47" y="251" width="204" height="30"/></clipPath><clipPath id="mx-clip-47-281-204-30-0"><rect x="47" y="281" width="204" height="30"/></clipPath><style type="text/css">@import url(https://fonts.googleapis.com/css?family=Permanent+Marker);&#xa;</style></defs><g><rect x="0" y="0" width="880" height="331" fill="rgb(255, 255, 255)" stroke="#cccccc" pointer-events="all"/><path d="M 11 41 L 11 11 L 251 11 L 251 41" fill="rgb(255, 255, 255)" stroke="rgb(0, 0, 0)" stroke-miterlimit="10" pointer-events="all"/><path d="M 11 41 L 11 321 L 251 321 L 251 41" fill="none" stroke="rgb(0, 0, 0)" stroke-miterlimit="10" pointer-events="none"/><path d="M 11 41 L 251 41" fill="none" stroke="rgb(0, 0, 0)" stroke-miterlimit="10" pointer-events="none"/><path d="M 41 41 L 41 71 L 41 101 L 41 131 L 41 161 L 41 191 L 41 221 L 41 251 L 41 281 L 41 311" fill="none" stroke="rgb(0, 0, 0)" stroke-miterlimit="10" pointer-events="none"/><g fill="#999999" font-family="Helvetica" font-weight="bold" pointer-events="none" text-anchor="middle" font-size="16px"><text x="130.5" y="32.5">labels</text></g><path d="M 11 41 M 251 41 M 251 71 L 11 71" fill="none" stroke="rgb(0, 0, 0)" stroke-linecap="square" stroke-miterlimit="10" pointer-events="none"/><path d="M 11 41 M 41 41 M 41 71 M 11 71" fill="none" stroke="rgb(0, 0, 0)" stroke-linecap="square" stroke-miterlimit="10" pointer-events="none"/><g fill="#999999" font-family="Helvetica" font-weight="bold" pointer-events="none" clip-path="url(#mx-clip-11-41-30-30-0)" text-anchor="middle" font-size="16px"><text x="25.5" y="62.5">PK</text></g><path d="M 41 41 M 251 41 M 251 71 M 41 71" fill="none" stroke="rgb(0, 0, 0)" stroke-linecap="square" stroke-miterlimit="10" pointer-events="none"/><g fill="#999999" font-family="Helvetica" font-weight="bold" text-decoration="underline" pointer-events="none" clip-path="url(#mx-clip-47-41-204-30-0)" font-size="16px"><text x="48.5" y="62.5">id</text></g><path d="M 11 71 M 41 71 M 41 101 M 11 101" fill="none" stroke="rgb(0, 0, 0)" stroke-linecap="square" stroke-miterlimit="10" pointer-events="none"/><g fill="#999999" font-family="Helvetica" pointer-events="none" clip-path="url(#mx-clip-11-71-30-30-0)" text-anchor="middle" font-size="16px"><text x="25.5" y="92.5">FK</text></g><path d="M 41 71 M 251 71 M 251 101 M 41 101" fill="none" stroke="rgb(0, 0, 0)" stroke-linecap="square" stroke-miterlimit="10" pointer-events="none"/><g fill="#999999" font-family="Helvetica" pointer-events="none" clip-path="url(#mx-clip-47-71-204-30-0)" font-size="16px"><text x="48.5" y="92.5">entryID</text></g><path d="M 11 101 M 41 101 M 41 131 M 11 131" fill="none" stroke="rgb(0, 0, 0)" stroke-linecap="square" stroke-miterlimit="10" pointer-events="none"/><g fill="#999999" font-family="Helvetica" pointer-events="none" clip-path="url(#mx-clip-11-101-30-30-0)" text-anchor="middle" font-size="16px"><text x="25.5" y="122.5">FK</text></g><path d="M 41 101 M 251 101 M 251 131 M 41 131" fill="none" stroke="rgb(0, 0, 0)" stroke-linecap="square" stroke-miterlimit="10" pointer-events="none"/><g fill="#999999" font-family="Helvetica" pointer-events="none" clip-path="url(#mx-clip-47-101-204-30-0)" font-size="16px"><text x="48.5" y="122.5">senseID</text></g><path d="M 11 131 M 41 131 M 41 161 M 11 161" fill="none" stroke="rgb(0, 0, 0)" stroke-linecap="square" stroke-miterlimit="10" pointer-events="none"/><g fill="#999999" font-family="Helvetica" pointer-events="none" clip-path="url(#mx-clip-11-131-30-30-0)" text-anchor="middle" font-size="16px"><text x="25.5" y="152.5">FK</text></g><path d="M 41 131 M 251 131 M 251 161 M 41 161" fill="none" stroke="rgb(0, 0, 0)" stroke-linecap="square" stroke-miterlimit="10" pointer-events="none"/><g fill="#999999" font-family="Helvetica" pointer-events="none" clip-path="url(#mx-clip-47-131-204-30-0)" font-size="16px"><text x="48.5" y="152.5">inflectedFormID</text></g><path d="M 11 161 M 41 161 M 41 191 M 11 191" fill="none" stroke="rgb(0, 0, 0)" stroke-linecap="square" stroke-miterlimit="10" pointer-events="none"/><g fill="#999999" font-family="Helvetica" pointer-events="none" clip-path="url(#mx-clip-11-161-30-30-0)" text-anchor="middle" font-size="16px"><text x="25.5" y="182.5">FK</text></g><path d="M 41 161 M 251 161 M 251 191 M 41 191" fill="none" stroke="rgb(0, 0, 0)" stroke-linecap="square" stroke-miterlimit="10" pointer-events="none"/><g fill="#999999" font-family="Helvetica" pointer-events="none" clip-path="url(#mx-clip-47-161-204-30-0)" font-size="16px"><text x="48.5" y="182.5">pronunciationID</text></g><path d="M 11 191 M 41 191 M 41 221 M 11 221" fill="none" stroke="rgb(0, 0, 0)" stroke-linecap="square" stroke-miterlimit="10" pointer-events="none"/><g fill="#999999" font-family="Helvetica" pointer-events="none" clip-path="url(#mx-clip-11-191-30-30-0)" text-anchor="middle" font-size="16px"><text x="25.5" y="212.5">FK</text></g><path d="M 41 191 M 251 191 M 251 221 M 41 221" fill="none" stroke="rgb(0, 0, 0)" stroke-linecap="square" stroke-miterlimit="10" pointer-events="none"/><g fill="#999999" font-family="Helvetica" pointer-events="none" clip-path="url(#mx-clip-47-191-204-30-0)" font-size="16px"><text x="48.5" y="212.5">exampleID</text></g><path d="M 11 221 M 41 221 M 41 251 M 11 251" fill="none" stroke="rgb(0, 0, 0)" stroke-linecap="square" stroke-miterlimit="10" pointer-events="none"/><g fill="rgb(0, 0, 0)" font-family="Helvetica" pointer-events="none" clip-path="url(#mx-clip-11-221-30-30-0)" text-anchor="middle" font-size="16px"><text x="25.5" y="242.5">FK</text></g><path d="M 41 221 M 251 221 M 251 251 M 41 251" fill="none" stroke="rgb(0, 0, 0)" stroke-linecap="square" stroke-miterlimit="10" pointer-events="none"/><g fill="rgb(0, 0, 0)" font-family="Helvetica" pointer-events="none" clip-path="url(#mx-clip-47-221-204-30-0)" font-size="16px"><text x="48.5" y="242.5">headwordTranslationID</text></g><path d="M 11 251 M 41 251 M 41 281 M 11 281" fill="none" stroke="rgb(0, 0, 0)" stroke-linecap="square" stroke-miterlimit="10" pointer-events="none"/><path d="M 41 251 M 251 251 M 251 281 M 41 281" fill="none" stroke="rgb(0, 0, 0)" stroke-linecap="square" stroke-miterlimit="10" pointer-events="none"/><g fill="#999999" font-family="Helvetica" pointer-events="none" clip-path="url(#mx-clip-47-251-204-30-0)" font-size="16px"><text x="48.5" y="272.5">tag</text></g><path d="M 11 281 M 41 281 M 41 311 M 11 311" fill="none" stroke="rgb(0, 0, 0)" stroke-linecap="square" stroke-miterlimit="10" pointer-events="none"/><path d="M 41 281 M 251 281 M 251 311 M 41 311" fill="none" stroke="rgb(0, 0, 0)" stroke-linecap="square" stroke-miterlimit="10" pointer-events="none"/><g fill="#999999" font-family="Helvetica" pointer-events="none" clip-path="url(#mx-clip-47-281-204-30-0)" font-size="16px"><text x="48.5" y="302.5">listingOrder</text></g></g></svg>