<?xml version="1.0" encoding="UTF-8"?>
<!DOCTYPE svg PUBLIC "-//W3C//DTD SVG 1.1//EN" "http://www.w3.org/Graphics/SVG/1.1/DTD/svg11.dtd">
<svg xmlns="http://www.w3.org/2000/svg" xmlns:xlink="http://www.w3.org/1999/xlink" version="1.1" width="881px" height="212px" viewBox="-0.5 -0.5 881 212" style="background-color: rgb(255, 255, 255);"><defs><clipPath id="mx-clip-9-40-30-30-0"><rect x="9" y="40" width="30" height="30"/></clipPath><clipPath id="mx-clip-45-40-204-30-0"><rect x="45" y="40" width="204" height="30"/></clipPath><clipPath id="mx-clip-9-70-30-30-0"><rect x="9" y="70" width="30" height="30"/></clipPath><clipPath id="mx-clip-45-70-204-30-0"><rect x="45" y="70" width="204" height="30"/></clipPath><clipPath id="mx-clip-9-100-30-30-0"><rect x="9" y="100" width="30" height="30"/></clipPath><clipPath id="mx-clip-45-100-204-30-0"><rect x="45" y="100" width="204" height="30"/></clipPath><clipPath id="mx-clip-45-130-204-30-0"><rect x="45" y="130" width="204" height="30"/></clipPath><clipPath id="mx-clip-45-160-204-30-0"><rect x="45" y="160" width="204" height="30"/></clipPath><style type="text/css">@import url(https://fonts.googleapis.com/css?family=Permanent+Marker);&#xa;</style></defs><g><rect x="0" y="0" width="880" height="211" fill="rgb(255, 255, 255)" stroke="#cccccc" pointer-events="all"/><path d="M 9 40 L 9 10 L 249 10 L 249 40" fill="rgb(255, 255, 255)" stroke="rgb(0, 0, 0)" stroke-miterlimit="10" pointer-events="all"/><path d="M 9 40 L 9 200 L 249 200 L 249 40" fill="none" stroke="rgb(0, 0, 0)" stroke-miterlimit="10" pointer-events="none"/><path d="M 9 40 L 249 40" fill="none" stroke="rgb(0, 0, 0)" stroke-miterlimit="10" pointer-events="none"/><path d="M 39 40 L 39 70 L 39 100 L 39 130 L 39 160 L 39 190" fill="none" stroke="rgb(0, 0, 0)" stroke-miterlimit="10" pointer-events="none"/><g fill="#999999" font-family="Helvetica" font-weight="bold" pointer-events="none" text-anchor="middle" font-size="16px"><text x="128.5" y="31.5">partsOfSpeech</text></g><path d="M 9 40 M 249 40 M 249 70 L 9 70" fill="none" stroke="rgb(0, 0, 0)" stroke-linecap="square" stroke-miterlimit="10" pointer-events="none"/><path d="M 9 40 M 39 40 M 39 70 M 9 70" fill="none" stroke="rgb(0, 0, 0)" stroke-linecap="square" stroke-miterlimit="10" pointer-events="none"/><g fill="#999999" font-family="Helvetica" font-weight="bold" pointer-events="none" clip-path="url(#mx-clip-9-40-30-30-0)" text-anchor="middle" font-size="16px"><text x="23.5" y="61.5">PK</text></g><path d="M 39 40 M 249 40 M 249 70 M 39 70" fill="none" stroke="rgb(0, 0, 0)" stroke-linecap="square" stroke-miterlimit="10" pointer-events="none"/><g fill="#999999" font-family="Helvetica" font-weight="bold" text-decoration="underline" pointer-events="none" clip-path="url(#mx-clip-45-40-204-30-0)" font-size="16px"><text x="46.5" y="61.5">id</text></g><path d="M 9 70 M 39 70 M 39 100 M 9 100" fill="none" stroke="rgb(0, 0, 0)" stroke-linecap="square" stroke-miterlimit="10" pointer-events="none"/><g fill="#999999" font-family="Helvetica" pointer-events="none" clip-path="url(#mx-clip-9-70-30-30-0)" text-anchor="middle" font-size="16px"><text x="23.5" y="91.5">FK</text></g><path d="M 39 70 M 249 70 M 249 100 M 39 100" fill="none" stroke="rgb(0, 0, 0)" stroke-linecap="square" stroke-miterlimit="10" pointer-events="none"/><g fill="#999999" font-family="Helvetica" pointer-events="none" clip-path="url(#mx-clip-45-70-204-30-0)" font-size="16px"><text x="46.5" y="91.5">entryID</text></g><path d="M 9 100 M 39 100 M 39 130 M 9 130" fill="none" stroke="rgb(0, 0, 0)" stroke-linecap="square" stroke-miterlimit="10" pointer-events="none"/><g fill="rgb(0, 0, 0)" font-family="Helvetica" pointer-events="none" clip-path="url(#mx-clip-9-100-30-30-0)" text-anchor="middle" font-size="16px"><text x="23.5" y="121.5">FK</text></g><path d="M 39 100 M 249 100 M 249 130 M 39 130" fill="none" stroke="rgb(0, 0, 0)" stroke-linecap="square" stroke-miterlimit="10" pointer-events="none"/><g fill="rgb(0, 0, 0)" font-family="Helvetica" pointer-events="none" clip-path="url(#mx-clip-45-100-204-30-0)" font-size="16px"><text x="46.5" y="121.5">headwordTranslationID</text></g><path d="M 9 130 M 39 130 M 39 160 M 9 160" fill="none" stroke="rgb(0, 0, 0)" stroke-linecap="square" stroke-miterlimit="10" pointer-events="none"/><path d="M 39 130 M 249 130 M 249 160 M 39 160" fill="none" stroke="rgb(0, 0, 0)" stroke-linecap="square" stroke-miterlimit="10" pointer-events="none"/><g fill="#999999" font-family="Helvetica" pointer-events="none" clip-path="url(#mx-clip-45-130-204-30-0)" font-size="16px"><text x="46.5" y="151.5">value</text></g><path d="M 9 160 M 39 160 M 39 190 M 9 190" fill="none" stroke="rgb(0, 0, 0)" stroke-linecap="square" stroke-miterlimit="10" pointer-events="none"/><path d="M 39 160 M 249 160 M 249 190 M 39 190" fill="none" stroke="rgb(0, 0, 0)" stroke-linecap="square" stroke-miterlimit="10" pointer-events="none"/><g fill="#999999" font-family="Helvetica" pointer-events="none" clip-path="url(#mx-clip-45-160-204-30-0)" font-size="16px"><text x="46.5" y="181.5">listingOrder</text></g></g></svg>