<?xml version="1.0" encoding="UTF-8"?>
<!DOCTYPE svg PUBLIC "-//W3C//DTD SVG 1.1//EN" "http://www.w3.org/Graphics/SVG/1.1/DTD/svg11.dtd">
<svg xmlns="http://www.w3.org/2000/svg" xmlns:xlink="http://www.w3.org/1999/xlink" version="1.1" width="881px" height="302px" viewBox="-0.5 -0.5 881 302" style="background-color: rgb(255, 255, 255);"><defs><clipPath id="mx-clip-10-41-30-30-0"><rect x="10" y="41" width="30" height="30"/></clipPath><clipPath id="mx-clip-46-41-244-30-0"><rect x="46" y="41" width="244" height="30"/></clipPath><clipPath id="mx-clip-10-71-30-30-0"><rect x="10" y="71" width="30" height="30"/></clipPath><clipPath id="mx-clip-46-71-244-30-0"><rect x="46" y="71" width="244" height="30"/></clipPath><clipPath id="mx-clip-46-101-244-30-0"><rect x="46" y="101" width="244" height="30"/></clipPath><clipPath id="mx-clip-46-131-244-30-0"><rect x="46" y="131" width="244" height="30"/></clipPath><clipPath id="mx-clip-46-161-244-30-0"><rect x="46" y="161" width="244" height="30"/></clipPath><clipPath id="mx-clip-46-191-244-30-0"><rect x="46" y="191" width="244" height="30"/></clipPath><clipPath id="mx-clip-46-221-244-30-0"><rect x="46" y="221" width="244" height="30"/></clipPath><clipPath id="mx-clip-46-251-244-30-0"><rect x="46" y="251" width="244" height="30"/></clipPath><style type="text/css">@import url(https://fonts.googleapis.com/css?family=Permanent+Marker);&#xa;</style></defs><g><rect x="0" y="0" width="880" height="301" fill="rgb(255, 255, 255)" stroke="#cccccc" pointer-events="all"/><path d="M 10 41 L 10 11 L 290 11 L 290 41" fill="rgb(255, 255, 255)" stroke="rgb(0, 0, 0)" stroke-miterlimit="10" pointer-events="all"/><path d="M 10 41 L 10 291 L 290 291 L 290 41" fill="none" stroke="rgb(0, 0, 0)" stroke-miterlimit="10" pointer-events="none"/><path d="M 10 41 L 290 41" fill="none" stroke="rgb(0, 0, 0)" stroke-miterlimit="10" pointer-events="none"/><path d="M 40 41 L 40 71 L 40 101 L 40 131 L 40 161 L 40 191 L 40 221 L 40 251 L 40 281" fill="none" stroke="rgb(0, 0, 0)" stroke-miterlimit="10" pointer-events="none"/><g fill="#999999" font-family="Helvetica" font-weight="bold" pointer-events="none" text-anchor="middle" font-size="16px"><text x="149.5" y="32.5">tags</text></g><path d="M 10 41 M 290 41 M 290 71 L 10 71" fill="none" stroke="rgb(0, 0, 0)" stroke-linecap="square" stroke-miterlimit="10" pointer-events="none"/><path d="M 10 41 M 40 41 M 40 71 M 10 71" fill="none" stroke="rgb(0, 0, 0)" stroke-linecap="square" stroke-miterlimit="10" pointer-events="none"/><g fill="#999999" font-family="Helvetica" font-weight="bold" pointer-events="none" clip-path="url(#mx-clip-10-41-30-30-0)" text-anchor="middle" font-size="16px"><text x="24.5" y="62.5">PK</text></g><path d="M 40 41 M 290 41 M 290 71 M 40 71" fill="none" stroke="rgb(0, 0, 0)" stroke-linecap="square" stroke-miterlimit="10" pointer-events="none"/><g fill="#999999" font-family="Helvetica" font-weight="bold" text-decoration="underline" pointer-events="none" clip-path="url(#mx-clip-46-41-244-30-0)" font-size="16px"><text x="47.5" y="62.5">id</text></g><path d="M 10 71 M 40 71 M 40 101 M 10 101" fill="none" stroke="rgb(0, 0, 0)" stroke-linecap="square" stroke-miterlimit="10" pointer-events="none"/><g fill="#999999" font-family="Helvetica" pointer-events="none" clip-path="url(#mx-clip-10-71-30-30-0)" text-anchor="middle" font-size="16px"><text x="24.5" y="92.5">FK</text></g><path d="M 40 71 M 290 71 M 290 101 M 40 101" fill="none" stroke="rgb(0, 0, 0)" stroke-linecap="square" stroke-miterlimit="10" pointer-events="none"/><g fill="#999999" font-family="Helvetica" pointer-events="none" clip-path="url(#mx-clip-46-71-244-30-0)" font-size="16px"><text x="47.5" y="92.5">lexicographicResourceID</text></g><path d="M 10 101 M 40 101 M 40 131 M 10 131" fill="none" stroke="rgb(0, 0, 0)" stroke-linecap="square" stroke-miterlimit="10" pointer-events="none"/><path d="M 40 101 M 290 101 M 290 131 M 40 131" fill="none" stroke="rgb(0, 0, 0)" stroke-linecap="square" stroke-miterlimit="10" pointer-events="none"/><g fill="#999999" font-family="Helvetica" pointer-events="none" clip-path="url(#mx-clip-46-101-244-30-0)" font-size="16px"><text x="47.5" y="122.5">value</text></g><path d="M 10 131 M 40 131 M 40 161 M 10 161" fill="none" stroke="rgb(0, 0, 0)" stroke-linecap="square" stroke-miterlimit="10" pointer-events="none"/><path d="M 40 131 M 290 131 M 290 161 M 40 161" fill="none" stroke="rgb(0, 0, 0)" stroke-linecap="square" stroke-miterlimit="10" pointer-events="none"/><g fill="#999999" font-family="Helvetica" pointer-events="none" clip-path="url(#mx-clip-46-131-244-30-0)" font-size="16px"><text x="47.5" y="152.5">description</text></g><path d="M 10 161 M 40 161 M 40 191 M 10 191" fill="none" stroke="rgb(0, 0, 0)" stroke-linecap="square" stroke-miterlimit="10" pointer-events="none"/><path d="M 40 161 M 290 161 M 290 191 M 40 191" fill="none" stroke="rgb(0, 0, 0)" stroke-linecap="square" stroke-miterlimit="10" pointer-events="none"/><g fill="#999999" font-family="Helvetica" pointer-events="none" clip-path="url(#mx-clip-46-161-244-30-0)" font-size="16px"><text x="47.5" y="182.5">target</text></g><path d="M 10 191 M 40 191 M 40 221 M 10 221" fill="none" stroke="rgb(0, 0, 0)" stroke-linecap="square" stroke-miterlimit="10" pointer-events="none"/><path d="M 40 191 M 290 191 M 290 221 M 40 221" fill="none" stroke="rgb(0, 0, 0)" stroke-linecap="square" stroke-miterlimit="10" pointer-events="none"/><g fill="#999999" font-family="Helvetica" pointer-events="none" clip-path="url(#mx-clip-46-191-244-30-0)" font-size="16px"><text x="47.5" y="212.5">partOfSpeechConstraints</text></g><path d="M 10 221 M 40 221 M 40 251 M 10 251" fill="none" stroke="rgb(0, 0, 0)" stroke-linecap="square" stroke-miterlimit="10" pointer-events="none"/><path d="M 40 221 M 290 221 M 290 251 M 40 251" fill="none" stroke="rgb(0, 0, 0)" stroke-linecap="square" stroke-miterlimit="10" pointer-events="none"/><g fill="rgb(0, 0, 0)" font-family="Helvetica" pointer-events="none" clip-path="url(#mx-clip-46-221-244-30-0)" font-size="16px"><text x="47.5" y="242.5">sideConstraint</text></g><path d="M 10 251 M 40 251 M 40 281 M 10 281" fill="none" stroke="rgb(0, 0, 0)" stroke-linecap="square" stroke-miterlimit="10" pointer-events="none"/><path d="M 40 251 M 290 251 M 290 281 M 40 281" fill="none" stroke="rgb(0, 0, 0)" stroke-linecap="square" stroke-miterlimit="10" pointer-events="none"/><g fill="rgb(0, 0, 0)" font-family="Helvetica" pointer-events="none" clip-path="url(#mx-clip-46-251-244-30-0)" font-size="16px"><text x="47.5" y="272.5">translationLanguageConstraints</text></g></g></svg>