<?xml version="1.0" encoding="UTF-8"?>
<!DOCTYPE svg PUBLIC "-//W3C//DTD SVG 1.1//EN" "http://www.w3.org/Graphics/SVG/1.1/DTD/svg11.dtd">
<svg xmlns="http://www.w3.org/2000/svg" xmlns:xlink="http://www.w3.org/1999/xlink" version="1.1" width="881px" height="371px" viewBox="-0.5 -0.5 881 371" style="background-color: rgb(255, 255, 255);"><defs><clipPath id="mx-clip-10-39-30-30-0"><rect x="10" y="39" width="30" height="30"/></clipPath><clipPath id="mx-clip-46-39-244-30-0"><rect x="46" y="39" width="244" height="30"/></clipPath><clipPath id="mx-clip-10-69-30-30-0"><rect x="10" y="69" width="30" height="30"/></clipPath><clipPath id="mx-clip-46-69-244-30-0"><rect x="46" y="69" width="244" height="30"/></clipPath><clipPath id="mx-clip-46-99-244-30-0"><rect x="46" y="99" width="244" height="30"/></clipPath><clipPath id="mx-clip-46-129-244-30-0"><rect x="46" y="129" width="244" height="30"/></clipPath><clipPath id="mx-clip-46-159-244-30-0"><rect x="46" y="159" width="244" height="30"/></clipPath><clipPath id="mx-clip-370-39-30-30-0"><rect x="370" y="39" width="30" height="30"/></clipPath><clipPath id="mx-clip-406-39-204-30-0"><rect x="406" y="39" width="204" height="30"/></clipPath><clipPath id="mx-clip-370-69-30-30-0"><rect x="370" y="69" width="30" height="30"/></clipPath><clipPath id="mx-clip-406-69-204-30-0"><rect x="406" y="69" width="204" height="30"/></clipPath><clipPath id="mx-clip-406-99-204-30-0"><rect x="406" y="99" width="204" height="30"/></clipPath><clipPath id="mx-clip-406-129-204-30-0"><rect x="406" y="129" width="204" height="30"/></clipPath><clipPath id="mx-clip-370-230-30-30-0"><rect x="370" y="230" width="30" height="30"/></clipPath><clipPath id="mx-clip-406-230-204-30-0"><rect x="406" y="230" width="204" height="30"/></clipPath><clipPath id="mx-clip-370-260-30-30-0"><rect x="370" y="260" width="30" height="30"/></clipPath><clipPath id="mx-clip-406-260-204-30-0"><rect x="406" y="260" width="204" height="30"/></clipPath><clipPath id="mx-clip-406-290-204-30-0"><rect x="406" y="290" width="204" height="30"/></clipPath><clipPath id="mx-clip-406-320-204-30-0"><rect x="406" y="320" width="204" height="30"/></clipPath><clipPath id="mx-clip-630-140-30-30-0"><rect x="630" y="140" width="30" height="30"/></clipPath><clipPath id="mx-clip-666-140-204-30-0"><rect x="666" y="140" width="204" height="30"/></clipPath><clipPath id="mx-clip-630-170-30-30-0"><rect x="630" y="170" width="30" height="30"/></clipPath><clipPath id="mx-clip-666-170-204-30-0"><rect x="666" y="170" width="204" height="30"/></clipPath><clipPath id="mx-clip-666-200-204-30-0"><rect x="666" y="200" width="204" height="30"/></clipPath><style type="text/css">@import url(https://fonts.googleapis.com/css?family=Permanent+Marker);&#xa;</style></defs><g><rect x="0" y="0" width="880" height="370" fill="rgb(255, 255, 255)" stroke="#cccccc" pointer-events="all"/><path d="M 10 39 L 10 9 L 290 9 L 290 39" fill="rgb(255, 255, 255)" stroke="rgb(0, 0, 0)" stroke-miterlimit="10" pointer-events="all"/><path d="M 10 39 L 10 199 L 290 199 L 290 39" fill="none" stroke="rgb(0, 0, 0)" stroke-miterlimit="10" pointer-events="none"/><path d="M 10 39 L 290 39" fill="none" stroke="rgb(0, 0, 0)" stroke-miterlimit="10" pointer-events="none"/><path d="M 40 39 L 40 69 L 40 99 L 40 129 L 40 159 L 40 189" fill="none" stroke="rgb(0, 0, 0)" stroke-miterlimit="10" pointer-events="none"/><g fill="rgb(0, 0, 0)" font-family="Helvetica" font-weight="bold" pointer-events="none" text-anchor="middle" font-size="15.999999999999998px"><text x="149.5" y="30.5">inflectedFormTags</text></g><path d="M 10 39 M 290 39 M 290 69 L 10 69" fill="none" stroke="rgb(0, 0, 0)" stroke-linecap="square" stroke-miterlimit="10" pointer-events="none"/><path d="M 10 39 M 40 39 M 40 69 M 10 69" fill="none" stroke="rgb(0, 0, 0)" stroke-linecap="square" stroke-miterlimit="10" pointer-events="none"/><g fill="rgb(0, 0, 0)" font-family="Helvetica" font-weight="bold" pointer-events="none" clip-path="url(#mx-clip-10-39-30-30-0)" text-anchor="middle" font-size="15.999999999999998px"><text x="24.5" y="60.5">PK</text></g><path d="M 40 39 M 290 39 M 290 69 M 40 69" fill="none" stroke="rgb(0, 0, 0)" stroke-linecap="square" stroke-miterlimit="10" pointer-events="none"/><g fill="rgb(0, 0, 0)" font-family="Helvetica" font-weight="bold" text-decoration="underline" pointer-events="none" clip-path="url(#mx-clip-46-39-244-30-0)" font-size="15.999999999999998px"><text x="47.5" y="60.5">tag</text></g><path d="M 10 69 M 40 69 M 40 99 M 10 99" fill="none" stroke="rgb(0, 0, 0)" stroke-linecap="square" stroke-miterlimit="10" pointer-events="none"/><g fill="rgb(0, 0, 0)" font-family="Helvetica" pointer-events="none" clip-path="url(#mx-clip-10-69-30-30-0)" text-anchor="middle" font-size="15.999999999999998px"><text x="24.5" y="90.5">FK</text></g><path d="M 40 69 M 290 69 M 290 99 M 40 99" fill="none" stroke="rgb(0, 0, 0)" stroke-linecap="square" stroke-miterlimit="10" pointer-events="none"/><g fill="rgb(0, 0, 0)" font-family="Helvetica" pointer-events="none" clip-path="url(#mx-clip-46-69-244-30-0)" font-size="15.999999999999998px"><text x="47.5" y="90.5">lexicographicResourceID</text></g><path d="M 10 99 M 40 99 M 40 129 M 10 129" fill="none" stroke="rgb(0, 0, 0)" stroke-linecap="square" stroke-miterlimit="10" pointer-events="none"/><path d="M 40 99 M 290 99 M 290 129 M 40 129" fill="none" stroke="rgb(0, 0, 0)" stroke-linecap="square" stroke-miterlimit="10" pointer-events="none"/><g fill="rgb(0, 0, 0)" font-family="Helvetica" pointer-events="none" clip-path="url(#mx-clip-46-99-244-30-0)" font-size="15.999999999999998px"><text x="47.5" y="120.5">description</text></g><path d="M 10 129 M 40 129 M 40 159 M 10 159" fill="none" stroke="rgb(0, 0, 0)" stroke-linecap="square" stroke-miterlimit="10" pointer-events="none"/><path d="M 40 129 M 290 129 M 290 159 M 40 159" fill="none" stroke="rgb(0, 0, 0)" stroke-linecap="square" stroke-miterlimit="10" pointer-events="none"/><g fill="rgb(0, 0, 0)" font-family="Helvetica" pointer-events="none" clip-path="url(#mx-clip-46-129-244-30-0)" font-size="15.999999999999998px"><text x="47.5" y="150.5">forHeadwords</text></g><path d="M 10 159 M 40 159 M 40 189 M 10 189" fill="none" stroke="rgb(0, 0, 0)" stroke-linecap="square" stroke-miterlimit="10" pointer-events="none"/><path d="M 40 159 M 290 159 M 290 189 M 40 189" fill="none" stroke="rgb(0, 0, 0)" stroke-linecap="square" stroke-miterlimit="10" pointer-events="none"/><g fill="rgb(0, 0, 0)" font-family="Helvetica" pointer-events="none" clip-path="url(#mx-clip-46-159-244-30-0)" font-size="15.999999999999998px"><text x="47.5" y="180.5">forTranslations</text></g><path d="M 370 39 L 370 9 L 610 9 L 610 39" fill="rgb(255, 255, 255)" stroke="rgb(0, 0, 0)" stroke-miterlimit="10" pointer-events="none"/><path d="M 370 39 L 370 169 L 610 169 L 610 39" fill="none" stroke="rgb(0, 0, 0)" stroke-miterlimit="10" pointer-events="none"/><path d="M 370 39 L 610 39" fill="none" stroke="rgb(0, 0, 0)" stroke-miterlimit="10" pointer-events="none"/><path d="M 400 39 L 400 69 L 400 99 L 400 129 L 400 159" fill="none" stroke="rgb(0, 0, 0)" stroke-miterlimit="10" pointer-events="none"/><g fill="rgb(0, 0, 0)" font-family="Helvetica" font-weight="bold" pointer-events="none" text-anchor="middle" font-size="15.999999999999998px"><text x="489.5" y="30.5">forLanguage</text></g><path d="M 370 39 M 610 39 M 610 69 L 370 69" fill="none" stroke="rgb(0, 0, 0)" stroke-linecap="square" stroke-miterlimit="10" pointer-events="none"/><path d="M 370 39 M 400 39 M 400 69 M 370 69" fill="none" stroke="rgb(0, 0, 0)" stroke-linecap="square" stroke-miterlimit="10" pointer-events="none"/><g fill="rgb(0, 0, 0)" font-family="Helvetica" font-weight="bold" pointer-events="none" clip-path="url(#mx-clip-370-39-30-30-0)" text-anchor="middle" font-size="15.999999999999998px"><text x="384.5" y="60.5">PK</text></g><path d="M 400 39 M 610 39 M 610 69 M 400 69" fill="none" stroke="rgb(0, 0, 0)" stroke-linecap="square" stroke-miterlimit="10" pointer-events="none"/><g fill="rgb(0, 0, 0)" font-family="Helvetica" font-weight="bold" text-decoration="underline" pointer-events="none" clip-path="url(#mx-clip-406-39-204-30-0)" font-size="15.999999999999998px"><text x="407.5" y="60.5">id</text></g><path d="M 370 69 M 400 69 M 400 99 M 370 99" fill="none" stroke="rgb(0, 0, 0)" stroke-linecap="square" stroke-miterlimit="10" pointer-events="none"/><g fill="rgb(0, 0, 0)" font-family="Helvetica" pointer-events="none" clip-path="url(#mx-clip-370-69-30-30-0)" text-anchor="middle" font-size="15.999999999999998px"><text x="384.5" y="90.5">FK</text></g><path d="M 400 69 M 610 69 M 610 99 M 400 99" fill="none" stroke="rgb(0, 0, 0)" stroke-linecap="square" stroke-miterlimit="10" pointer-events="none"/><g fill="rgb(0, 0, 0)" font-family="Helvetica" pointer-events="none" clip-path="url(#mx-clip-406-69-204-30-0)" font-size="15.999999999999998px"><text x="407.5" y="90.5">inflectedFormTag</text></g><path d="M 370 99 M 400 99 M 400 129 M 370 129" fill="none" stroke="rgb(0, 0, 0)" stroke-linecap="square" stroke-miterlimit="10" pointer-events="none"/><path d="M 400 99 M 610 99 M 610 129 M 400 129" fill="none" stroke="rgb(0, 0, 0)" stroke-linecap="square" stroke-miterlimit="10" pointer-events="none"/><g fill="rgb(0, 0, 0)" font-family="Helvetica" pointer-events="none" clip-path="url(#mx-clip-406-99-204-30-0)" font-size="15.999999999999998px"><text x="407.5" y="120.5">langCode</text></g><path d="M 370 129 M 400 129 M 400 159 M 370 159" fill="none" stroke="rgb(0, 0, 0)" stroke-linecap="square" stroke-miterlimit="10" pointer-events="none"/><path d="M 400 129 M 610 129 M 610 159 M 400 159" fill="none" stroke="rgb(0, 0, 0)" stroke-linecap="square" stroke-miterlimit="10" pointer-events="none"/><g fill="rgb(0, 0, 0)" font-family="Helvetica" pointer-events="none" clip-path="url(#mx-clip-406-129-204-30-0)" font-size="15.999999999999998px"><text x="407.5" y="150.5">···</text></g><path d="M 370 230 L 370 200 L 610 200 L 610 230" fill="rgb(255, 255, 255)" stroke="rgb(0, 0, 0)" stroke-miterlimit="10" pointer-events="none"/><path d="M 370 230 L 370 360 L 610 360 L 610 230" fill="none" stroke="rgb(0, 0, 0)" stroke-miterlimit="10" pointer-events="none"/><path d="M 370 230 L 610 230" fill="none" stroke="rgb(0, 0, 0)" stroke-miterlimit="10" pointer-events="none"/><path d="M 400 230 L 400 260 L 400 290 L 400 320 L 400 350" fill="none" stroke="rgb(0, 0, 0)" stroke-miterlimit="10" pointer-events="none"/><g fill="rgb(0, 0, 0)" font-family="Helvetica" font-weight="bold" pointer-events="none" text-anchor="middle" font-size="15.999999999999998px"><text x="489.5" y="221.5">forPartOfSpeech</text></g><path d="M 370 230 M 610 230 M 610 260 L 370 260" fill="none" stroke="rgb(0, 0, 0)" stroke-linecap="square" stroke-miterlimit="10" pointer-events="none"/><path d="M 370 230 M 400 230 M 400 260 M 370 260" fill="none" stroke="rgb(0, 0, 0)" stroke-linecap="square" stroke-miterlimit="10" pointer-events="none"/><g fill="rgb(0, 0, 0)" font-family="Helvetica" font-weight="bold" pointer-events="none" clip-path="url(#mx-clip-370-230-30-30-0)" text-anchor="middle" font-size="15.999999999999998px"><text x="384.5" y="251.5">PK</text></g><path d="M 400 230 M 610 230 M 610 260 M 400 260" fill="none" stroke="rgb(0, 0, 0)" stroke-linecap="square" stroke-miterlimit="10" pointer-events="none"/><g fill="rgb(0, 0, 0)" font-family="Helvetica" font-weight="bold" text-decoration="underline" pointer-events="none" clip-path="url(#mx-clip-406-230-204-30-0)" font-size="15.999999999999998px"><text x="407.5" y="251.5">id</text></g><path d="M 370 260 M 400 260 M 400 290 M 370 290" fill="none" stroke="rgb(0, 0, 0)" stroke-linecap="square" stroke-miterlimit="10" pointer-events="none"/><g fill="rgb(0, 0, 0)" font-family="Helvetica" pointer-events="none" clip-path="url(#mx-clip-370-260-30-30-0)" text-anchor="middle" font-size="15.999999999999998px"><text x="384.5" y="281.5">FK</text></g><path d="M 400 260 M 610 260 M 610 290 M 400 290" fill="none" stroke="rgb(0, 0, 0)" stroke-linecap="square" stroke-miterlimit="10" pointer-events="none"/><g fill="rgb(0, 0, 0)" font-family="Helvetica" pointer-events="none" clip-path="url(#mx-clip-406-260-204-30-0)" font-size="15.999999999999998px"><text x="407.5" y="281.5">inflectedFormTag</text></g><path d="M 370 290 M 400 290 M 400 320 M 370 320" fill="none" stroke="rgb(0, 0, 0)" stroke-linecap="square" stroke-miterlimit="10" pointer-events="none"/><path d="M 400 290 M 610 290 M 610 320 M 400 320" fill="none" stroke="rgb(0, 0, 0)" stroke-linecap="square" stroke-miterlimit="10" pointer-events="none"/><g fill="rgb(0, 0, 0)" font-family="Helvetica" pointer-events="none" clip-path="url(#mx-clip-406-290-204-30-0)" font-size="15.999999999999998px"><text x="407.5" y="311.5">partOfSpeechTag</text></g><path d="M 370 320 M 400 320 M 400 350 M 370 350" fill="none" stroke="rgb(0, 0, 0)" stroke-linecap="square" stroke-miterlimit="10" pointer-events="none"/><path d="M 400 320 M 610 320 M 610 350 M 400 350" fill="none" stroke="rgb(0, 0, 0)" stroke-linecap="square" stroke-miterlimit="10" pointer-events="none"/><g fill="rgb(0, 0, 0)" font-family="Helvetica" pointer-events="none" clip-path="url(#mx-clip-406-320-204-30-0)" font-size="15.999999999999998px"><text x="407.5" y="341.5">···</text></g><path d="M 630 140 L 630 110 L 870 110 L 870 140" fill="rgb(255, 255, 255)" stroke="rgb(0, 0, 0)" stroke-miterlimit="10" pointer-events="none"/><path d="M 630 140 L 630 240 L 870 240 L 870 140" fill="none" stroke="rgb(0, 0, 0)" stroke-miterlimit="10" pointer-events="none"/><path d="M 630 140 L 870 140" fill="none" stroke="rgb(0, 0, 0)" stroke-miterlimit="10" pointer-events="none"/><path d="M 660 140 L 660 170 L 660 200 L 660 230" fill="none" stroke="rgb(0, 0, 0)" stroke-miterlimit="10" pointer-events="none"/><g fill="rgb(0, 0, 0)" font-family="Helvetica" font-weight="bold" pointer-events="none" text-anchor="middle" font-size="15.999999999999998px"><text x="749.5" y="131.5">sameAs</text></g><path d="M 630 140 M 870 140 M 870 170 L 630 170" fill="none" stroke="rgb(0, 0, 0)" stroke-linecap="square" stroke-miterlimit="10" pointer-events="none"/><path d="M 630 140 M 660 140 M 660 170 M 630 170" fill="none" stroke="rgb(0, 0, 0)" stroke-linecap="square" stroke-miterlimit="10" pointer-events="none"/><g fill="rgb(0, 0, 0)" font-family="Helvetica" font-weight="bold" pointer-events="none" clip-path="url(#mx-clip-630-140-30-30-0)" text-anchor="middle" font-size="15.999999999999998px"><text x="644.5" y="161.5">PK</text></g><path d="M 660 140 M 870 140 M 870 170 M 660 170" fill="none" stroke="rgb(0, 0, 0)" stroke-linecap="square" stroke-miterlimit="10" pointer-events="none"/><g fill="rgb(0, 0, 0)" font-family="Helvetica" font-weight="bold" text-decoration="underline" pointer-events="none" clip-path="url(#mx-clip-666-140-204-30-0)" font-size="15.999999999999998px"><text x="667.5" y="161.5">id</text></g><path d="M 630 170 M 660 170 M 660 200 M 630 200" fill="none" stroke="rgb(0, 0, 0)" stroke-linecap="square" stroke-miterlimit="10" pointer-events="none"/><g fill="rgb(0, 0, 0)" font-family="Helvetica" pointer-events="none" clip-path="url(#mx-clip-630-170-30-30-0)" text-anchor="middle" font-size="15.999999999999998px"><text x="644.5" y="191.5">FK</text></g><path d="M 660 170 M 870 170 M 870 200 M 660 200" fill="none" stroke="rgb(0, 0, 0)" stroke-linecap="square" stroke-miterlimit="10" pointer-events="none"/><g fill="rgb(0, 0, 0)" font-family="Helvetica" pointer-events="none" clip-path="url(#mx-clip-666-170-204-30-0)" font-size="15.999999999999998px"><text x="667.5" y="191.5">inflectedFormTag</text></g><path d="M 630 200 M 660 200 M 660 230 M 630 230" fill="none" stroke="rgb(0, 0, 0)" stroke-linecap="square" stroke-miterlimit="10" pointer-events="none"/><path d="M 660 200 M 870 200 M 870 230 M 660 230" fill="none" stroke="rgb(0, 0, 0)" stroke-linecap="square" stroke-miterlimit="10" pointer-events="none"/><g fill="rgb(0, 0, 0)" font-family="Helvetica" pointer-events="none" clip-path="url(#mx-clip-666-200-204-30-0)" font-size="15.999999999999998px"><text x="667.5" y="221.5">···</text></g><path d="M 290 54 L 320 54.04 Q 330 54.05 330 64.05 L 330 74.05 Q 330 84.05 338.25 84.05 L 346.5 84.05" fill="none" stroke="rgb(0, 0, 0)" stroke-miterlimit="10" pointer-events="none"/><path d="M 296.01 48.01 L 295.99 60.01" fill="none" stroke="rgb(0, 0, 0)" stroke-miterlimit="10" pointer-events="none"/><ellipse cx="352" cy="84.05" rx="4.999999999999999" ry="4.999999999999999" fill="none" stroke="rgb(0, 0, 0)" pointer-events="none"/><path d="M 370 78.05 L 358 84.05 L 370 90.05 M 358 84.05 L 370 84.05" fill="none" stroke="rgb(0, 0, 0)" stroke-miterlimit="10" pointer-events="none"/><path d="M 290 54 L 320 54.04 Q 330 54.05 330 64.05 L 330 175 Q 330 185 340 185 L 606.5 185" fill="none" stroke="rgb(0, 0, 0)" stroke-miterlimit="10" pointer-events="none"/><path d="M 296.01 48.01 L 295.99 60.01" fill="none" stroke="rgb(0, 0, 0)" stroke-miterlimit="10" pointer-events="none"/><ellipse cx="612" cy="185" rx="4.999999999999999" ry="4.999999999999999" fill="none" stroke="rgb(0, 0, 0)" pointer-events="none"/><path d="M 630 179 L 618 185 L 630 191 M 618 185 L 630 185" fill="none" stroke="rgb(0, 0, 0)" stroke-miterlimit="10" pointer-events="none"/><path d="M 290 54 L 320 54.04 Q 330 54.05 330 64.05 L 330 265 Q 330 275 338.25 275 L 346.5 275" fill="none" stroke="rgb(0, 0, 0)" stroke-miterlimit="10" pointer-events="none"/><path d="M 296.01 48.01 L 295.99 60.01" fill="none" stroke="rgb(0, 0, 0)" stroke-miterlimit="10" pointer-events="none"/><ellipse cx="352" cy="275" rx="4.999999999999999" ry="4.999999999999999" fill="none" stroke="rgb(0, 0, 0)" pointer-events="none"/><path d="M 370 269 L 358 275 L 370 281 M 358 275 L 370 275" fill="none" stroke="rgb(0, 0, 0)" stroke-miterlimit="10" pointer-events="none"/></g></svg>