<?xml version="1.0" encoding="UTF-8"?>
<!DOCTYPE svg PUBLIC "-//W3C//DTD SVG 1.1//EN" "http://www.w3.org/Graphics/SVG/1.1/DTD/svg11.dtd">
<svg xmlns="http://www.w3.org/2000/svg" xmlns:xlink="http://www.w3.org/1999/xlink" version="1.1" width="881px" height="271px" viewBox="-0.5 -0.5 881 271" style="background-color: rgb(255, 255, 255);"><defs><clipPath id="mx-clip-10-39-30-30-0"><rect x="10" y="39" width="30" height="30"/></clipPath><clipPath id="mx-clip-46-39-244-30-0"><rect x="46" y="39" width="244" height="30"/></clipPath><clipPath id="mx-clip-10-69-30-30-0"><rect x="10" y="69" width="30" height="30"/></clipPath><clipPath id="mx-clip-46-69-244-30-0"><rect x="46" y="69" width="244" height="30"/></clipPath><clipPath id="mx-clip-46-99-244-30-0"><rect x="46" y="99" width="244" height="30"/></clipPath><clipPath id="mx-clip-46-129-244-30-0"><rect x="46" y="129" width="244" height="30"/></clipPath><clipPath id="mx-clip-46-159-244-30-0"><rect x="46" y="159" width="244" height="30"/></clipPath><clipPath id="mx-clip-370-40-30-30-0"><rect x="370" y="40" width="30" height="30"/></clipPath><clipPath id="mx-clip-406-40-204-30-0"><rect x="406" y="40" width="204" height="30"/></clipPath><clipPath id="mx-clip-370-70-30-30-0"><rect x="370" y="70" width="30" height="30"/></clipPath><clipPath id="mx-clip-406-70-204-30-0"><rect x="406" y="70" width="204" height="30"/></clipPath><clipPath id="mx-clip-406-100-204-30-0"><rect x="406" y="100" width="204" height="30"/></clipPath><clipPath id="mx-clip-370-189-30-30-0"><rect x="370" y="189" width="30" height="30"/></clipPath><clipPath id="mx-clip-406-189-204-30-0"><rect x="406" y="189" width="204" height="30"/></clipPath><clipPath id="mx-clip-406-219-204-30-0"><rect x="406" y="219" width="204" height="30"/></clipPath><style type="text/css">@import url(https://fonts.googleapis.com/css?family=Permanent+Marker);&#xa;</style></defs><g><rect x="0" y="0" width="880" height="270" fill="rgb(255, 255, 255)" stroke="#cccccc" pointer-events="all"/><path d="M 10 39 L 10 9 L 290 9 L 290 39" fill="rgb(255, 255, 255)" stroke="rgb(0, 0, 0)" stroke-miterlimit="10" pointer-events="all"/><path d="M 10 39 L 10 199 L 290 199 L 290 39" fill="none" stroke="rgb(0, 0, 0)" stroke-miterlimit="10" pointer-events="none"/><path d="M 10 39 L 290 39" fill="none" stroke="rgb(0, 0, 0)" stroke-miterlimit="10" pointer-events="none"/><path d="M 40 39 L 40 69 L 40 99 L 40 129 L 40 159 L 40 189" fill="none" stroke="rgb(0, 0, 0)" stroke-miterlimit="10" pointer-events="none"/><g fill="rgb(0, 0, 0)" font-family="Helvetica" font-weight="bold" pointer-events="none" text-anchor="middle" font-size="16px"><text x="149.5" y="30.5">labelTags</text></g><path d="M 10 39 M 290 39 M 290 69 L 10 69" fill="none" stroke="rgb(0, 0, 0)" stroke-linecap="square" stroke-miterlimit="10" pointer-events="none"/><path d="M 10 39 M 40 39 M 40 69 M 10 69" fill="none" stroke="rgb(0, 0, 0)" stroke-linecap="square" stroke-miterlimit="10" pointer-events="none"/><g fill="rgb(0, 0, 0)" font-family="Helvetica" font-weight="bold" pointer-events="none" clip-path="url(#mx-clip-10-39-30-30-0)" text-anchor="middle" font-size="16px"><text x="24.5" y="60.5">PK</text></g><path d="M 40 39 M 290 39 M 290 69 M 40 69" fill="none" stroke="rgb(0, 0, 0)" stroke-linecap="square" stroke-miterlimit="10" pointer-events="none"/><g fill="rgb(0, 0, 0)" font-family="Helvetica" font-weight="bold" text-decoration="underline" pointer-events="none" clip-path="url(#mx-clip-46-39-244-30-0)" font-size="16px"><text x="47.5" y="60.5">tag</text></g><path d="M 10 69 M 40 69 M 40 99 M 10 99" fill="none" stroke="rgb(0, 0, 0)" stroke-linecap="square" stroke-miterlimit="10" pointer-events="none"/><g fill="rgb(0, 0, 0)" font-family="Helvetica" pointer-events="none" clip-path="url(#mx-clip-10-69-30-30-0)" text-anchor="middle" font-size="16px"><text x="24.5" y="90.5">FK</text></g><path d="M 40 69 M 290 69 M 290 99 M 40 99" fill="none" stroke="rgb(0, 0, 0)" stroke-linecap="square" stroke-miterlimit="10" pointer-events="none"/><g fill="rgb(0, 0, 0)" font-family="Helvetica" pointer-events="none" clip-path="url(#mx-clip-46-69-244-30-0)" font-size="16px"><text x="47.5" y="90.5">lexicographicResourceID</text></g><path d="M 10 99 M 40 99 M 40 129 M 10 129" fill="none" stroke="rgb(0, 0, 0)" stroke-linecap="square" stroke-miterlimit="10" pointer-events="none"/><path d="M 40 99 M 290 99 M 290 129 M 40 129" fill="none" stroke="rgb(0, 0, 0)" stroke-linecap="square" stroke-miterlimit="10" pointer-events="none"/><g fill="rgb(0, 0, 0)" font-family="Helvetica" pointer-events="none" clip-path="url(#mx-clip-46-99-244-30-0)" font-size="16px"><text x="47.5" y="120.5">description</text></g><path d="M 10 129 M 40 129 M 40 159 M 10 159" fill="none" stroke="rgb(0, 0, 0)" stroke-linecap="square" stroke-miterlimit="10" pointer-events="none"/><path d="M 40 129 M 290 129 M 290 159 M 40 159" fill="none" stroke="rgb(0, 0, 0)" stroke-linecap="square" stroke-miterlimit="10" pointer-events="none"/><g fill="rgb(0, 0, 0)" font-family="Helvetica" pointer-events="none" clip-path="url(#mx-clip-46-129-244-30-0)" font-size="16px"><text x="47.5" y="150.5">typeTag</text></g><path d="M 10 159 M 40 159 M 40 189 M 10 189" fill="none" stroke="rgb(0, 0, 0)" stroke-linecap="square" stroke-miterlimit="10" pointer-events="none"/><path d="M 40 159 M 290 159 M 290 189 M 40 189" fill="none" stroke="rgb(0, 0, 0)" stroke-linecap="square" stroke-miterlimit="10" pointer-events="none"/><g fill="rgb(0, 0, 0)" font-family="Helvetica" pointer-events="none" clip-path="url(#mx-clip-46-159-244-30-0)" font-size="16px"><text x="47.5" y="180.5">for</text></g><path d="M 370 40 L 370 10 L 610 10 L 610 40" fill="rgb(255, 255, 255)" stroke="rgb(0, 0, 0)" stroke-miterlimit="10" pointer-events="none"/><path d="M 370 40 L 370 140 L 610 140 L 610 40" fill="none" stroke="rgb(0, 0, 0)" stroke-miterlimit="10" pointer-events="none"/><path d="M 370 40 L 610 40" fill="none" stroke="rgb(0, 0, 0)" stroke-miterlimit="10" pointer-events="none"/><path d="M 400 40 L 400 70 L 400 100 L 400 130" fill="none" stroke="rgb(0, 0, 0)" stroke-miterlimit="10" pointer-events="none"/><g fill="rgb(0, 0, 0)" font-family="Helvetica" font-weight="bold" pointer-events="none" text-anchor="middle" font-size="16px"><text x="489.5" y="31.5">sameAs</text></g><path d="M 370 40 M 610 40 M 610 70 L 370 70" fill="none" stroke="rgb(0, 0, 0)" stroke-linecap="square" stroke-miterlimit="10" pointer-events="none"/><path d="M 370 40 M 400 40 M 400 70 M 370 70" fill="none" stroke="rgb(0, 0, 0)" stroke-linecap="square" stroke-miterlimit="10" pointer-events="none"/><g fill="rgb(0, 0, 0)" font-family="Helvetica" font-weight="bold" pointer-events="none" clip-path="url(#mx-clip-370-40-30-30-0)" text-anchor="middle" font-size="16px"><text x="384.5" y="61.5">PK</text></g><path d="M 400 40 M 610 40 M 610 70 M 400 70" fill="none" stroke="rgb(0, 0, 0)" stroke-linecap="square" stroke-miterlimit="10" pointer-events="none"/><g fill="rgb(0, 0, 0)" font-family="Helvetica" font-weight="bold" text-decoration="underline" pointer-events="none" clip-path="url(#mx-clip-406-40-204-30-0)" font-size="16px"><text x="407.5" y="61.5">id</text></g><path d="M 370 70 M 400 70 M 400 100 M 370 100" fill="none" stroke="rgb(0, 0, 0)" stroke-linecap="square" stroke-miterlimit="10" pointer-events="none"/><g fill="rgb(0, 0, 0)" font-family="Helvetica" pointer-events="none" clip-path="url(#mx-clip-370-70-30-30-0)" text-anchor="middle" font-size="16px"><text x="384.5" y="91.5">FK</text></g><path d="M 400 70 M 610 70 M 610 100 M 400 100" fill="none" stroke="rgb(0, 0, 0)" stroke-linecap="square" stroke-miterlimit="10" pointer-events="none"/><g fill="rgb(0, 0, 0)" font-family="Helvetica" pointer-events="none" clip-path="url(#mx-clip-406-70-204-30-0)" font-size="16px"><text x="407.5" y="91.5">labelTag</text></g><path d="M 370 100 M 400 100 M 400 130 M 370 130" fill="none" stroke="rgb(0, 0, 0)" stroke-linecap="square" stroke-miterlimit="10" pointer-events="none"/><path d="M 400 100 M 610 100 M 610 130 M 400 130" fill="none" stroke="rgb(0, 0, 0)" stroke-linecap="square" stroke-miterlimit="10" pointer-events="none"/><g fill="rgb(0, 0, 0)" font-family="Helvetica" pointer-events="none" clip-path="url(#mx-clip-406-100-204-30-0)" font-size="16px"><text x="407.5" y="121.5">···</text></g><path d="M 370 189 L 370 159 L 610 159 L 610 189" fill="rgb(255, 255, 255)" stroke="rgb(0, 0, 0)" stroke-miterlimit="10" pointer-events="none"/><path d="M 370 189 L 370 259 L 610 259 L 610 189" fill="none" stroke="rgb(0, 0, 0)" stroke-miterlimit="10" pointer-events="none"/><path d="M 370 189 L 610 189" fill="none" stroke="rgb(0, 0, 0)" stroke-miterlimit="10" pointer-events="none"/><path d="M 400 189 L 400 219 L 400 249" fill="none" stroke="rgb(0, 0, 0)" stroke-miterlimit="10" pointer-events="none"/><g fill="rgb(0, 0, 0)" font-family="Helvetica" font-weight="bold" pointer-events="none" text-anchor="middle" font-size="16px"><text x="489.5" y="180.5">labelTypeTags</text></g><path d="M 370 189 M 610 189 M 610 219 L 370 219" fill="none" stroke="rgb(0, 0, 0)" stroke-linecap="square" stroke-miterlimit="10" pointer-events="none"/><path d="M 370 189 M 400 189 M 400 219 M 370 219" fill="none" stroke="rgb(0, 0, 0)" stroke-linecap="square" stroke-miterlimit="10" pointer-events="none"/><g fill="rgb(0, 0, 0)" font-family="Helvetica" font-weight="bold" pointer-events="none" clip-path="url(#mx-clip-370-189-30-30-0)" text-anchor="middle" font-size="16px"><text x="384.5" y="210.5">PK</text></g><path d="M 400 189 M 610 189 M 610 219 M 400 219" fill="none" stroke="rgb(0, 0, 0)" stroke-linecap="square" stroke-miterlimit="10" pointer-events="none"/><g fill="rgb(0, 0, 0)" font-family="Helvetica" font-weight="bold" text-decoration="underline" pointer-events="none" clip-path="url(#mx-clip-406-189-204-30-0)" font-size="16px"><text x="407.5" y="210.5">tag</text></g><path d="M 370 219 M 400 219 M 400 249 M 370 249" fill="none" stroke="rgb(0, 0, 0)" stroke-linecap="square" stroke-miterlimit="10" pointer-events="none"/><path d="M 400 219 M 610 219 M 610 249 M 400 249" fill="none" stroke="rgb(0, 0, 0)" stroke-linecap="square" stroke-miterlimit="10" pointer-events="none"/><g fill="rgb(0, 0, 0)" font-family="Helvetica" pointer-events="none" clip-path="url(#mx-clip-406-219-204-30-0)" font-size="16px"><text x="407.5" y="240.5">...</text></g><path d="M 290 54 L 330 54 Q 340 54 340 64 L 340 72 Q 340 80 343.25 80 L 346.5 80" fill="none" stroke="rgb(0, 0, 0)" stroke-miterlimit="10" pointer-events="none"/><path d="M 296 48 L 296 60" fill="none" stroke="rgb(0, 0, 0)" stroke-miterlimit="10" pointer-events="none"/><ellipse cx="352" cy="80" rx="5" ry="5" fill="none" stroke="rgb(0, 0, 0)" pointer-events="none"/><path d="M 370 74 L 358 80 L 370 86 M 358 80 L 370 80" fill="none" stroke="rgb(0, 0, 0)" stroke-miterlimit="10" pointer-events="none"/><path d="M 370 204 L 330 204 Q 320 204 320 194 L 320 154 Q 320 144 316.75 144 L 313.5 144" fill="none" stroke="rgb(0, 0, 0)" stroke-miterlimit="10" pointer-events="none"/><path d="M 364 210 L 364 198" fill="none" stroke="rgb(0, 0, 0)" stroke-miterlimit="10" pointer-events="none"/><ellipse cx="308" cy="144" rx="5" ry="5" fill="none" stroke="rgb(0, 0, 0)" pointer-events="none"/><path d="M 290 150 L 302 144 L 290 138 M 302 144 L 290 144" fill="none" stroke="rgb(0, 0, 0)" stroke-miterlimit="10" pointer-events="none"/></g></svg>