<?xml version="1.0" encoding="UTF-8"?>
<!DOCTYPE svg PUBLIC "-//W3C//DTD SVG 1.1//EN" "http://www.w3.org/Graphics/SVG/1.1/DTD/svg11.dtd">
<svg xmlns="http://www.w3.org/2000/svg" xmlns:xlink="http://www.w3.org/1999/xlink" version="1.1" width="881px" height="151px" viewBox="-0.5 -0.5 881 151" style="background-color: rgb(255, 255, 255);"><defs><clipPath id="mx-clip-10-40-30-30-0"><rect x="10" y="40" width="30" height="30"/></clipPath><clipPath id="mx-clip-46-40-244-30-0"><rect x="46" y="40" width="244" height="30"/></clipPath><clipPath id="mx-clip-10-70-30-30-0"><rect x="10" y="70" width="30" height="30"/></clipPath><clipPath id="mx-clip-46-70-244-30-0"><rect x="46" y="70" width="244" height="30"/></clipPath><clipPath id="mx-clip-46-100-244-30-0"><rect x="46" y="100" width="244" height="30"/></clipPath><clipPath id="mx-clip-370-40-30-30-0"><rect x="370" y="40" width="30" height="30"/></clipPath><clipPath id="mx-clip-406-40-204-30-0"><rect x="406" y="40" width="204" height="30"/></clipPath><clipPath id="mx-clip-370-70-30-30-0"><rect x="370" y="70" width="30" height="30"/></clipPath><clipPath id="mx-clip-406-70-204-30-0"><rect x="406" y="70" width="204" height="30"/></clipPath><clipPath id="mx-clip-406-100-204-30-0"><rect x="406" y="100" width="204" height="30"/></clipPath><style type="text/css">@import url(https://fonts.googleapis.com/css?family=Permanent+Marker);&#xa;</style></defs><g><rect x="0" y="0" width="880" height="150" fill="rgb(255, 255, 255)" stroke="#cccccc" pointer-events="all"/><path d="M 10 40 L 10 10 L 290 10 L 290 40" fill="rgb(255, 255, 255)" stroke="rgb(0, 0, 0)" stroke-miterlimit="10" pointer-events="all"/><path d="M 10 40 L 10 140 L 290 140 L 290 40" fill="none" stroke="rgb(0, 0, 0)" stroke-miterlimit="10" pointer-events="none"/><path d="M 10 40 L 290 40" fill="none" stroke="rgb(0, 0, 0)" stroke-miterlimit="10" pointer-events="none"/><path d="M 40 40 L 40 70 L 40 100 L 40 130" fill="none" stroke="rgb(0, 0, 0)" stroke-miterlimit="10" pointer-events="none"/><g fill="rgb(0, 0, 0)" font-family="Helvetica" font-weight="bold" pointer-events="none" text-anchor="middle" font-size="16px"><text x="149.5" y="31.5">labelTypeTags</text></g><path d="M 10 40 M 290 40 M 290 70 L 10 70" fill="none" stroke="rgb(0, 0, 0)" stroke-linecap="square" stroke-miterlimit="10" pointer-events="none"/><path d="M 10 40 M 40 40 M 40 70 M 10 70" fill="none" stroke="rgb(0, 0, 0)" stroke-linecap="square" stroke-miterlimit="10" pointer-events="none"/><g fill="rgb(0, 0, 0)" font-family="Helvetica" font-weight="bold" pointer-events="none" clip-path="url(#mx-clip-10-40-30-30-0)" text-anchor="middle" font-size="16px"><text x="24.5" y="61.5">PK</text></g><path d="M 40 40 M 290 40 M 290 70 M 40 70" fill="none" stroke="rgb(0, 0, 0)" stroke-linecap="square" stroke-miterlimit="10" pointer-events="none"/><g fill="rgb(0, 0, 0)" font-family="Helvetica" font-weight="bold" text-decoration="underline" pointer-events="none" clip-path="url(#mx-clip-46-40-244-30-0)" font-size="16px"><text x="47.5" y="61.5">tag</text></g><path d="M 10 70 M 40 70 M 40 100 M 10 100" fill="none" stroke="rgb(0, 0, 0)" stroke-linecap="square" stroke-miterlimit="10" pointer-events="none"/><g fill="rgb(0, 0, 0)" font-family="Helvetica" pointer-events="none" clip-path="url(#mx-clip-10-70-30-30-0)" text-anchor="middle" font-size="16px"><text x="24.5" y="91.5">FK</text></g><path d="M 40 70 M 290 70 M 290 100 M 40 100" fill="none" stroke="rgb(0, 0, 0)" stroke-linecap="square" stroke-miterlimit="10" pointer-events="none"/><g fill="rgb(0, 0, 0)" font-family="Helvetica" pointer-events="none" clip-path="url(#mx-clip-46-70-244-30-0)" font-size="16px"><text x="47.5" y="91.5">lexicographicResourceID</text></g><path d="M 10 100 M 40 100 M 40 130 M 10 130" fill="none" stroke="rgb(0, 0, 0)" stroke-linecap="square" stroke-miterlimit="10" pointer-events="none"/><path d="M 40 100 M 290 100 M 290 130 M 40 130" fill="none" stroke="rgb(0, 0, 0)" stroke-linecap="square" stroke-miterlimit="10" pointer-events="none"/><g fill="rgb(0, 0, 0)" font-family="Helvetica" pointer-events="none" clip-path="url(#mx-clip-46-100-244-30-0)" font-size="16px"><text x="47.5" y="121.5">description</text></g><path d="M 370 40 L 370 10 L 610 10 L 610 40" fill="rgb(255, 255, 255)" stroke="rgb(0, 0, 0)" stroke-miterlimit="10" pointer-events="none"/><path d="M 370 40 L 370 140 L 610 140 L 610 40" fill="none" stroke="rgb(0, 0, 0)" stroke-miterlimit="10" pointer-events="none"/><path d="M 370 40 L 610 40" fill="none" stroke="rgb(0, 0, 0)" stroke-miterlimit="10" pointer-events="none"/><path d="M 400 40 L 400 70 L 400 100 L 400 130" fill="none" stroke="rgb(0, 0, 0)" stroke-miterlimit="10" pointer-events="none"/><g fill="rgb(0, 0, 0)" font-family="Helvetica" font-weight="bold" pointer-events="none" text-anchor="middle" font-size="16px"><text x="489.5" y="31.5">sameAs</text></g><path d="M 370 40 M 610 40 M 610 70 L 370 70" fill="none" stroke="rgb(0, 0, 0)" stroke-linecap="square" stroke-miterlimit="10" pointer-events="none"/><path d="M 370 40 M 400 40 M 400 70 M 370 70" fill="none" stroke="rgb(0, 0, 0)" stroke-linecap="square" stroke-miterlimit="10" pointer-events="none"/><g fill="rgb(0, 0, 0)" font-family="Helvetica" font-weight="bold" pointer-events="none" clip-path="url(#mx-clip-370-40-30-30-0)" text-anchor="middle" font-size="16px"><text x="384.5" y="61.5">PK</text></g><path d="M 400 40 M 610 40 M 610 70 M 400 70" fill="none" stroke="rgb(0, 0, 0)" stroke-linecap="square" stroke-miterlimit="10" pointer-events="none"/><g fill="rgb(0, 0, 0)" font-family="Helvetica" font-weight="bold" text-decoration="underline" pointer-events="none" clip-path="url(#mx-clip-406-40-204-30-0)" font-size="16px"><text x="407.5" y="61.5">id</text></g><path d="M 370 70 M 400 70 M 400 100 M 370 100" fill="none" stroke="rgb(0, 0, 0)" stroke-linecap="square" stroke-miterlimit="10" pointer-events="none"/><g fill="rgb(0, 0, 0)" font-family="Helvetica" pointer-events="none" clip-path="url(#mx-clip-370-70-30-30-0)" text-anchor="middle" font-size="16px"><text x="384.5" y="91.5">FK</text></g><path d="M 400 70 M 610 70 M 610 100 M 400 100" fill="none" stroke="rgb(0, 0, 0)" stroke-linecap="square" stroke-miterlimit="10" pointer-events="none"/><g fill="rgb(0, 0, 0)" font-family="Helvetica" pointer-events="none" clip-path="url(#mx-clip-406-70-204-30-0)" font-size="16px"><text x="407.5" y="91.5">labelTypeTag</text></g><path d="M 370 100 M 400 100 M 400 130 M 370 130" fill="none" stroke="rgb(0, 0, 0)" stroke-linecap="square" stroke-miterlimit="10" pointer-events="none"/><path d="M 400 100 M 610 100 M 610 130 M 400 130" fill="none" stroke="rgb(0, 0, 0)" stroke-linecap="square" stroke-miterlimit="10" pointer-events="none"/><g fill="rgb(0, 0, 0)" font-family="Helvetica" pointer-events="none" clip-path="url(#mx-clip-406-100-204-30-0)" font-size="16px"><text x="407.5" y="121.5">···</text></g><path d="M 290 55 L 320 55 Q 330 55 330 65 L 330 75 Q 330 85 338.25 85 L 346.5 85" fill="none" stroke="rgb(0, 0, 0)" stroke-miterlimit="10" pointer-events="none"/><path d="M 296 49 L 296 61" fill="none" stroke="rgb(0, 0, 0)" stroke-miterlimit="10" pointer-events="none"/><ellipse cx="352" cy="85" rx="5" ry="5" fill="none" stroke="rgb(0, 0, 0)" pointer-events="none"/><path d="M 370 79 L 358 85 L 370 91 M 358 85 L 370 85" fill="none" stroke="rgb(0, 0, 0)" stroke-miterlimit="10" pointer-events="none"/></g></svg>